%TF.GenerationSoftware,KiCad,Pcbnew,(5.1.6)-1*%
%TF.CreationDate,2020-08-25T11:29:02-06:00*%
%TF.ProjectId,Sensores,53656e73-6f72-4657-932e-6b696361645f,rev?*%
%TF.SameCoordinates,Original*%
%TF.FileFunction,Legend,Top*%
%TF.FilePolarity,Positive*%
%FSLAX46Y46*%
G04 Gerber Fmt 4.6, Leading zero omitted, Abs format (unit mm)*
G04 Created by KiCad (PCBNEW (5.1.6)-1) date 2020-08-25 11:29:02*
%MOMM*%
%LPD*%
G01*
G04 APERTURE LIST*
%ADD10C,0.120000*%
%ADD11C,0.200000*%
%ADD12C,0.127000*%
%ADD13C,0.150000*%
%ADD14C,0.015000*%
G04 APERTURE END LIST*
D10*
%TO.C,U4*%
X102830000Y-42450000D02*
X113070000Y-42450000D01*
X102830000Y-47091000D02*
X113070000Y-47091000D01*
X102830000Y-42450000D02*
X102830000Y-47091000D01*
X113070000Y-42450000D02*
X113070000Y-47091000D01*
X102830000Y-43960000D02*
X113070000Y-43960000D01*
X106100000Y-42450000D02*
X106100000Y-43960000D01*
X109801000Y-42450000D02*
X109801000Y-43960000D01*
D11*
%TO.C,RV3*%
X95350000Y-109050000D02*
G75*
G03*
X95350000Y-109050000I-100000J0D01*
G01*
D12*
X92840000Y-119065000D02*
X92840000Y-109535000D01*
X92840000Y-109535000D02*
X97670000Y-109535000D01*
X97670000Y-119065000D02*
X92840000Y-119065000D01*
X97670000Y-109535000D02*
X97670000Y-119065000D01*
D10*
%TO.C,U3*%
X106105000Y-100270000D02*
X103870000Y-100270000D01*
X106105000Y-108010000D02*
X106105000Y-100270000D01*
X99635000Y-108010000D02*
X106105000Y-108010000D01*
X99635000Y-100270000D02*
X99635000Y-108010000D01*
X101870000Y-100270000D02*
X99635000Y-100270000D01*
X103870000Y-100270000D02*
G75*
G02*
X101870000Y-100270000I-1000000J0D01*
G01*
%TO.C,U2*%
X162680000Y-120710000D02*
X162680000Y-110430000D01*
X152280000Y-120710000D02*
X162680000Y-120710000D01*
X152280000Y-110430000D02*
X152280000Y-120710000D01*
X162680000Y-110430000D02*
X152280000Y-110430000D01*
X162620000Y-118220000D02*
X162620000Y-116570000D01*
X152340000Y-118220000D02*
X162620000Y-118220000D01*
X152340000Y-112920000D02*
X152340000Y-118220000D01*
X162620000Y-112920000D02*
X152340000Y-112920000D01*
X162620000Y-114570000D02*
X162620000Y-112920000D01*
X162620000Y-116570000D02*
G75*
G02*
X162620000Y-114570000I0J1000000D01*
G01*
%TO.C,U1*%
X120920000Y-93920000D02*
X119270000Y-93920000D01*
X119270000Y-93920000D02*
X119270000Y-111820000D01*
X119270000Y-111820000D02*
X124570000Y-111820000D01*
X124570000Y-111820000D02*
X124570000Y-93920000D01*
X124570000Y-93920000D02*
X122920000Y-93920000D01*
X122920000Y-93920000D02*
G75*
G02*
X120920000Y-93920000I-1000000J0D01*
G01*
%TO.C,R14*%
X132620000Y-93880000D02*
X132620000Y-96620000D01*
X132620000Y-96620000D02*
X139160000Y-96620000D01*
X139160000Y-96620000D02*
X139160000Y-93880000D01*
X139160000Y-93880000D02*
X132620000Y-93880000D01*
X131850000Y-95250000D02*
X132620000Y-95250000D01*
X139930000Y-95250000D02*
X139160000Y-95250000D01*
%TO.C,R11*%
X119150000Y-121920000D02*
X119920000Y-121920000D01*
X127230000Y-121920000D02*
X126460000Y-121920000D01*
X119920000Y-123290000D02*
X126460000Y-123290000D01*
X119920000Y-120550000D02*
X119920000Y-123290000D01*
X126460000Y-120550000D02*
X119920000Y-120550000D01*
X126460000Y-123290000D02*
X126460000Y-120550000D01*
%TO.C,LVL1*%
X113919000Y-79121000D02*
X100711000Y-79121000D01*
X100711000Y-62865000D02*
X113919000Y-62865000D01*
X115443000Y-78613000D02*
G75*
G03*
X115443000Y-78613000I-508000J0D01*
G01*
D12*
%TO.C,RV4*%
X160975000Y-106560000D02*
X151445000Y-106560000D01*
X151445000Y-106560000D02*
X151445000Y-101730000D01*
X160975000Y-101730000D02*
X160975000Y-106560000D01*
X151445000Y-101730000D02*
X160975000Y-101730000D01*
D11*
X161560000Y-104140000D02*
G75*
G03*
X161560000Y-104140000I-100000J0D01*
G01*
D10*
%TO.C,J1*%
X96580000Y-62170000D02*
X93920000Y-62170000D01*
X96580000Y-77470000D02*
X96580000Y-62170000D01*
X93920000Y-77470000D02*
X93920000Y-62170000D01*
X96580000Y-77470000D02*
X93920000Y-77470000D01*
X96580000Y-78740000D02*
X96580000Y-80070000D01*
X96580000Y-80070000D02*
X95250000Y-80070000D01*
%TO.C,R13*%
X134390000Y-100330000D02*
X135160000Y-100330000D01*
X142470000Y-100330000D02*
X141700000Y-100330000D01*
X135160000Y-101700000D02*
X141700000Y-101700000D01*
X135160000Y-98960000D02*
X135160000Y-101700000D01*
X141700000Y-98960000D02*
X135160000Y-98960000D01*
X141700000Y-101700000D02*
X141700000Y-98960000D01*
%TO.C,R10*%
X102140000Y-110390000D02*
X102140000Y-113130000D01*
X102140000Y-113130000D02*
X108680000Y-113130000D01*
X108680000Y-113130000D02*
X108680000Y-110390000D01*
X108680000Y-110390000D02*
X102140000Y-110390000D01*
X101370000Y-111760000D02*
X102140000Y-111760000D01*
X109450000Y-111760000D02*
X108680000Y-111760000D01*
%TO.C,C4*%
X142290000Y-102770000D02*
X149730000Y-102770000D01*
X142290000Y-105510000D02*
X149730000Y-105510000D01*
X142290000Y-102770000D02*
X142290000Y-105510000D01*
X149730000Y-102770000D02*
X149730000Y-105510000D01*
%TO.C,C3*%
X121790000Y-83085000D02*
X121790000Y-85825000D01*
X114350000Y-83085000D02*
X114350000Y-85825000D01*
X114350000Y-85825000D02*
X121790000Y-85825000D01*
X114350000Y-83085000D02*
X121790000Y-83085000D01*
%TO.C,C2*%
X147380000Y-109220000D02*
G75*
G03*
X147380000Y-109220000I-2620000J0D01*
G01*
X144760000Y-106640000D02*
X144760000Y-111800000D01*
X144800000Y-106640000D02*
X144800000Y-111800000D01*
X144840000Y-106641000D02*
X144840000Y-111799000D01*
X144880000Y-106642000D02*
X144880000Y-111798000D01*
X144920000Y-106644000D02*
X144920000Y-111796000D01*
X144960000Y-106647000D02*
X144960000Y-111793000D01*
X145000000Y-106651000D02*
X145000000Y-108180000D01*
X145000000Y-110260000D02*
X145000000Y-111789000D01*
X145040000Y-106655000D02*
X145040000Y-108180000D01*
X145040000Y-110260000D02*
X145040000Y-111785000D01*
X145080000Y-106659000D02*
X145080000Y-108180000D01*
X145080000Y-110260000D02*
X145080000Y-111781000D01*
X145120000Y-106664000D02*
X145120000Y-108180000D01*
X145120000Y-110260000D02*
X145120000Y-111776000D01*
X145160000Y-106670000D02*
X145160000Y-108180000D01*
X145160000Y-110260000D02*
X145160000Y-111770000D01*
X145200000Y-106677000D02*
X145200000Y-108180000D01*
X145200000Y-110260000D02*
X145200000Y-111763000D01*
X145240000Y-106684000D02*
X145240000Y-108180000D01*
X145240000Y-110260000D02*
X145240000Y-111756000D01*
X145280000Y-106692000D02*
X145280000Y-108180000D01*
X145280000Y-110260000D02*
X145280000Y-111748000D01*
X145320000Y-106700000D02*
X145320000Y-108180000D01*
X145320000Y-110260000D02*
X145320000Y-111740000D01*
X145360000Y-106709000D02*
X145360000Y-108180000D01*
X145360000Y-110260000D02*
X145360000Y-111731000D01*
X145400000Y-106719000D02*
X145400000Y-108180000D01*
X145400000Y-110260000D02*
X145400000Y-111721000D01*
X145440000Y-106729000D02*
X145440000Y-108180000D01*
X145440000Y-110260000D02*
X145440000Y-111711000D01*
X145481000Y-106740000D02*
X145481000Y-108180000D01*
X145481000Y-110260000D02*
X145481000Y-111700000D01*
X145521000Y-106752000D02*
X145521000Y-108180000D01*
X145521000Y-110260000D02*
X145521000Y-111688000D01*
X145561000Y-106765000D02*
X145561000Y-108180000D01*
X145561000Y-110260000D02*
X145561000Y-111675000D01*
X145601000Y-106778000D02*
X145601000Y-108180000D01*
X145601000Y-110260000D02*
X145601000Y-111662000D01*
X145641000Y-106792000D02*
X145641000Y-108180000D01*
X145641000Y-110260000D02*
X145641000Y-111648000D01*
X145681000Y-106806000D02*
X145681000Y-108180000D01*
X145681000Y-110260000D02*
X145681000Y-111634000D01*
X145721000Y-106822000D02*
X145721000Y-108180000D01*
X145721000Y-110260000D02*
X145721000Y-111618000D01*
X145761000Y-106838000D02*
X145761000Y-108180000D01*
X145761000Y-110260000D02*
X145761000Y-111602000D01*
X145801000Y-106855000D02*
X145801000Y-108180000D01*
X145801000Y-110260000D02*
X145801000Y-111585000D01*
X145841000Y-106872000D02*
X145841000Y-108180000D01*
X145841000Y-110260000D02*
X145841000Y-111568000D01*
X145881000Y-106891000D02*
X145881000Y-108180000D01*
X145881000Y-110260000D02*
X145881000Y-111549000D01*
X145921000Y-106910000D02*
X145921000Y-108180000D01*
X145921000Y-110260000D02*
X145921000Y-111530000D01*
X145961000Y-106930000D02*
X145961000Y-108180000D01*
X145961000Y-110260000D02*
X145961000Y-111510000D01*
X146001000Y-106952000D02*
X146001000Y-108180000D01*
X146001000Y-110260000D02*
X146001000Y-111488000D01*
X146041000Y-106973000D02*
X146041000Y-108180000D01*
X146041000Y-110260000D02*
X146041000Y-111467000D01*
X146081000Y-106996000D02*
X146081000Y-108180000D01*
X146081000Y-110260000D02*
X146081000Y-111444000D01*
X146121000Y-107020000D02*
X146121000Y-108180000D01*
X146121000Y-110260000D02*
X146121000Y-111420000D01*
X146161000Y-107045000D02*
X146161000Y-108180000D01*
X146161000Y-110260000D02*
X146161000Y-111395000D01*
X146201000Y-107071000D02*
X146201000Y-108180000D01*
X146201000Y-110260000D02*
X146201000Y-111369000D01*
X146241000Y-107098000D02*
X146241000Y-108180000D01*
X146241000Y-110260000D02*
X146241000Y-111342000D01*
X146281000Y-107125000D02*
X146281000Y-108180000D01*
X146281000Y-110260000D02*
X146281000Y-111315000D01*
X146321000Y-107155000D02*
X146321000Y-108180000D01*
X146321000Y-110260000D02*
X146321000Y-111285000D01*
X146361000Y-107185000D02*
X146361000Y-108180000D01*
X146361000Y-110260000D02*
X146361000Y-111255000D01*
X146401000Y-107216000D02*
X146401000Y-108180000D01*
X146401000Y-110260000D02*
X146401000Y-111224000D01*
X146441000Y-107249000D02*
X146441000Y-108180000D01*
X146441000Y-110260000D02*
X146441000Y-111191000D01*
X146481000Y-107283000D02*
X146481000Y-108180000D01*
X146481000Y-110260000D02*
X146481000Y-111157000D01*
X146521000Y-107319000D02*
X146521000Y-108180000D01*
X146521000Y-110260000D02*
X146521000Y-111121000D01*
X146561000Y-107356000D02*
X146561000Y-108180000D01*
X146561000Y-110260000D02*
X146561000Y-111084000D01*
X146601000Y-107394000D02*
X146601000Y-108180000D01*
X146601000Y-110260000D02*
X146601000Y-111046000D01*
X146641000Y-107435000D02*
X146641000Y-108180000D01*
X146641000Y-110260000D02*
X146641000Y-111005000D01*
X146681000Y-107477000D02*
X146681000Y-108180000D01*
X146681000Y-110260000D02*
X146681000Y-110963000D01*
X146721000Y-107521000D02*
X146721000Y-108180000D01*
X146721000Y-110260000D02*
X146721000Y-110919000D01*
X146761000Y-107567000D02*
X146761000Y-108180000D01*
X146761000Y-110260000D02*
X146761000Y-110873000D01*
X146801000Y-107615000D02*
X146801000Y-108180000D01*
X146801000Y-110260000D02*
X146801000Y-110825000D01*
X146841000Y-107666000D02*
X146841000Y-108180000D01*
X146841000Y-110260000D02*
X146841000Y-110774000D01*
X146881000Y-107720000D02*
X146881000Y-108180000D01*
X146881000Y-110260000D02*
X146881000Y-110720000D01*
X146921000Y-107777000D02*
X146921000Y-108180000D01*
X146921000Y-110260000D02*
X146921000Y-110663000D01*
X146961000Y-107837000D02*
X146961000Y-108180000D01*
X146961000Y-110260000D02*
X146961000Y-110603000D01*
X147001000Y-107901000D02*
X147001000Y-108180000D01*
X147001000Y-110260000D02*
X147001000Y-110539000D01*
X147041000Y-107969000D02*
X147041000Y-108180000D01*
X147041000Y-110260000D02*
X147041000Y-110471000D01*
X147081000Y-108042000D02*
X147081000Y-110398000D01*
X147121000Y-108122000D02*
X147121000Y-110318000D01*
X147161000Y-108209000D02*
X147161000Y-110231000D01*
X147201000Y-108305000D02*
X147201000Y-110135000D01*
X147241000Y-108415000D02*
X147241000Y-110025000D01*
X147281000Y-108543000D02*
X147281000Y-109897000D01*
X147321000Y-108702000D02*
X147321000Y-109738000D01*
X147361000Y-108936000D02*
X147361000Y-109504000D01*
X141955225Y-107745000D02*
X142455225Y-107745000D01*
X142205225Y-107495000D02*
X142205225Y-107995000D01*
%TO.C,J2*%
X149920000Y-118170000D02*
X149920000Y-115510000D01*
X144780000Y-118170000D02*
X149920000Y-118170000D01*
X144780000Y-115510000D02*
X149920000Y-115510000D01*
X144780000Y-118170000D02*
X144780000Y-115510000D01*
X143510000Y-118170000D02*
X142180000Y-118170000D01*
X142180000Y-118170000D02*
X142180000Y-116840000D01*
%TO.C,R12*%
X117880000Y-91440000D02*
X118650000Y-91440000D01*
X125960000Y-91440000D02*
X125190000Y-91440000D01*
X118650000Y-92810000D02*
X125190000Y-92810000D01*
X118650000Y-90070000D02*
X118650000Y-92810000D01*
X125190000Y-90070000D02*
X118650000Y-90070000D01*
X125190000Y-92810000D02*
X125190000Y-90070000D01*
%TO.C,C1*%
X128235225Y-84635000D02*
X128235225Y-85135000D01*
X127985225Y-84885000D02*
X128485225Y-84885000D01*
X133391000Y-86076000D02*
X133391000Y-86644000D01*
X133351000Y-85842000D02*
X133351000Y-86878000D01*
X133311000Y-85683000D02*
X133311000Y-87037000D01*
X133271000Y-85555000D02*
X133271000Y-87165000D01*
X133231000Y-85445000D02*
X133231000Y-87275000D01*
X133191000Y-85349000D02*
X133191000Y-87371000D01*
X133151000Y-85262000D02*
X133151000Y-87458000D01*
X133111000Y-85182000D02*
X133111000Y-87538000D01*
X133071000Y-87400000D02*
X133071000Y-87611000D01*
X133071000Y-85109000D02*
X133071000Y-85320000D01*
X133031000Y-87400000D02*
X133031000Y-87679000D01*
X133031000Y-85041000D02*
X133031000Y-85320000D01*
X132991000Y-87400000D02*
X132991000Y-87743000D01*
X132991000Y-84977000D02*
X132991000Y-85320000D01*
X132951000Y-87400000D02*
X132951000Y-87803000D01*
X132951000Y-84917000D02*
X132951000Y-85320000D01*
X132911000Y-87400000D02*
X132911000Y-87860000D01*
X132911000Y-84860000D02*
X132911000Y-85320000D01*
X132871000Y-87400000D02*
X132871000Y-87914000D01*
X132871000Y-84806000D02*
X132871000Y-85320000D01*
X132831000Y-87400000D02*
X132831000Y-87965000D01*
X132831000Y-84755000D02*
X132831000Y-85320000D01*
X132791000Y-87400000D02*
X132791000Y-88013000D01*
X132791000Y-84707000D02*
X132791000Y-85320000D01*
X132751000Y-87400000D02*
X132751000Y-88059000D01*
X132751000Y-84661000D02*
X132751000Y-85320000D01*
X132711000Y-87400000D02*
X132711000Y-88103000D01*
X132711000Y-84617000D02*
X132711000Y-85320000D01*
X132671000Y-87400000D02*
X132671000Y-88145000D01*
X132671000Y-84575000D02*
X132671000Y-85320000D01*
X132631000Y-87400000D02*
X132631000Y-88186000D01*
X132631000Y-84534000D02*
X132631000Y-85320000D01*
X132591000Y-87400000D02*
X132591000Y-88224000D01*
X132591000Y-84496000D02*
X132591000Y-85320000D01*
X132551000Y-87400000D02*
X132551000Y-88261000D01*
X132551000Y-84459000D02*
X132551000Y-85320000D01*
X132511000Y-87400000D02*
X132511000Y-88297000D01*
X132511000Y-84423000D02*
X132511000Y-85320000D01*
X132471000Y-87400000D02*
X132471000Y-88331000D01*
X132471000Y-84389000D02*
X132471000Y-85320000D01*
X132431000Y-87400000D02*
X132431000Y-88364000D01*
X132431000Y-84356000D02*
X132431000Y-85320000D01*
X132391000Y-87400000D02*
X132391000Y-88395000D01*
X132391000Y-84325000D02*
X132391000Y-85320000D01*
X132351000Y-87400000D02*
X132351000Y-88425000D01*
X132351000Y-84295000D02*
X132351000Y-85320000D01*
X132311000Y-87400000D02*
X132311000Y-88455000D01*
X132311000Y-84265000D02*
X132311000Y-85320000D01*
X132271000Y-87400000D02*
X132271000Y-88482000D01*
X132271000Y-84238000D02*
X132271000Y-85320000D01*
X132231000Y-87400000D02*
X132231000Y-88509000D01*
X132231000Y-84211000D02*
X132231000Y-85320000D01*
X132191000Y-87400000D02*
X132191000Y-88535000D01*
X132191000Y-84185000D02*
X132191000Y-85320000D01*
X132151000Y-87400000D02*
X132151000Y-88560000D01*
X132151000Y-84160000D02*
X132151000Y-85320000D01*
X132111000Y-87400000D02*
X132111000Y-88584000D01*
X132111000Y-84136000D02*
X132111000Y-85320000D01*
X132071000Y-87400000D02*
X132071000Y-88607000D01*
X132071000Y-84113000D02*
X132071000Y-85320000D01*
X132031000Y-87400000D02*
X132031000Y-88628000D01*
X132031000Y-84092000D02*
X132031000Y-85320000D01*
X131991000Y-87400000D02*
X131991000Y-88650000D01*
X131991000Y-84070000D02*
X131991000Y-85320000D01*
X131951000Y-87400000D02*
X131951000Y-88670000D01*
X131951000Y-84050000D02*
X131951000Y-85320000D01*
X131911000Y-87400000D02*
X131911000Y-88689000D01*
X131911000Y-84031000D02*
X131911000Y-85320000D01*
X131871000Y-87400000D02*
X131871000Y-88708000D01*
X131871000Y-84012000D02*
X131871000Y-85320000D01*
X131831000Y-87400000D02*
X131831000Y-88725000D01*
X131831000Y-83995000D02*
X131831000Y-85320000D01*
X131791000Y-87400000D02*
X131791000Y-88742000D01*
X131791000Y-83978000D02*
X131791000Y-85320000D01*
X131751000Y-87400000D02*
X131751000Y-88758000D01*
X131751000Y-83962000D02*
X131751000Y-85320000D01*
X131711000Y-87400000D02*
X131711000Y-88774000D01*
X131711000Y-83946000D02*
X131711000Y-85320000D01*
X131671000Y-87400000D02*
X131671000Y-88788000D01*
X131671000Y-83932000D02*
X131671000Y-85320000D01*
X131631000Y-87400000D02*
X131631000Y-88802000D01*
X131631000Y-83918000D02*
X131631000Y-85320000D01*
X131591000Y-87400000D02*
X131591000Y-88815000D01*
X131591000Y-83905000D02*
X131591000Y-85320000D01*
X131551000Y-87400000D02*
X131551000Y-88828000D01*
X131551000Y-83892000D02*
X131551000Y-85320000D01*
X131511000Y-87400000D02*
X131511000Y-88840000D01*
X131511000Y-83880000D02*
X131511000Y-85320000D01*
X131470000Y-87400000D02*
X131470000Y-88851000D01*
X131470000Y-83869000D02*
X131470000Y-85320000D01*
X131430000Y-87400000D02*
X131430000Y-88861000D01*
X131430000Y-83859000D02*
X131430000Y-85320000D01*
X131390000Y-87400000D02*
X131390000Y-88871000D01*
X131390000Y-83849000D02*
X131390000Y-85320000D01*
X131350000Y-87400000D02*
X131350000Y-88880000D01*
X131350000Y-83840000D02*
X131350000Y-85320000D01*
X131310000Y-87400000D02*
X131310000Y-88888000D01*
X131310000Y-83832000D02*
X131310000Y-85320000D01*
X131270000Y-87400000D02*
X131270000Y-88896000D01*
X131270000Y-83824000D02*
X131270000Y-85320000D01*
X131230000Y-87400000D02*
X131230000Y-88903000D01*
X131230000Y-83817000D02*
X131230000Y-85320000D01*
X131190000Y-87400000D02*
X131190000Y-88910000D01*
X131190000Y-83810000D02*
X131190000Y-85320000D01*
X131150000Y-87400000D02*
X131150000Y-88916000D01*
X131150000Y-83804000D02*
X131150000Y-85320000D01*
X131110000Y-87400000D02*
X131110000Y-88921000D01*
X131110000Y-83799000D02*
X131110000Y-85320000D01*
X131070000Y-87400000D02*
X131070000Y-88925000D01*
X131070000Y-83795000D02*
X131070000Y-85320000D01*
X131030000Y-87400000D02*
X131030000Y-88929000D01*
X131030000Y-83791000D02*
X131030000Y-85320000D01*
X130990000Y-83787000D02*
X130990000Y-88933000D01*
X130950000Y-83784000D02*
X130950000Y-88936000D01*
X130910000Y-83782000D02*
X130910000Y-88938000D01*
X130870000Y-83781000D02*
X130870000Y-88939000D01*
X130830000Y-83780000D02*
X130830000Y-88940000D01*
X130790000Y-83780000D02*
X130790000Y-88940000D01*
X133410000Y-86360000D02*
G75*
G03*
X133410000Y-86360000I-2620000J0D01*
G01*
%TO.C,J3*%
X142180000Y-41740000D02*
X152460000Y-41740000D01*
X152460000Y-41740000D02*
X152460000Y-39080000D01*
X152460000Y-39080000D02*
X142180000Y-39080000D01*
X142180000Y-39080000D02*
X142180000Y-41740000D01*
X143130000Y-39080000D02*
X143130000Y-33080000D01*
X143130000Y-33080000D02*
X143890000Y-33080000D01*
X143890000Y-33080000D02*
X143890000Y-39080000D01*
X143190000Y-39080000D02*
X143190000Y-33080000D01*
X143310000Y-39080000D02*
X143310000Y-33080000D01*
X143430000Y-39080000D02*
X143430000Y-33080000D01*
X143550000Y-39080000D02*
X143550000Y-33080000D01*
X143670000Y-39080000D02*
X143670000Y-33080000D01*
X143790000Y-39080000D02*
X143790000Y-33080000D01*
X143130000Y-42137071D02*
X143130000Y-41740000D01*
X143890000Y-42137071D02*
X143890000Y-41740000D01*
X143130000Y-44610000D02*
X143130000Y-44222929D01*
X143890000Y-44610000D02*
X143890000Y-44222929D01*
X144780000Y-41740000D02*
X144780000Y-39080000D01*
X145670000Y-39080000D02*
X145670000Y-33080000D01*
X145670000Y-33080000D02*
X146430000Y-33080000D01*
X146430000Y-33080000D02*
X146430000Y-39080000D01*
X145670000Y-42137071D02*
X145670000Y-41740000D01*
X146430000Y-42137071D02*
X146430000Y-41740000D01*
X145670000Y-44677071D02*
X145670000Y-44222929D01*
X146430000Y-44677071D02*
X146430000Y-44222929D01*
X147320000Y-41740000D02*
X147320000Y-39080000D01*
X148210000Y-39080000D02*
X148210000Y-33080000D01*
X148210000Y-33080000D02*
X148970000Y-33080000D01*
X148970000Y-33080000D02*
X148970000Y-39080000D01*
X148210000Y-42137071D02*
X148210000Y-41740000D01*
X148970000Y-42137071D02*
X148970000Y-41740000D01*
X148210000Y-44677071D02*
X148210000Y-44222929D01*
X148970000Y-44677071D02*
X148970000Y-44222929D01*
X149860000Y-41740000D02*
X149860000Y-39080000D01*
X150750000Y-39080000D02*
X150750000Y-33080000D01*
X150750000Y-33080000D02*
X151510000Y-33080000D01*
X151510000Y-33080000D02*
X151510000Y-39080000D01*
X150750000Y-42137071D02*
X150750000Y-41740000D01*
X151510000Y-42137071D02*
X151510000Y-41740000D01*
X150750000Y-44677071D02*
X150750000Y-44222929D01*
X151510000Y-44677071D02*
X151510000Y-44222929D01*
X143510000Y-46990000D02*
X142240000Y-46990000D01*
X142240000Y-46990000D02*
X142240000Y-45720000D01*
%TO.C,C5*%
X106550000Y-49430000D02*
X106550000Y-52170000D01*
X99110000Y-49430000D02*
X99110000Y-52170000D01*
X99110000Y-52170000D02*
X106550000Y-52170000D01*
X99110000Y-49430000D02*
X106550000Y-49430000D01*
%TO.C,R2*%
X131350000Y-106580000D02*
X131350000Y-109320000D01*
X131350000Y-109320000D02*
X137890000Y-109320000D01*
X137890000Y-109320000D02*
X137890000Y-106580000D01*
X137890000Y-106580000D02*
X131350000Y-106580000D01*
X130580000Y-107950000D02*
X131350000Y-107950000D01*
X138660000Y-107950000D02*
X137890000Y-107950000D01*
%TO.C,R1*%
X119920000Y-114200000D02*
X119920000Y-116940000D01*
X119920000Y-116940000D02*
X126460000Y-116940000D01*
X126460000Y-116940000D02*
X126460000Y-114200000D01*
X126460000Y-114200000D02*
X119920000Y-114200000D01*
X119150000Y-115570000D02*
X119920000Y-115570000D01*
X127230000Y-115570000D02*
X126460000Y-115570000D01*
%TO.C,Q2*%
X161980000Y-66780000D02*
X161980000Y-70380000D01*
X161991522Y-70418478D02*
G75*
G03*
X166430000Y-68580000I1838478J1838478D01*
G01*
X161991522Y-66741522D02*
G75*
G02*
X166430000Y-68580000I1838478J-1838478D01*
G01*
%TO.C,C8*%
X115520000Y-52170000D02*
X108080000Y-52170000D01*
X115520000Y-49430000D02*
X108080000Y-49430000D01*
X115520000Y-52170000D02*
X115520000Y-49430000D01*
X108080000Y-52170000D02*
X108080000Y-49430000D01*
%TO.C,Q1*%
X131500000Y-112500000D02*
X131500000Y-116100000D01*
X131511522Y-116138478D02*
G75*
G03*
X135950000Y-114300000I1838478J1838478D01*
G01*
X131511522Y-112461522D02*
G75*
G02*
X135950000Y-114300000I1838478J-1838478D01*
G01*
%TO.C,D4*%
X150530000Y-66240000D02*
X150530000Y-63300000D01*
X150290000Y-66240000D02*
X150290000Y-63300000D01*
X150410000Y-66240000D02*
X150410000Y-63300000D01*
X144650000Y-64770000D02*
X145870000Y-64770000D01*
X152530000Y-64770000D02*
X151310000Y-64770000D01*
X145870000Y-66240000D02*
X151310000Y-66240000D01*
X145870000Y-63300000D02*
X145870000Y-66240000D01*
X151310000Y-63300000D02*
X145870000Y-63300000D01*
X151310000Y-66240000D02*
X151310000Y-63300000D01*
%TO.C,R9*%
X108180000Y-96520000D02*
X107410000Y-96520000D01*
X100100000Y-96520000D02*
X100870000Y-96520000D01*
X107410000Y-95150000D02*
X100870000Y-95150000D01*
X107410000Y-97890000D02*
X107410000Y-95150000D01*
X100870000Y-97890000D02*
X107410000Y-97890000D01*
X100870000Y-95150000D02*
X100870000Y-97890000D01*
%TO.C,R4*%
X160120000Y-65310000D02*
X157380000Y-65310000D01*
X157380000Y-65310000D02*
X157380000Y-71850000D01*
X157380000Y-71850000D02*
X160120000Y-71850000D01*
X160120000Y-71850000D02*
X160120000Y-65310000D01*
X158750000Y-64540000D02*
X158750000Y-65310000D01*
X158750000Y-72620000D02*
X158750000Y-71850000D01*
%TO.C,D1*%
X131230000Y-103020000D02*
X131230000Y-105260000D01*
X131230000Y-105260000D02*
X135470000Y-105260000D01*
X135470000Y-105260000D02*
X135470000Y-103020000D01*
X135470000Y-103020000D02*
X131230000Y-103020000D01*
X130580000Y-104140000D02*
X131230000Y-104140000D01*
X136120000Y-104140000D02*
X135470000Y-104140000D01*
X131950000Y-103020000D02*
X131950000Y-105260000D01*
X132070000Y-103020000D02*
X132070000Y-105260000D01*
X131830000Y-103020000D02*
X131830000Y-105260000D01*
%TO.C,C6*%
X100295225Y-54155000D02*
X100295225Y-54655000D01*
X100045225Y-54405000D02*
X100545225Y-54405000D01*
X105451000Y-55596000D02*
X105451000Y-56164000D01*
X105411000Y-55362000D02*
X105411000Y-56398000D01*
X105371000Y-55203000D02*
X105371000Y-56557000D01*
X105331000Y-55075000D02*
X105331000Y-56685000D01*
X105291000Y-54965000D02*
X105291000Y-56795000D01*
X105251000Y-54869000D02*
X105251000Y-56891000D01*
X105211000Y-54782000D02*
X105211000Y-56978000D01*
X105171000Y-54702000D02*
X105171000Y-57058000D01*
X105131000Y-56920000D02*
X105131000Y-57131000D01*
X105131000Y-54629000D02*
X105131000Y-54840000D01*
X105091000Y-56920000D02*
X105091000Y-57199000D01*
X105091000Y-54561000D02*
X105091000Y-54840000D01*
X105051000Y-56920000D02*
X105051000Y-57263000D01*
X105051000Y-54497000D02*
X105051000Y-54840000D01*
X105011000Y-56920000D02*
X105011000Y-57323000D01*
X105011000Y-54437000D02*
X105011000Y-54840000D01*
X104971000Y-56920000D02*
X104971000Y-57380000D01*
X104971000Y-54380000D02*
X104971000Y-54840000D01*
X104931000Y-56920000D02*
X104931000Y-57434000D01*
X104931000Y-54326000D02*
X104931000Y-54840000D01*
X104891000Y-56920000D02*
X104891000Y-57485000D01*
X104891000Y-54275000D02*
X104891000Y-54840000D01*
X104851000Y-56920000D02*
X104851000Y-57533000D01*
X104851000Y-54227000D02*
X104851000Y-54840000D01*
X104811000Y-56920000D02*
X104811000Y-57579000D01*
X104811000Y-54181000D02*
X104811000Y-54840000D01*
X104771000Y-56920000D02*
X104771000Y-57623000D01*
X104771000Y-54137000D02*
X104771000Y-54840000D01*
X104731000Y-56920000D02*
X104731000Y-57665000D01*
X104731000Y-54095000D02*
X104731000Y-54840000D01*
X104691000Y-56920000D02*
X104691000Y-57706000D01*
X104691000Y-54054000D02*
X104691000Y-54840000D01*
X104651000Y-56920000D02*
X104651000Y-57744000D01*
X104651000Y-54016000D02*
X104651000Y-54840000D01*
X104611000Y-56920000D02*
X104611000Y-57781000D01*
X104611000Y-53979000D02*
X104611000Y-54840000D01*
X104571000Y-56920000D02*
X104571000Y-57817000D01*
X104571000Y-53943000D02*
X104571000Y-54840000D01*
X104531000Y-56920000D02*
X104531000Y-57851000D01*
X104531000Y-53909000D02*
X104531000Y-54840000D01*
X104491000Y-56920000D02*
X104491000Y-57884000D01*
X104491000Y-53876000D02*
X104491000Y-54840000D01*
X104451000Y-56920000D02*
X104451000Y-57915000D01*
X104451000Y-53845000D02*
X104451000Y-54840000D01*
X104411000Y-56920000D02*
X104411000Y-57945000D01*
X104411000Y-53815000D02*
X104411000Y-54840000D01*
X104371000Y-56920000D02*
X104371000Y-57975000D01*
X104371000Y-53785000D02*
X104371000Y-54840000D01*
X104331000Y-56920000D02*
X104331000Y-58002000D01*
X104331000Y-53758000D02*
X104331000Y-54840000D01*
X104291000Y-56920000D02*
X104291000Y-58029000D01*
X104291000Y-53731000D02*
X104291000Y-54840000D01*
X104251000Y-56920000D02*
X104251000Y-58055000D01*
X104251000Y-53705000D02*
X104251000Y-54840000D01*
X104211000Y-56920000D02*
X104211000Y-58080000D01*
X104211000Y-53680000D02*
X104211000Y-54840000D01*
X104171000Y-56920000D02*
X104171000Y-58104000D01*
X104171000Y-53656000D02*
X104171000Y-54840000D01*
X104131000Y-56920000D02*
X104131000Y-58127000D01*
X104131000Y-53633000D02*
X104131000Y-54840000D01*
X104091000Y-56920000D02*
X104091000Y-58148000D01*
X104091000Y-53612000D02*
X104091000Y-54840000D01*
X104051000Y-56920000D02*
X104051000Y-58170000D01*
X104051000Y-53590000D02*
X104051000Y-54840000D01*
X104011000Y-56920000D02*
X104011000Y-58190000D01*
X104011000Y-53570000D02*
X104011000Y-54840000D01*
X103971000Y-56920000D02*
X103971000Y-58209000D01*
X103971000Y-53551000D02*
X103971000Y-54840000D01*
X103931000Y-56920000D02*
X103931000Y-58228000D01*
X103931000Y-53532000D02*
X103931000Y-54840000D01*
X103891000Y-56920000D02*
X103891000Y-58245000D01*
X103891000Y-53515000D02*
X103891000Y-54840000D01*
X103851000Y-56920000D02*
X103851000Y-58262000D01*
X103851000Y-53498000D02*
X103851000Y-54840000D01*
X103811000Y-56920000D02*
X103811000Y-58278000D01*
X103811000Y-53482000D02*
X103811000Y-54840000D01*
X103771000Y-56920000D02*
X103771000Y-58294000D01*
X103771000Y-53466000D02*
X103771000Y-54840000D01*
X103731000Y-56920000D02*
X103731000Y-58308000D01*
X103731000Y-53452000D02*
X103731000Y-54840000D01*
X103691000Y-56920000D02*
X103691000Y-58322000D01*
X103691000Y-53438000D02*
X103691000Y-54840000D01*
X103651000Y-56920000D02*
X103651000Y-58335000D01*
X103651000Y-53425000D02*
X103651000Y-54840000D01*
X103611000Y-56920000D02*
X103611000Y-58348000D01*
X103611000Y-53412000D02*
X103611000Y-54840000D01*
X103571000Y-56920000D02*
X103571000Y-58360000D01*
X103571000Y-53400000D02*
X103571000Y-54840000D01*
X103530000Y-56920000D02*
X103530000Y-58371000D01*
X103530000Y-53389000D02*
X103530000Y-54840000D01*
X103490000Y-56920000D02*
X103490000Y-58381000D01*
X103490000Y-53379000D02*
X103490000Y-54840000D01*
X103450000Y-56920000D02*
X103450000Y-58391000D01*
X103450000Y-53369000D02*
X103450000Y-54840000D01*
X103410000Y-56920000D02*
X103410000Y-58400000D01*
X103410000Y-53360000D02*
X103410000Y-54840000D01*
X103370000Y-56920000D02*
X103370000Y-58408000D01*
X103370000Y-53352000D02*
X103370000Y-54840000D01*
X103330000Y-56920000D02*
X103330000Y-58416000D01*
X103330000Y-53344000D02*
X103330000Y-54840000D01*
X103290000Y-56920000D02*
X103290000Y-58423000D01*
X103290000Y-53337000D02*
X103290000Y-54840000D01*
X103250000Y-56920000D02*
X103250000Y-58430000D01*
X103250000Y-53330000D02*
X103250000Y-54840000D01*
X103210000Y-56920000D02*
X103210000Y-58436000D01*
X103210000Y-53324000D02*
X103210000Y-54840000D01*
X103170000Y-56920000D02*
X103170000Y-58441000D01*
X103170000Y-53319000D02*
X103170000Y-54840000D01*
X103130000Y-56920000D02*
X103130000Y-58445000D01*
X103130000Y-53315000D02*
X103130000Y-54840000D01*
X103090000Y-56920000D02*
X103090000Y-58449000D01*
X103090000Y-53311000D02*
X103090000Y-54840000D01*
X103050000Y-53307000D02*
X103050000Y-58453000D01*
X103010000Y-53304000D02*
X103010000Y-58456000D01*
X102970000Y-53302000D02*
X102970000Y-58458000D01*
X102930000Y-53301000D02*
X102930000Y-58459000D01*
X102890000Y-53300000D02*
X102890000Y-58460000D01*
X102850000Y-53300000D02*
X102850000Y-58460000D01*
X105470000Y-55880000D02*
G75*
G03*
X105470000Y-55880000I-2620000J0D01*
G01*
%TO.C,D2*%
X145870000Y-67110000D02*
X145870000Y-70050000D01*
X145870000Y-70050000D02*
X151310000Y-70050000D01*
X151310000Y-70050000D02*
X151310000Y-67110000D01*
X151310000Y-67110000D02*
X145870000Y-67110000D01*
X144650000Y-68580000D02*
X145870000Y-68580000D01*
X152530000Y-68580000D02*
X151310000Y-68580000D01*
X146770000Y-67110000D02*
X146770000Y-70050000D01*
X146890000Y-67110000D02*
X146890000Y-70050000D01*
X146650000Y-67110000D02*
X146650000Y-70050000D01*
%TO.C,C7*%
X114360000Y-55880000D02*
G75*
G03*
X114360000Y-55880000I-2620000J0D01*
G01*
X111740000Y-58460000D02*
X111740000Y-53300000D01*
X111700000Y-58460000D02*
X111700000Y-53300000D01*
X111660000Y-58459000D02*
X111660000Y-53301000D01*
X111620000Y-58458000D02*
X111620000Y-53302000D01*
X111580000Y-58456000D02*
X111580000Y-53304000D01*
X111540000Y-58453000D02*
X111540000Y-53307000D01*
X111500000Y-58449000D02*
X111500000Y-56920000D01*
X111500000Y-54840000D02*
X111500000Y-53311000D01*
X111460000Y-58445000D02*
X111460000Y-56920000D01*
X111460000Y-54840000D02*
X111460000Y-53315000D01*
X111420000Y-58441000D02*
X111420000Y-56920000D01*
X111420000Y-54840000D02*
X111420000Y-53319000D01*
X111380000Y-58436000D02*
X111380000Y-56920000D01*
X111380000Y-54840000D02*
X111380000Y-53324000D01*
X111340000Y-58430000D02*
X111340000Y-56920000D01*
X111340000Y-54840000D02*
X111340000Y-53330000D01*
X111300000Y-58423000D02*
X111300000Y-56920000D01*
X111300000Y-54840000D02*
X111300000Y-53337000D01*
X111260000Y-58416000D02*
X111260000Y-56920000D01*
X111260000Y-54840000D02*
X111260000Y-53344000D01*
X111220000Y-58408000D02*
X111220000Y-56920000D01*
X111220000Y-54840000D02*
X111220000Y-53352000D01*
X111180000Y-58400000D02*
X111180000Y-56920000D01*
X111180000Y-54840000D02*
X111180000Y-53360000D01*
X111140000Y-58391000D02*
X111140000Y-56920000D01*
X111140000Y-54840000D02*
X111140000Y-53369000D01*
X111100000Y-58381000D02*
X111100000Y-56920000D01*
X111100000Y-54840000D02*
X111100000Y-53379000D01*
X111060000Y-58371000D02*
X111060000Y-56920000D01*
X111060000Y-54840000D02*
X111060000Y-53389000D01*
X111019000Y-58360000D02*
X111019000Y-56920000D01*
X111019000Y-54840000D02*
X111019000Y-53400000D01*
X110979000Y-58348000D02*
X110979000Y-56920000D01*
X110979000Y-54840000D02*
X110979000Y-53412000D01*
X110939000Y-58335000D02*
X110939000Y-56920000D01*
X110939000Y-54840000D02*
X110939000Y-53425000D01*
X110899000Y-58322000D02*
X110899000Y-56920000D01*
X110899000Y-54840000D02*
X110899000Y-53438000D01*
X110859000Y-58308000D02*
X110859000Y-56920000D01*
X110859000Y-54840000D02*
X110859000Y-53452000D01*
X110819000Y-58294000D02*
X110819000Y-56920000D01*
X110819000Y-54840000D02*
X110819000Y-53466000D01*
X110779000Y-58278000D02*
X110779000Y-56920000D01*
X110779000Y-54840000D02*
X110779000Y-53482000D01*
X110739000Y-58262000D02*
X110739000Y-56920000D01*
X110739000Y-54840000D02*
X110739000Y-53498000D01*
X110699000Y-58245000D02*
X110699000Y-56920000D01*
X110699000Y-54840000D02*
X110699000Y-53515000D01*
X110659000Y-58228000D02*
X110659000Y-56920000D01*
X110659000Y-54840000D02*
X110659000Y-53532000D01*
X110619000Y-58209000D02*
X110619000Y-56920000D01*
X110619000Y-54840000D02*
X110619000Y-53551000D01*
X110579000Y-58190000D02*
X110579000Y-56920000D01*
X110579000Y-54840000D02*
X110579000Y-53570000D01*
X110539000Y-58170000D02*
X110539000Y-56920000D01*
X110539000Y-54840000D02*
X110539000Y-53590000D01*
X110499000Y-58148000D02*
X110499000Y-56920000D01*
X110499000Y-54840000D02*
X110499000Y-53612000D01*
X110459000Y-58127000D02*
X110459000Y-56920000D01*
X110459000Y-54840000D02*
X110459000Y-53633000D01*
X110419000Y-58104000D02*
X110419000Y-56920000D01*
X110419000Y-54840000D02*
X110419000Y-53656000D01*
X110379000Y-58080000D02*
X110379000Y-56920000D01*
X110379000Y-54840000D02*
X110379000Y-53680000D01*
X110339000Y-58055000D02*
X110339000Y-56920000D01*
X110339000Y-54840000D02*
X110339000Y-53705000D01*
X110299000Y-58029000D02*
X110299000Y-56920000D01*
X110299000Y-54840000D02*
X110299000Y-53731000D01*
X110259000Y-58002000D02*
X110259000Y-56920000D01*
X110259000Y-54840000D02*
X110259000Y-53758000D01*
X110219000Y-57975000D02*
X110219000Y-56920000D01*
X110219000Y-54840000D02*
X110219000Y-53785000D01*
X110179000Y-57945000D02*
X110179000Y-56920000D01*
X110179000Y-54840000D02*
X110179000Y-53815000D01*
X110139000Y-57915000D02*
X110139000Y-56920000D01*
X110139000Y-54840000D02*
X110139000Y-53845000D01*
X110099000Y-57884000D02*
X110099000Y-56920000D01*
X110099000Y-54840000D02*
X110099000Y-53876000D01*
X110059000Y-57851000D02*
X110059000Y-56920000D01*
X110059000Y-54840000D02*
X110059000Y-53909000D01*
X110019000Y-57817000D02*
X110019000Y-56920000D01*
X110019000Y-54840000D02*
X110019000Y-53943000D01*
X109979000Y-57781000D02*
X109979000Y-56920000D01*
X109979000Y-54840000D02*
X109979000Y-53979000D01*
X109939000Y-57744000D02*
X109939000Y-56920000D01*
X109939000Y-54840000D02*
X109939000Y-54016000D01*
X109899000Y-57706000D02*
X109899000Y-56920000D01*
X109899000Y-54840000D02*
X109899000Y-54054000D01*
X109859000Y-57665000D02*
X109859000Y-56920000D01*
X109859000Y-54840000D02*
X109859000Y-54095000D01*
X109819000Y-57623000D02*
X109819000Y-56920000D01*
X109819000Y-54840000D02*
X109819000Y-54137000D01*
X109779000Y-57579000D02*
X109779000Y-56920000D01*
X109779000Y-54840000D02*
X109779000Y-54181000D01*
X109739000Y-57533000D02*
X109739000Y-56920000D01*
X109739000Y-54840000D02*
X109739000Y-54227000D01*
X109699000Y-57485000D02*
X109699000Y-56920000D01*
X109699000Y-54840000D02*
X109699000Y-54275000D01*
X109659000Y-57434000D02*
X109659000Y-56920000D01*
X109659000Y-54840000D02*
X109659000Y-54326000D01*
X109619000Y-57380000D02*
X109619000Y-56920000D01*
X109619000Y-54840000D02*
X109619000Y-54380000D01*
X109579000Y-57323000D02*
X109579000Y-56920000D01*
X109579000Y-54840000D02*
X109579000Y-54437000D01*
X109539000Y-57263000D02*
X109539000Y-56920000D01*
X109539000Y-54840000D02*
X109539000Y-54497000D01*
X109499000Y-57199000D02*
X109499000Y-56920000D01*
X109499000Y-54840000D02*
X109499000Y-54561000D01*
X109459000Y-57131000D02*
X109459000Y-56920000D01*
X109459000Y-54840000D02*
X109459000Y-54629000D01*
X109419000Y-57058000D02*
X109419000Y-54702000D01*
X109379000Y-56978000D02*
X109379000Y-54782000D01*
X109339000Y-56891000D02*
X109339000Y-54869000D01*
X109299000Y-56795000D02*
X109299000Y-54965000D01*
X109259000Y-56685000D02*
X109259000Y-55075000D01*
X109219000Y-56557000D02*
X109219000Y-55203000D01*
X109179000Y-56398000D02*
X109179000Y-55362000D01*
X109139000Y-56164000D02*
X109139000Y-55596000D01*
X114544775Y-57355000D02*
X114044775Y-57355000D01*
X114294775Y-57605000D02*
X114294775Y-57105000D01*
%TO.C,R3*%
X151860000Y-73760000D02*
X151860000Y-71020000D01*
X151860000Y-71020000D02*
X145320000Y-71020000D01*
X145320000Y-71020000D02*
X145320000Y-73760000D01*
X145320000Y-73760000D02*
X151860000Y-73760000D01*
X152630000Y-72390000D02*
X151860000Y-72390000D01*
X144550000Y-72390000D02*
X145320000Y-72390000D01*
%TO.C,R12*%
X213130000Y-91440000D02*
X213900000Y-91440000D01*
X221210000Y-91440000D02*
X220440000Y-91440000D01*
X213900000Y-92810000D02*
X220440000Y-92810000D01*
X213900000Y-90070000D02*
X213900000Y-92810000D01*
X220440000Y-90070000D02*
X213900000Y-90070000D01*
X220440000Y-92810000D02*
X220440000Y-90070000D01*
%TO.C,J2*%
X245170000Y-118170000D02*
X245170000Y-115510000D01*
X240030000Y-118170000D02*
X245170000Y-118170000D01*
X240030000Y-115510000D02*
X245170000Y-115510000D01*
X240030000Y-118170000D02*
X240030000Y-115510000D01*
X238760000Y-118170000D02*
X237430000Y-118170000D01*
X237430000Y-118170000D02*
X237430000Y-116840000D01*
%TO.C,C1*%
X223485225Y-84635000D02*
X223485225Y-85135000D01*
X223235225Y-84885000D02*
X223735225Y-84885000D01*
X228641000Y-86076000D02*
X228641000Y-86644000D01*
X228601000Y-85842000D02*
X228601000Y-86878000D01*
X228561000Y-85683000D02*
X228561000Y-87037000D01*
X228521000Y-85555000D02*
X228521000Y-87165000D01*
X228481000Y-85445000D02*
X228481000Y-87275000D01*
X228441000Y-85349000D02*
X228441000Y-87371000D01*
X228401000Y-85262000D02*
X228401000Y-87458000D01*
X228361000Y-85182000D02*
X228361000Y-87538000D01*
X228321000Y-87400000D02*
X228321000Y-87611000D01*
X228321000Y-85109000D02*
X228321000Y-85320000D01*
X228281000Y-87400000D02*
X228281000Y-87679000D01*
X228281000Y-85041000D02*
X228281000Y-85320000D01*
X228241000Y-87400000D02*
X228241000Y-87743000D01*
X228241000Y-84977000D02*
X228241000Y-85320000D01*
X228201000Y-87400000D02*
X228201000Y-87803000D01*
X228201000Y-84917000D02*
X228201000Y-85320000D01*
X228161000Y-87400000D02*
X228161000Y-87860000D01*
X228161000Y-84860000D02*
X228161000Y-85320000D01*
X228121000Y-87400000D02*
X228121000Y-87914000D01*
X228121000Y-84806000D02*
X228121000Y-85320000D01*
X228081000Y-87400000D02*
X228081000Y-87965000D01*
X228081000Y-84755000D02*
X228081000Y-85320000D01*
X228041000Y-87400000D02*
X228041000Y-88013000D01*
X228041000Y-84707000D02*
X228041000Y-85320000D01*
X228001000Y-87400000D02*
X228001000Y-88059000D01*
X228001000Y-84661000D02*
X228001000Y-85320000D01*
X227961000Y-87400000D02*
X227961000Y-88103000D01*
X227961000Y-84617000D02*
X227961000Y-85320000D01*
X227921000Y-87400000D02*
X227921000Y-88145000D01*
X227921000Y-84575000D02*
X227921000Y-85320000D01*
X227881000Y-87400000D02*
X227881000Y-88186000D01*
X227881000Y-84534000D02*
X227881000Y-85320000D01*
X227841000Y-87400000D02*
X227841000Y-88224000D01*
X227841000Y-84496000D02*
X227841000Y-85320000D01*
X227801000Y-87400000D02*
X227801000Y-88261000D01*
X227801000Y-84459000D02*
X227801000Y-85320000D01*
X227761000Y-87400000D02*
X227761000Y-88297000D01*
X227761000Y-84423000D02*
X227761000Y-85320000D01*
X227721000Y-87400000D02*
X227721000Y-88331000D01*
X227721000Y-84389000D02*
X227721000Y-85320000D01*
X227681000Y-87400000D02*
X227681000Y-88364000D01*
X227681000Y-84356000D02*
X227681000Y-85320000D01*
X227641000Y-87400000D02*
X227641000Y-88395000D01*
X227641000Y-84325000D02*
X227641000Y-85320000D01*
X227601000Y-87400000D02*
X227601000Y-88425000D01*
X227601000Y-84295000D02*
X227601000Y-85320000D01*
X227561000Y-87400000D02*
X227561000Y-88455000D01*
X227561000Y-84265000D02*
X227561000Y-85320000D01*
X227521000Y-87400000D02*
X227521000Y-88482000D01*
X227521000Y-84238000D02*
X227521000Y-85320000D01*
X227481000Y-87400000D02*
X227481000Y-88509000D01*
X227481000Y-84211000D02*
X227481000Y-85320000D01*
X227441000Y-87400000D02*
X227441000Y-88535000D01*
X227441000Y-84185000D02*
X227441000Y-85320000D01*
X227401000Y-87400000D02*
X227401000Y-88560000D01*
X227401000Y-84160000D02*
X227401000Y-85320000D01*
X227361000Y-87400000D02*
X227361000Y-88584000D01*
X227361000Y-84136000D02*
X227361000Y-85320000D01*
X227321000Y-87400000D02*
X227321000Y-88607000D01*
X227321000Y-84113000D02*
X227321000Y-85320000D01*
X227281000Y-87400000D02*
X227281000Y-88628000D01*
X227281000Y-84092000D02*
X227281000Y-85320000D01*
X227241000Y-87400000D02*
X227241000Y-88650000D01*
X227241000Y-84070000D02*
X227241000Y-85320000D01*
X227201000Y-87400000D02*
X227201000Y-88670000D01*
X227201000Y-84050000D02*
X227201000Y-85320000D01*
X227161000Y-87400000D02*
X227161000Y-88689000D01*
X227161000Y-84031000D02*
X227161000Y-85320000D01*
X227121000Y-87400000D02*
X227121000Y-88708000D01*
X227121000Y-84012000D02*
X227121000Y-85320000D01*
X227081000Y-87400000D02*
X227081000Y-88725000D01*
X227081000Y-83995000D02*
X227081000Y-85320000D01*
X227041000Y-87400000D02*
X227041000Y-88742000D01*
X227041000Y-83978000D02*
X227041000Y-85320000D01*
X227001000Y-87400000D02*
X227001000Y-88758000D01*
X227001000Y-83962000D02*
X227001000Y-85320000D01*
X226961000Y-87400000D02*
X226961000Y-88774000D01*
X226961000Y-83946000D02*
X226961000Y-85320000D01*
X226921000Y-87400000D02*
X226921000Y-88788000D01*
X226921000Y-83932000D02*
X226921000Y-85320000D01*
X226881000Y-87400000D02*
X226881000Y-88802000D01*
X226881000Y-83918000D02*
X226881000Y-85320000D01*
X226841000Y-87400000D02*
X226841000Y-88815000D01*
X226841000Y-83905000D02*
X226841000Y-85320000D01*
X226801000Y-87400000D02*
X226801000Y-88828000D01*
X226801000Y-83892000D02*
X226801000Y-85320000D01*
X226761000Y-87400000D02*
X226761000Y-88840000D01*
X226761000Y-83880000D02*
X226761000Y-85320000D01*
X226720000Y-87400000D02*
X226720000Y-88851000D01*
X226720000Y-83869000D02*
X226720000Y-85320000D01*
X226680000Y-87400000D02*
X226680000Y-88861000D01*
X226680000Y-83859000D02*
X226680000Y-85320000D01*
X226640000Y-87400000D02*
X226640000Y-88871000D01*
X226640000Y-83849000D02*
X226640000Y-85320000D01*
X226600000Y-87400000D02*
X226600000Y-88880000D01*
X226600000Y-83840000D02*
X226600000Y-85320000D01*
X226560000Y-87400000D02*
X226560000Y-88888000D01*
X226560000Y-83832000D02*
X226560000Y-85320000D01*
X226520000Y-87400000D02*
X226520000Y-88896000D01*
X226520000Y-83824000D02*
X226520000Y-85320000D01*
X226480000Y-87400000D02*
X226480000Y-88903000D01*
X226480000Y-83817000D02*
X226480000Y-85320000D01*
X226440000Y-87400000D02*
X226440000Y-88910000D01*
X226440000Y-83810000D02*
X226440000Y-85320000D01*
X226400000Y-87400000D02*
X226400000Y-88916000D01*
X226400000Y-83804000D02*
X226400000Y-85320000D01*
X226360000Y-87400000D02*
X226360000Y-88921000D01*
X226360000Y-83799000D02*
X226360000Y-85320000D01*
X226320000Y-87400000D02*
X226320000Y-88925000D01*
X226320000Y-83795000D02*
X226320000Y-85320000D01*
X226280000Y-87400000D02*
X226280000Y-88929000D01*
X226280000Y-83791000D02*
X226280000Y-85320000D01*
X226240000Y-83787000D02*
X226240000Y-88933000D01*
X226200000Y-83784000D02*
X226200000Y-88936000D01*
X226160000Y-83782000D02*
X226160000Y-88938000D01*
X226120000Y-83781000D02*
X226120000Y-88939000D01*
X226080000Y-83780000D02*
X226080000Y-88940000D01*
X226040000Y-83780000D02*
X226040000Y-88940000D01*
X228660000Y-86360000D02*
G75*
G03*
X228660000Y-86360000I-2620000J0D01*
G01*
%TO.C,C2*%
X242630000Y-109220000D02*
G75*
G03*
X242630000Y-109220000I-2620000J0D01*
G01*
X240010000Y-106640000D02*
X240010000Y-111800000D01*
X240050000Y-106640000D02*
X240050000Y-111800000D01*
X240090000Y-106641000D02*
X240090000Y-111799000D01*
X240130000Y-106642000D02*
X240130000Y-111798000D01*
X240170000Y-106644000D02*
X240170000Y-111796000D01*
X240210000Y-106647000D02*
X240210000Y-111793000D01*
X240250000Y-106651000D02*
X240250000Y-108180000D01*
X240250000Y-110260000D02*
X240250000Y-111789000D01*
X240290000Y-106655000D02*
X240290000Y-108180000D01*
X240290000Y-110260000D02*
X240290000Y-111785000D01*
X240330000Y-106659000D02*
X240330000Y-108180000D01*
X240330000Y-110260000D02*
X240330000Y-111781000D01*
X240370000Y-106664000D02*
X240370000Y-108180000D01*
X240370000Y-110260000D02*
X240370000Y-111776000D01*
X240410000Y-106670000D02*
X240410000Y-108180000D01*
X240410000Y-110260000D02*
X240410000Y-111770000D01*
X240450000Y-106677000D02*
X240450000Y-108180000D01*
X240450000Y-110260000D02*
X240450000Y-111763000D01*
X240490000Y-106684000D02*
X240490000Y-108180000D01*
X240490000Y-110260000D02*
X240490000Y-111756000D01*
X240530000Y-106692000D02*
X240530000Y-108180000D01*
X240530000Y-110260000D02*
X240530000Y-111748000D01*
X240570000Y-106700000D02*
X240570000Y-108180000D01*
X240570000Y-110260000D02*
X240570000Y-111740000D01*
X240610000Y-106709000D02*
X240610000Y-108180000D01*
X240610000Y-110260000D02*
X240610000Y-111731000D01*
X240650000Y-106719000D02*
X240650000Y-108180000D01*
X240650000Y-110260000D02*
X240650000Y-111721000D01*
X240690000Y-106729000D02*
X240690000Y-108180000D01*
X240690000Y-110260000D02*
X240690000Y-111711000D01*
X240731000Y-106740000D02*
X240731000Y-108180000D01*
X240731000Y-110260000D02*
X240731000Y-111700000D01*
X240771000Y-106752000D02*
X240771000Y-108180000D01*
X240771000Y-110260000D02*
X240771000Y-111688000D01*
X240811000Y-106765000D02*
X240811000Y-108180000D01*
X240811000Y-110260000D02*
X240811000Y-111675000D01*
X240851000Y-106778000D02*
X240851000Y-108180000D01*
X240851000Y-110260000D02*
X240851000Y-111662000D01*
X240891000Y-106792000D02*
X240891000Y-108180000D01*
X240891000Y-110260000D02*
X240891000Y-111648000D01*
X240931000Y-106806000D02*
X240931000Y-108180000D01*
X240931000Y-110260000D02*
X240931000Y-111634000D01*
X240971000Y-106822000D02*
X240971000Y-108180000D01*
X240971000Y-110260000D02*
X240971000Y-111618000D01*
X241011000Y-106838000D02*
X241011000Y-108180000D01*
X241011000Y-110260000D02*
X241011000Y-111602000D01*
X241051000Y-106855000D02*
X241051000Y-108180000D01*
X241051000Y-110260000D02*
X241051000Y-111585000D01*
X241091000Y-106872000D02*
X241091000Y-108180000D01*
X241091000Y-110260000D02*
X241091000Y-111568000D01*
X241131000Y-106891000D02*
X241131000Y-108180000D01*
X241131000Y-110260000D02*
X241131000Y-111549000D01*
X241171000Y-106910000D02*
X241171000Y-108180000D01*
X241171000Y-110260000D02*
X241171000Y-111530000D01*
X241211000Y-106930000D02*
X241211000Y-108180000D01*
X241211000Y-110260000D02*
X241211000Y-111510000D01*
X241251000Y-106952000D02*
X241251000Y-108180000D01*
X241251000Y-110260000D02*
X241251000Y-111488000D01*
X241291000Y-106973000D02*
X241291000Y-108180000D01*
X241291000Y-110260000D02*
X241291000Y-111467000D01*
X241331000Y-106996000D02*
X241331000Y-108180000D01*
X241331000Y-110260000D02*
X241331000Y-111444000D01*
X241371000Y-107020000D02*
X241371000Y-108180000D01*
X241371000Y-110260000D02*
X241371000Y-111420000D01*
X241411000Y-107045000D02*
X241411000Y-108180000D01*
X241411000Y-110260000D02*
X241411000Y-111395000D01*
X241451000Y-107071000D02*
X241451000Y-108180000D01*
X241451000Y-110260000D02*
X241451000Y-111369000D01*
X241491000Y-107098000D02*
X241491000Y-108180000D01*
X241491000Y-110260000D02*
X241491000Y-111342000D01*
X241531000Y-107125000D02*
X241531000Y-108180000D01*
X241531000Y-110260000D02*
X241531000Y-111315000D01*
X241571000Y-107155000D02*
X241571000Y-108180000D01*
X241571000Y-110260000D02*
X241571000Y-111285000D01*
X241611000Y-107185000D02*
X241611000Y-108180000D01*
X241611000Y-110260000D02*
X241611000Y-111255000D01*
X241651000Y-107216000D02*
X241651000Y-108180000D01*
X241651000Y-110260000D02*
X241651000Y-111224000D01*
X241691000Y-107249000D02*
X241691000Y-108180000D01*
X241691000Y-110260000D02*
X241691000Y-111191000D01*
X241731000Y-107283000D02*
X241731000Y-108180000D01*
X241731000Y-110260000D02*
X241731000Y-111157000D01*
X241771000Y-107319000D02*
X241771000Y-108180000D01*
X241771000Y-110260000D02*
X241771000Y-111121000D01*
X241811000Y-107356000D02*
X241811000Y-108180000D01*
X241811000Y-110260000D02*
X241811000Y-111084000D01*
X241851000Y-107394000D02*
X241851000Y-108180000D01*
X241851000Y-110260000D02*
X241851000Y-111046000D01*
X241891000Y-107435000D02*
X241891000Y-108180000D01*
X241891000Y-110260000D02*
X241891000Y-111005000D01*
X241931000Y-107477000D02*
X241931000Y-108180000D01*
X241931000Y-110260000D02*
X241931000Y-110963000D01*
X241971000Y-107521000D02*
X241971000Y-108180000D01*
X241971000Y-110260000D02*
X241971000Y-110919000D01*
X242011000Y-107567000D02*
X242011000Y-108180000D01*
X242011000Y-110260000D02*
X242011000Y-110873000D01*
X242051000Y-107615000D02*
X242051000Y-108180000D01*
X242051000Y-110260000D02*
X242051000Y-110825000D01*
X242091000Y-107666000D02*
X242091000Y-108180000D01*
X242091000Y-110260000D02*
X242091000Y-110774000D01*
X242131000Y-107720000D02*
X242131000Y-108180000D01*
X242131000Y-110260000D02*
X242131000Y-110720000D01*
X242171000Y-107777000D02*
X242171000Y-108180000D01*
X242171000Y-110260000D02*
X242171000Y-110663000D01*
X242211000Y-107837000D02*
X242211000Y-108180000D01*
X242211000Y-110260000D02*
X242211000Y-110603000D01*
X242251000Y-107901000D02*
X242251000Y-108180000D01*
X242251000Y-110260000D02*
X242251000Y-110539000D01*
X242291000Y-107969000D02*
X242291000Y-108180000D01*
X242291000Y-110260000D02*
X242291000Y-110471000D01*
X242331000Y-108042000D02*
X242331000Y-110398000D01*
X242371000Y-108122000D02*
X242371000Y-110318000D01*
X242411000Y-108209000D02*
X242411000Y-110231000D01*
X242451000Y-108305000D02*
X242451000Y-110135000D01*
X242491000Y-108415000D02*
X242491000Y-110025000D01*
X242531000Y-108543000D02*
X242531000Y-109897000D01*
X242571000Y-108702000D02*
X242571000Y-109738000D01*
X242611000Y-108936000D02*
X242611000Y-109504000D01*
X237205225Y-107745000D02*
X237705225Y-107745000D01*
X237455225Y-107495000D02*
X237455225Y-107995000D01*
%TO.C,C3*%
X217040000Y-83085000D02*
X217040000Y-85825000D01*
X209600000Y-83085000D02*
X209600000Y-85825000D01*
X209600000Y-85825000D02*
X217040000Y-85825000D01*
X209600000Y-83085000D02*
X217040000Y-83085000D01*
%TO.C,C4*%
X237540000Y-102770000D02*
X244980000Y-102770000D01*
X237540000Y-105510000D02*
X244980000Y-105510000D01*
X237540000Y-102770000D02*
X237540000Y-105510000D01*
X244980000Y-102770000D02*
X244980000Y-105510000D01*
%TO.C,C5*%
X201800000Y-49430000D02*
X201800000Y-52170000D01*
X194360000Y-49430000D02*
X194360000Y-52170000D01*
X194360000Y-52170000D02*
X201800000Y-52170000D01*
X194360000Y-49430000D02*
X201800000Y-49430000D01*
%TO.C,C6*%
X195545225Y-54155000D02*
X195545225Y-54655000D01*
X195295225Y-54405000D02*
X195795225Y-54405000D01*
X200701000Y-55596000D02*
X200701000Y-56164000D01*
X200661000Y-55362000D02*
X200661000Y-56398000D01*
X200621000Y-55203000D02*
X200621000Y-56557000D01*
X200581000Y-55075000D02*
X200581000Y-56685000D01*
X200541000Y-54965000D02*
X200541000Y-56795000D01*
X200501000Y-54869000D02*
X200501000Y-56891000D01*
X200461000Y-54782000D02*
X200461000Y-56978000D01*
X200421000Y-54702000D02*
X200421000Y-57058000D01*
X200381000Y-56920000D02*
X200381000Y-57131000D01*
X200381000Y-54629000D02*
X200381000Y-54840000D01*
X200341000Y-56920000D02*
X200341000Y-57199000D01*
X200341000Y-54561000D02*
X200341000Y-54840000D01*
X200301000Y-56920000D02*
X200301000Y-57263000D01*
X200301000Y-54497000D02*
X200301000Y-54840000D01*
X200261000Y-56920000D02*
X200261000Y-57323000D01*
X200261000Y-54437000D02*
X200261000Y-54840000D01*
X200221000Y-56920000D02*
X200221000Y-57380000D01*
X200221000Y-54380000D02*
X200221000Y-54840000D01*
X200181000Y-56920000D02*
X200181000Y-57434000D01*
X200181000Y-54326000D02*
X200181000Y-54840000D01*
X200141000Y-56920000D02*
X200141000Y-57485000D01*
X200141000Y-54275000D02*
X200141000Y-54840000D01*
X200101000Y-56920000D02*
X200101000Y-57533000D01*
X200101000Y-54227000D02*
X200101000Y-54840000D01*
X200061000Y-56920000D02*
X200061000Y-57579000D01*
X200061000Y-54181000D02*
X200061000Y-54840000D01*
X200021000Y-56920000D02*
X200021000Y-57623000D01*
X200021000Y-54137000D02*
X200021000Y-54840000D01*
X199981000Y-56920000D02*
X199981000Y-57665000D01*
X199981000Y-54095000D02*
X199981000Y-54840000D01*
X199941000Y-56920000D02*
X199941000Y-57706000D01*
X199941000Y-54054000D02*
X199941000Y-54840000D01*
X199901000Y-56920000D02*
X199901000Y-57744000D01*
X199901000Y-54016000D02*
X199901000Y-54840000D01*
X199861000Y-56920000D02*
X199861000Y-57781000D01*
X199861000Y-53979000D02*
X199861000Y-54840000D01*
X199821000Y-56920000D02*
X199821000Y-57817000D01*
X199821000Y-53943000D02*
X199821000Y-54840000D01*
X199781000Y-56920000D02*
X199781000Y-57851000D01*
X199781000Y-53909000D02*
X199781000Y-54840000D01*
X199741000Y-56920000D02*
X199741000Y-57884000D01*
X199741000Y-53876000D02*
X199741000Y-54840000D01*
X199701000Y-56920000D02*
X199701000Y-57915000D01*
X199701000Y-53845000D02*
X199701000Y-54840000D01*
X199661000Y-56920000D02*
X199661000Y-57945000D01*
X199661000Y-53815000D02*
X199661000Y-54840000D01*
X199621000Y-56920000D02*
X199621000Y-57975000D01*
X199621000Y-53785000D02*
X199621000Y-54840000D01*
X199581000Y-56920000D02*
X199581000Y-58002000D01*
X199581000Y-53758000D02*
X199581000Y-54840000D01*
X199541000Y-56920000D02*
X199541000Y-58029000D01*
X199541000Y-53731000D02*
X199541000Y-54840000D01*
X199501000Y-56920000D02*
X199501000Y-58055000D01*
X199501000Y-53705000D02*
X199501000Y-54840000D01*
X199461000Y-56920000D02*
X199461000Y-58080000D01*
X199461000Y-53680000D02*
X199461000Y-54840000D01*
X199421000Y-56920000D02*
X199421000Y-58104000D01*
X199421000Y-53656000D02*
X199421000Y-54840000D01*
X199381000Y-56920000D02*
X199381000Y-58127000D01*
X199381000Y-53633000D02*
X199381000Y-54840000D01*
X199341000Y-56920000D02*
X199341000Y-58148000D01*
X199341000Y-53612000D02*
X199341000Y-54840000D01*
X199301000Y-56920000D02*
X199301000Y-58170000D01*
X199301000Y-53590000D02*
X199301000Y-54840000D01*
X199261000Y-56920000D02*
X199261000Y-58190000D01*
X199261000Y-53570000D02*
X199261000Y-54840000D01*
X199221000Y-56920000D02*
X199221000Y-58209000D01*
X199221000Y-53551000D02*
X199221000Y-54840000D01*
X199181000Y-56920000D02*
X199181000Y-58228000D01*
X199181000Y-53532000D02*
X199181000Y-54840000D01*
X199141000Y-56920000D02*
X199141000Y-58245000D01*
X199141000Y-53515000D02*
X199141000Y-54840000D01*
X199101000Y-56920000D02*
X199101000Y-58262000D01*
X199101000Y-53498000D02*
X199101000Y-54840000D01*
X199061000Y-56920000D02*
X199061000Y-58278000D01*
X199061000Y-53482000D02*
X199061000Y-54840000D01*
X199021000Y-56920000D02*
X199021000Y-58294000D01*
X199021000Y-53466000D02*
X199021000Y-54840000D01*
X198981000Y-56920000D02*
X198981000Y-58308000D01*
X198981000Y-53452000D02*
X198981000Y-54840000D01*
X198941000Y-56920000D02*
X198941000Y-58322000D01*
X198941000Y-53438000D02*
X198941000Y-54840000D01*
X198901000Y-56920000D02*
X198901000Y-58335000D01*
X198901000Y-53425000D02*
X198901000Y-54840000D01*
X198861000Y-56920000D02*
X198861000Y-58348000D01*
X198861000Y-53412000D02*
X198861000Y-54840000D01*
X198821000Y-56920000D02*
X198821000Y-58360000D01*
X198821000Y-53400000D02*
X198821000Y-54840000D01*
X198780000Y-56920000D02*
X198780000Y-58371000D01*
X198780000Y-53389000D02*
X198780000Y-54840000D01*
X198740000Y-56920000D02*
X198740000Y-58381000D01*
X198740000Y-53379000D02*
X198740000Y-54840000D01*
X198700000Y-56920000D02*
X198700000Y-58391000D01*
X198700000Y-53369000D02*
X198700000Y-54840000D01*
X198660000Y-56920000D02*
X198660000Y-58400000D01*
X198660000Y-53360000D02*
X198660000Y-54840000D01*
X198620000Y-56920000D02*
X198620000Y-58408000D01*
X198620000Y-53352000D02*
X198620000Y-54840000D01*
X198580000Y-56920000D02*
X198580000Y-58416000D01*
X198580000Y-53344000D02*
X198580000Y-54840000D01*
X198540000Y-56920000D02*
X198540000Y-58423000D01*
X198540000Y-53337000D02*
X198540000Y-54840000D01*
X198500000Y-56920000D02*
X198500000Y-58430000D01*
X198500000Y-53330000D02*
X198500000Y-54840000D01*
X198460000Y-56920000D02*
X198460000Y-58436000D01*
X198460000Y-53324000D02*
X198460000Y-54840000D01*
X198420000Y-56920000D02*
X198420000Y-58441000D01*
X198420000Y-53319000D02*
X198420000Y-54840000D01*
X198380000Y-56920000D02*
X198380000Y-58445000D01*
X198380000Y-53315000D02*
X198380000Y-54840000D01*
X198340000Y-56920000D02*
X198340000Y-58449000D01*
X198340000Y-53311000D02*
X198340000Y-54840000D01*
X198300000Y-53307000D02*
X198300000Y-58453000D01*
X198260000Y-53304000D02*
X198260000Y-58456000D01*
X198220000Y-53302000D02*
X198220000Y-58458000D01*
X198180000Y-53301000D02*
X198180000Y-58459000D01*
X198140000Y-53300000D02*
X198140000Y-58460000D01*
X198100000Y-53300000D02*
X198100000Y-58460000D01*
X200720000Y-55880000D02*
G75*
G03*
X200720000Y-55880000I-2620000J0D01*
G01*
%TO.C,C7*%
X209610000Y-55880000D02*
G75*
G03*
X209610000Y-55880000I-2620000J0D01*
G01*
X206990000Y-58460000D02*
X206990000Y-53300000D01*
X206950000Y-58460000D02*
X206950000Y-53300000D01*
X206910000Y-58459000D02*
X206910000Y-53301000D01*
X206870000Y-58458000D02*
X206870000Y-53302000D01*
X206830000Y-58456000D02*
X206830000Y-53304000D01*
X206790000Y-58453000D02*
X206790000Y-53307000D01*
X206750000Y-58449000D02*
X206750000Y-56920000D01*
X206750000Y-54840000D02*
X206750000Y-53311000D01*
X206710000Y-58445000D02*
X206710000Y-56920000D01*
X206710000Y-54840000D02*
X206710000Y-53315000D01*
X206670000Y-58441000D02*
X206670000Y-56920000D01*
X206670000Y-54840000D02*
X206670000Y-53319000D01*
X206630000Y-58436000D02*
X206630000Y-56920000D01*
X206630000Y-54840000D02*
X206630000Y-53324000D01*
X206590000Y-58430000D02*
X206590000Y-56920000D01*
X206590000Y-54840000D02*
X206590000Y-53330000D01*
X206550000Y-58423000D02*
X206550000Y-56920000D01*
X206550000Y-54840000D02*
X206550000Y-53337000D01*
X206510000Y-58416000D02*
X206510000Y-56920000D01*
X206510000Y-54840000D02*
X206510000Y-53344000D01*
X206470000Y-58408000D02*
X206470000Y-56920000D01*
X206470000Y-54840000D02*
X206470000Y-53352000D01*
X206430000Y-58400000D02*
X206430000Y-56920000D01*
X206430000Y-54840000D02*
X206430000Y-53360000D01*
X206390000Y-58391000D02*
X206390000Y-56920000D01*
X206390000Y-54840000D02*
X206390000Y-53369000D01*
X206350000Y-58381000D02*
X206350000Y-56920000D01*
X206350000Y-54840000D02*
X206350000Y-53379000D01*
X206310000Y-58371000D02*
X206310000Y-56920000D01*
X206310000Y-54840000D02*
X206310000Y-53389000D01*
X206269000Y-58360000D02*
X206269000Y-56920000D01*
X206269000Y-54840000D02*
X206269000Y-53400000D01*
X206229000Y-58348000D02*
X206229000Y-56920000D01*
X206229000Y-54840000D02*
X206229000Y-53412000D01*
X206189000Y-58335000D02*
X206189000Y-56920000D01*
X206189000Y-54840000D02*
X206189000Y-53425000D01*
X206149000Y-58322000D02*
X206149000Y-56920000D01*
X206149000Y-54840000D02*
X206149000Y-53438000D01*
X206109000Y-58308000D02*
X206109000Y-56920000D01*
X206109000Y-54840000D02*
X206109000Y-53452000D01*
X206069000Y-58294000D02*
X206069000Y-56920000D01*
X206069000Y-54840000D02*
X206069000Y-53466000D01*
X206029000Y-58278000D02*
X206029000Y-56920000D01*
X206029000Y-54840000D02*
X206029000Y-53482000D01*
X205989000Y-58262000D02*
X205989000Y-56920000D01*
X205989000Y-54840000D02*
X205989000Y-53498000D01*
X205949000Y-58245000D02*
X205949000Y-56920000D01*
X205949000Y-54840000D02*
X205949000Y-53515000D01*
X205909000Y-58228000D02*
X205909000Y-56920000D01*
X205909000Y-54840000D02*
X205909000Y-53532000D01*
X205869000Y-58209000D02*
X205869000Y-56920000D01*
X205869000Y-54840000D02*
X205869000Y-53551000D01*
X205829000Y-58190000D02*
X205829000Y-56920000D01*
X205829000Y-54840000D02*
X205829000Y-53570000D01*
X205789000Y-58170000D02*
X205789000Y-56920000D01*
X205789000Y-54840000D02*
X205789000Y-53590000D01*
X205749000Y-58148000D02*
X205749000Y-56920000D01*
X205749000Y-54840000D02*
X205749000Y-53612000D01*
X205709000Y-58127000D02*
X205709000Y-56920000D01*
X205709000Y-54840000D02*
X205709000Y-53633000D01*
X205669000Y-58104000D02*
X205669000Y-56920000D01*
X205669000Y-54840000D02*
X205669000Y-53656000D01*
X205629000Y-58080000D02*
X205629000Y-56920000D01*
X205629000Y-54840000D02*
X205629000Y-53680000D01*
X205589000Y-58055000D02*
X205589000Y-56920000D01*
X205589000Y-54840000D02*
X205589000Y-53705000D01*
X205549000Y-58029000D02*
X205549000Y-56920000D01*
X205549000Y-54840000D02*
X205549000Y-53731000D01*
X205509000Y-58002000D02*
X205509000Y-56920000D01*
X205509000Y-54840000D02*
X205509000Y-53758000D01*
X205469000Y-57975000D02*
X205469000Y-56920000D01*
X205469000Y-54840000D02*
X205469000Y-53785000D01*
X205429000Y-57945000D02*
X205429000Y-56920000D01*
X205429000Y-54840000D02*
X205429000Y-53815000D01*
X205389000Y-57915000D02*
X205389000Y-56920000D01*
X205389000Y-54840000D02*
X205389000Y-53845000D01*
X205349000Y-57884000D02*
X205349000Y-56920000D01*
X205349000Y-54840000D02*
X205349000Y-53876000D01*
X205309000Y-57851000D02*
X205309000Y-56920000D01*
X205309000Y-54840000D02*
X205309000Y-53909000D01*
X205269000Y-57817000D02*
X205269000Y-56920000D01*
X205269000Y-54840000D02*
X205269000Y-53943000D01*
X205229000Y-57781000D02*
X205229000Y-56920000D01*
X205229000Y-54840000D02*
X205229000Y-53979000D01*
X205189000Y-57744000D02*
X205189000Y-56920000D01*
X205189000Y-54840000D02*
X205189000Y-54016000D01*
X205149000Y-57706000D02*
X205149000Y-56920000D01*
X205149000Y-54840000D02*
X205149000Y-54054000D01*
X205109000Y-57665000D02*
X205109000Y-56920000D01*
X205109000Y-54840000D02*
X205109000Y-54095000D01*
X205069000Y-57623000D02*
X205069000Y-56920000D01*
X205069000Y-54840000D02*
X205069000Y-54137000D01*
X205029000Y-57579000D02*
X205029000Y-56920000D01*
X205029000Y-54840000D02*
X205029000Y-54181000D01*
X204989000Y-57533000D02*
X204989000Y-56920000D01*
X204989000Y-54840000D02*
X204989000Y-54227000D01*
X204949000Y-57485000D02*
X204949000Y-56920000D01*
X204949000Y-54840000D02*
X204949000Y-54275000D01*
X204909000Y-57434000D02*
X204909000Y-56920000D01*
X204909000Y-54840000D02*
X204909000Y-54326000D01*
X204869000Y-57380000D02*
X204869000Y-56920000D01*
X204869000Y-54840000D02*
X204869000Y-54380000D01*
X204829000Y-57323000D02*
X204829000Y-56920000D01*
X204829000Y-54840000D02*
X204829000Y-54437000D01*
X204789000Y-57263000D02*
X204789000Y-56920000D01*
X204789000Y-54840000D02*
X204789000Y-54497000D01*
X204749000Y-57199000D02*
X204749000Y-56920000D01*
X204749000Y-54840000D02*
X204749000Y-54561000D01*
X204709000Y-57131000D02*
X204709000Y-56920000D01*
X204709000Y-54840000D02*
X204709000Y-54629000D01*
X204669000Y-57058000D02*
X204669000Y-54702000D01*
X204629000Y-56978000D02*
X204629000Y-54782000D01*
X204589000Y-56891000D02*
X204589000Y-54869000D01*
X204549000Y-56795000D02*
X204549000Y-54965000D01*
X204509000Y-56685000D02*
X204509000Y-55075000D01*
X204469000Y-56557000D02*
X204469000Y-55203000D01*
X204429000Y-56398000D02*
X204429000Y-55362000D01*
X204389000Y-56164000D02*
X204389000Y-55596000D01*
X209794775Y-57355000D02*
X209294775Y-57355000D01*
X209544775Y-57605000D02*
X209544775Y-57105000D01*
%TO.C,C8*%
X210770000Y-52170000D02*
X203330000Y-52170000D01*
X210770000Y-49430000D02*
X203330000Y-49430000D01*
X210770000Y-52170000D02*
X210770000Y-49430000D01*
X203330000Y-52170000D02*
X203330000Y-49430000D01*
%TO.C,D1*%
X226480000Y-103020000D02*
X226480000Y-105260000D01*
X226480000Y-105260000D02*
X230720000Y-105260000D01*
X230720000Y-105260000D02*
X230720000Y-103020000D01*
X230720000Y-103020000D02*
X226480000Y-103020000D01*
X225830000Y-104140000D02*
X226480000Y-104140000D01*
X231370000Y-104140000D02*
X230720000Y-104140000D01*
X227200000Y-103020000D02*
X227200000Y-105260000D01*
X227320000Y-103020000D02*
X227320000Y-105260000D01*
X227080000Y-103020000D02*
X227080000Y-105260000D01*
%TO.C,D2*%
X241120000Y-67110000D02*
X241120000Y-70050000D01*
X241120000Y-70050000D02*
X246560000Y-70050000D01*
X246560000Y-70050000D02*
X246560000Y-67110000D01*
X246560000Y-67110000D02*
X241120000Y-67110000D01*
X239900000Y-68580000D02*
X241120000Y-68580000D01*
X247780000Y-68580000D02*
X246560000Y-68580000D01*
X242020000Y-67110000D02*
X242020000Y-70050000D01*
X242140000Y-67110000D02*
X242140000Y-70050000D01*
X241900000Y-67110000D02*
X241900000Y-70050000D01*
%TO.C,D4*%
X245780000Y-66240000D02*
X245780000Y-63300000D01*
X245540000Y-66240000D02*
X245540000Y-63300000D01*
X245660000Y-66240000D02*
X245660000Y-63300000D01*
X239900000Y-64770000D02*
X241120000Y-64770000D01*
X247780000Y-64770000D02*
X246560000Y-64770000D01*
X241120000Y-66240000D02*
X246560000Y-66240000D01*
X241120000Y-63300000D02*
X241120000Y-66240000D01*
X246560000Y-63300000D02*
X241120000Y-63300000D01*
X246560000Y-66240000D02*
X246560000Y-63300000D01*
%TO.C,J3*%
X237430000Y-41740000D02*
X247710000Y-41740000D01*
X247710000Y-41740000D02*
X247710000Y-39080000D01*
X247710000Y-39080000D02*
X237430000Y-39080000D01*
X237430000Y-39080000D02*
X237430000Y-41740000D01*
X238380000Y-39080000D02*
X238380000Y-33080000D01*
X238380000Y-33080000D02*
X239140000Y-33080000D01*
X239140000Y-33080000D02*
X239140000Y-39080000D01*
X238440000Y-39080000D02*
X238440000Y-33080000D01*
X238560000Y-39080000D02*
X238560000Y-33080000D01*
X238680000Y-39080000D02*
X238680000Y-33080000D01*
X238800000Y-39080000D02*
X238800000Y-33080000D01*
X238920000Y-39080000D02*
X238920000Y-33080000D01*
X239040000Y-39080000D02*
X239040000Y-33080000D01*
X238380000Y-42137071D02*
X238380000Y-41740000D01*
X239140000Y-42137071D02*
X239140000Y-41740000D01*
X238380000Y-44610000D02*
X238380000Y-44222929D01*
X239140000Y-44610000D02*
X239140000Y-44222929D01*
X240030000Y-41740000D02*
X240030000Y-39080000D01*
X240920000Y-39080000D02*
X240920000Y-33080000D01*
X240920000Y-33080000D02*
X241680000Y-33080000D01*
X241680000Y-33080000D02*
X241680000Y-39080000D01*
X240920000Y-42137071D02*
X240920000Y-41740000D01*
X241680000Y-42137071D02*
X241680000Y-41740000D01*
X240920000Y-44677071D02*
X240920000Y-44222929D01*
X241680000Y-44677071D02*
X241680000Y-44222929D01*
X242570000Y-41740000D02*
X242570000Y-39080000D01*
X243460000Y-39080000D02*
X243460000Y-33080000D01*
X243460000Y-33080000D02*
X244220000Y-33080000D01*
X244220000Y-33080000D02*
X244220000Y-39080000D01*
X243460000Y-42137071D02*
X243460000Y-41740000D01*
X244220000Y-42137071D02*
X244220000Y-41740000D01*
X243460000Y-44677071D02*
X243460000Y-44222929D01*
X244220000Y-44677071D02*
X244220000Y-44222929D01*
X245110000Y-41740000D02*
X245110000Y-39080000D01*
X246000000Y-39080000D02*
X246000000Y-33080000D01*
X246000000Y-33080000D02*
X246760000Y-33080000D01*
X246760000Y-33080000D02*
X246760000Y-39080000D01*
X246000000Y-42137071D02*
X246000000Y-41740000D01*
X246760000Y-42137071D02*
X246760000Y-41740000D01*
X246000000Y-44677071D02*
X246000000Y-44222929D01*
X246760000Y-44677071D02*
X246760000Y-44222929D01*
X238760000Y-46990000D02*
X237490000Y-46990000D01*
X237490000Y-46990000D02*
X237490000Y-45720000D01*
%TO.C,Q1*%
X226750000Y-112500000D02*
X226750000Y-116100000D01*
X226761522Y-112461522D02*
G75*
G02*
X231200000Y-114300000I1838478J-1838478D01*
G01*
X226761522Y-116138478D02*
G75*
G03*
X231200000Y-114300000I1838478J1838478D01*
G01*
%TO.C,Q2*%
X257230000Y-66780000D02*
X257230000Y-70380000D01*
X257241522Y-66741522D02*
G75*
G02*
X261680000Y-68580000I1838478J-1838478D01*
G01*
X257241522Y-70418478D02*
G75*
G03*
X261680000Y-68580000I1838478J1838478D01*
G01*
%TO.C,R1*%
X215170000Y-114200000D02*
X215170000Y-116940000D01*
X215170000Y-116940000D02*
X221710000Y-116940000D01*
X221710000Y-116940000D02*
X221710000Y-114200000D01*
X221710000Y-114200000D02*
X215170000Y-114200000D01*
X214400000Y-115570000D02*
X215170000Y-115570000D01*
X222480000Y-115570000D02*
X221710000Y-115570000D01*
%TO.C,R2*%
X226600000Y-106580000D02*
X226600000Y-109320000D01*
X226600000Y-109320000D02*
X233140000Y-109320000D01*
X233140000Y-109320000D02*
X233140000Y-106580000D01*
X233140000Y-106580000D02*
X226600000Y-106580000D01*
X225830000Y-107950000D02*
X226600000Y-107950000D01*
X233910000Y-107950000D02*
X233140000Y-107950000D01*
%TO.C,R3*%
X247110000Y-73760000D02*
X247110000Y-71020000D01*
X247110000Y-71020000D02*
X240570000Y-71020000D01*
X240570000Y-71020000D02*
X240570000Y-73760000D01*
X240570000Y-73760000D02*
X247110000Y-73760000D01*
X247880000Y-72390000D02*
X247110000Y-72390000D01*
X239800000Y-72390000D02*
X240570000Y-72390000D01*
%TO.C,R4*%
X255370000Y-65310000D02*
X252630000Y-65310000D01*
X252630000Y-65310000D02*
X252630000Y-71850000D01*
X252630000Y-71850000D02*
X255370000Y-71850000D01*
X255370000Y-71850000D02*
X255370000Y-65310000D01*
X254000000Y-64540000D02*
X254000000Y-65310000D01*
X254000000Y-72620000D02*
X254000000Y-71850000D01*
%TO.C,R9*%
X203430000Y-96520000D02*
X202660000Y-96520000D01*
X195350000Y-96520000D02*
X196120000Y-96520000D01*
X202660000Y-95150000D02*
X196120000Y-95150000D01*
X202660000Y-97890000D02*
X202660000Y-95150000D01*
X196120000Y-97890000D02*
X202660000Y-97890000D01*
X196120000Y-95150000D02*
X196120000Y-97890000D01*
%TO.C,R10*%
X197390000Y-110390000D02*
X197390000Y-113130000D01*
X197390000Y-113130000D02*
X203930000Y-113130000D01*
X203930000Y-113130000D02*
X203930000Y-110390000D01*
X203930000Y-110390000D02*
X197390000Y-110390000D01*
X196620000Y-111760000D02*
X197390000Y-111760000D01*
X204700000Y-111760000D02*
X203930000Y-111760000D01*
%TO.C,R11*%
X214400000Y-121920000D02*
X215170000Y-121920000D01*
X222480000Y-121920000D02*
X221710000Y-121920000D01*
X215170000Y-123290000D02*
X221710000Y-123290000D01*
X215170000Y-120550000D02*
X215170000Y-123290000D01*
X221710000Y-120550000D02*
X215170000Y-120550000D01*
X221710000Y-123290000D02*
X221710000Y-120550000D01*
%TO.C,R13*%
X229640000Y-100330000D02*
X230410000Y-100330000D01*
X237720000Y-100330000D02*
X236950000Y-100330000D01*
X230410000Y-101700000D02*
X236950000Y-101700000D01*
X230410000Y-98960000D02*
X230410000Y-101700000D01*
X236950000Y-98960000D02*
X230410000Y-98960000D01*
X236950000Y-101700000D02*
X236950000Y-98960000D01*
%TO.C,R14*%
X227870000Y-93880000D02*
X227870000Y-96620000D01*
X227870000Y-96620000D02*
X234410000Y-96620000D01*
X234410000Y-96620000D02*
X234410000Y-93880000D01*
X234410000Y-93880000D02*
X227870000Y-93880000D01*
X227100000Y-95250000D02*
X227870000Y-95250000D01*
X235180000Y-95250000D02*
X234410000Y-95250000D01*
D11*
%TO.C,RV3*%
X190600000Y-109050000D02*
G75*
G03*
X190600000Y-109050000I-100000J0D01*
G01*
D12*
X188090000Y-119065000D02*
X188090000Y-109535000D01*
X188090000Y-109535000D02*
X192920000Y-109535000D01*
X192920000Y-119065000D02*
X188090000Y-119065000D01*
X192920000Y-109535000D02*
X192920000Y-119065000D01*
%TO.C,RV4*%
X256225000Y-106560000D02*
X246695000Y-106560000D01*
X246695000Y-106560000D02*
X246695000Y-101730000D01*
X256225000Y-101730000D02*
X256225000Y-106560000D01*
X246695000Y-101730000D02*
X256225000Y-101730000D01*
D11*
X256810000Y-104140000D02*
G75*
G03*
X256810000Y-104140000I-100000J0D01*
G01*
D10*
%TO.C,U1*%
X216170000Y-93920000D02*
X214520000Y-93920000D01*
X214520000Y-93920000D02*
X214520000Y-111820000D01*
X214520000Y-111820000D02*
X219820000Y-111820000D01*
X219820000Y-111820000D02*
X219820000Y-93920000D01*
X219820000Y-93920000D02*
X218170000Y-93920000D01*
X218170000Y-93920000D02*
G75*
G02*
X216170000Y-93920000I-1000000J0D01*
G01*
%TO.C,U2*%
X257930000Y-120710000D02*
X257930000Y-110430000D01*
X247530000Y-120710000D02*
X257930000Y-120710000D01*
X247530000Y-110430000D02*
X247530000Y-120710000D01*
X257930000Y-110430000D02*
X247530000Y-110430000D01*
X257870000Y-118220000D02*
X257870000Y-116570000D01*
X247590000Y-118220000D02*
X257870000Y-118220000D01*
X247590000Y-112920000D02*
X247590000Y-118220000D01*
X257870000Y-112920000D02*
X247590000Y-112920000D01*
X257870000Y-114570000D02*
X257870000Y-112920000D01*
X257870000Y-116570000D02*
G75*
G02*
X257870000Y-114570000I0J1000000D01*
G01*
%TO.C,U3*%
X201355000Y-100270000D02*
X199120000Y-100270000D01*
X201355000Y-108010000D02*
X201355000Y-100270000D01*
X194885000Y-108010000D02*
X201355000Y-108010000D01*
X194885000Y-100270000D02*
X194885000Y-108010000D01*
X197120000Y-100270000D02*
X194885000Y-100270000D01*
X199120000Y-100270000D02*
G75*
G02*
X197120000Y-100270000I-1000000J0D01*
G01*
%TO.C,J1*%
X191830000Y-62170000D02*
X189170000Y-62170000D01*
X191830000Y-77470000D02*
X191830000Y-62170000D01*
X189170000Y-77470000D02*
X189170000Y-62170000D01*
X191830000Y-77470000D02*
X189170000Y-77470000D01*
X191830000Y-78740000D02*
X191830000Y-80070000D01*
X191830000Y-80070000D02*
X190500000Y-80070000D01*
%TO.C,U4*%
X198080000Y-42450000D02*
X208320000Y-42450000D01*
X198080000Y-47091000D02*
X208320000Y-47091000D01*
X198080000Y-42450000D02*
X198080000Y-47091000D01*
X208320000Y-42450000D02*
X208320000Y-47091000D01*
X198080000Y-43960000D02*
X208320000Y-43960000D01*
X201350000Y-42450000D02*
X201350000Y-43960000D01*
X205051000Y-42450000D02*
X205051000Y-43960000D01*
%TO.C,LVL1*%
X209169000Y-79121000D02*
X195961000Y-79121000D01*
X195961000Y-62865000D02*
X209169000Y-62865000D01*
X210693000Y-78613000D02*
G75*
G03*
X210693000Y-78613000I-508000J0D01*
G01*
%TO.C,U4*%
D13*
X107188095Y-40902380D02*
X107188095Y-41711904D01*
X107235714Y-41807142D01*
X107283333Y-41854761D01*
X107378571Y-41902380D01*
X107569047Y-41902380D01*
X107664285Y-41854761D01*
X107711904Y-41807142D01*
X107759523Y-41711904D01*
X107759523Y-40902380D01*
X108664285Y-41235714D02*
X108664285Y-41902380D01*
X108426190Y-40854761D02*
X108188095Y-41569047D01*
X108807142Y-41569047D01*
%TO.C,RV3*%
D14*
X99344666Y-113068027D02*
X98867628Y-113401954D01*
X99344666Y-113640473D02*
X98342886Y-113640473D01*
X98342886Y-113258842D01*
X98390590Y-113163435D01*
X98438293Y-113115731D01*
X98533701Y-113068027D01*
X98676812Y-113068027D01*
X98772220Y-113115731D01*
X98819924Y-113163435D01*
X98867628Y-113258842D01*
X98867628Y-113640473D01*
X98342886Y-112781804D02*
X99344666Y-112447878D01*
X98342886Y-112113951D01*
X98342886Y-111875432D02*
X98342886Y-111255282D01*
X98724516Y-111589209D01*
X98724516Y-111446098D01*
X98772220Y-111350690D01*
X98819924Y-111302986D01*
X98915331Y-111255282D01*
X99153850Y-111255282D01*
X99249258Y-111302986D01*
X99296962Y-111350690D01*
X99344666Y-111446098D01*
X99344666Y-111732320D01*
X99296962Y-111827728D01*
X99249258Y-111875432D01*
%TO.C,U3*%
D13*
X102108095Y-98722380D02*
X102108095Y-99531904D01*
X102155714Y-99627142D01*
X102203333Y-99674761D01*
X102298571Y-99722380D01*
X102489047Y-99722380D01*
X102584285Y-99674761D01*
X102631904Y-99627142D01*
X102679523Y-99531904D01*
X102679523Y-98722380D01*
X103060476Y-98722380D02*
X103679523Y-98722380D01*
X103346190Y-99103333D01*
X103489047Y-99103333D01*
X103584285Y-99150952D01*
X103631904Y-99198571D01*
X103679523Y-99293809D01*
X103679523Y-99531904D01*
X103631904Y-99627142D01*
X103584285Y-99674761D01*
X103489047Y-99722380D01*
X103203333Y-99722380D01*
X103108095Y-99674761D01*
X103060476Y-99627142D01*
%TO.C,U2*%
X163072380Y-116331904D02*
X163881904Y-116331904D01*
X163977142Y-116284285D01*
X164024761Y-116236666D01*
X164072380Y-116141428D01*
X164072380Y-115950952D01*
X164024761Y-115855714D01*
X163977142Y-115808095D01*
X163881904Y-115760476D01*
X163072380Y-115760476D01*
X163167619Y-115331904D02*
X163120000Y-115284285D01*
X163072380Y-115189047D01*
X163072380Y-114950952D01*
X163120000Y-114855714D01*
X163167619Y-114808095D01*
X163262857Y-114760476D01*
X163358095Y-114760476D01*
X163500952Y-114808095D01*
X164072380Y-115379523D01*
X164072380Y-114760476D01*
%TO.C,U1*%
X121158095Y-92372380D02*
X121158095Y-93181904D01*
X121205714Y-93277142D01*
X121253333Y-93324761D01*
X121348571Y-93372380D01*
X121539047Y-93372380D01*
X121634285Y-93324761D01*
X121681904Y-93277142D01*
X121729523Y-93181904D01*
X121729523Y-92372380D01*
X122729523Y-93372380D02*
X122158095Y-93372380D01*
X122443809Y-93372380D02*
X122443809Y-92372380D01*
X122348571Y-92515238D01*
X122253333Y-92610476D01*
X122158095Y-92658095D01*
%TO.C,R14*%
X135247142Y-93332380D02*
X134913809Y-92856190D01*
X134675714Y-93332380D02*
X134675714Y-92332380D01*
X135056666Y-92332380D01*
X135151904Y-92380000D01*
X135199523Y-92427619D01*
X135247142Y-92522857D01*
X135247142Y-92665714D01*
X135199523Y-92760952D01*
X135151904Y-92808571D01*
X135056666Y-92856190D01*
X134675714Y-92856190D01*
X136199523Y-93332380D02*
X135628095Y-93332380D01*
X135913809Y-93332380D02*
X135913809Y-92332380D01*
X135818571Y-92475238D01*
X135723333Y-92570476D01*
X135628095Y-92618095D01*
X137056666Y-92665714D02*
X137056666Y-93332380D01*
X136818571Y-92284761D02*
X136580476Y-92999047D01*
X137199523Y-92999047D01*
%TO.C,R11*%
X122547142Y-124742380D02*
X122213809Y-124266190D01*
X121975714Y-124742380D02*
X121975714Y-123742380D01*
X122356666Y-123742380D01*
X122451904Y-123790000D01*
X122499523Y-123837619D01*
X122547142Y-123932857D01*
X122547142Y-124075714D01*
X122499523Y-124170952D01*
X122451904Y-124218571D01*
X122356666Y-124266190D01*
X121975714Y-124266190D01*
X123499523Y-124742380D02*
X122928095Y-124742380D01*
X123213809Y-124742380D02*
X123213809Y-123742380D01*
X123118571Y-123885238D01*
X123023333Y-123980476D01*
X122928095Y-124028095D01*
X124451904Y-124742380D02*
X123880476Y-124742380D01*
X124166190Y-124742380D02*
X124166190Y-123742380D01*
X124070952Y-123885238D01*
X123975714Y-123980476D01*
X123880476Y-124028095D01*
%TO.C,LVL1*%
X106350560Y-80589380D02*
X105874369Y-80589380D01*
X105874369Y-79589380D01*
X106541036Y-79589380D02*
X106874369Y-80589380D01*
X107207702Y-79589380D01*
X108017226Y-80589380D02*
X107541036Y-80589380D01*
X107541036Y-79589380D01*
X108874369Y-80589380D02*
X108302940Y-80589380D01*
X108588655Y-80589380D02*
X108588655Y-79589380D01*
X108493417Y-79732238D01*
X108398179Y-79827476D01*
X108302940Y-79875095D01*
%TO.C,RV4*%
D14*
X157441972Y-108234666D02*
X157108045Y-107757628D01*
X156869526Y-108234666D02*
X156869526Y-107232886D01*
X157251157Y-107232886D01*
X157346564Y-107280590D01*
X157394268Y-107328293D01*
X157441972Y-107423701D01*
X157441972Y-107566812D01*
X157394268Y-107662220D01*
X157346564Y-107709924D01*
X157251157Y-107757628D01*
X156869526Y-107757628D01*
X157728195Y-107232886D02*
X158062121Y-108234666D01*
X158396048Y-107232886D01*
X159159309Y-107566812D02*
X159159309Y-108234666D01*
X158920790Y-107185182D02*
X158682271Y-107900739D01*
X159302420Y-107900739D01*
%TO.C,J1*%
D13*
X94916666Y-80522380D02*
X94916666Y-81236666D01*
X94869047Y-81379523D01*
X94773809Y-81474761D01*
X94630952Y-81522380D01*
X94535714Y-81522380D01*
X95916666Y-81522380D02*
X95345238Y-81522380D01*
X95630952Y-81522380D02*
X95630952Y-80522380D01*
X95535714Y-80665238D01*
X95440476Y-80760476D01*
X95345238Y-80808095D01*
%TO.C,R13*%
X137787142Y-103152380D02*
X137453809Y-102676190D01*
X137215714Y-103152380D02*
X137215714Y-102152380D01*
X137596666Y-102152380D01*
X137691904Y-102200000D01*
X137739523Y-102247619D01*
X137787142Y-102342857D01*
X137787142Y-102485714D01*
X137739523Y-102580952D01*
X137691904Y-102628571D01*
X137596666Y-102676190D01*
X137215714Y-102676190D01*
X138739523Y-103152380D02*
X138168095Y-103152380D01*
X138453809Y-103152380D02*
X138453809Y-102152380D01*
X138358571Y-102295238D01*
X138263333Y-102390476D01*
X138168095Y-102438095D01*
X139072857Y-102152380D02*
X139691904Y-102152380D01*
X139358571Y-102533333D01*
X139501428Y-102533333D01*
X139596666Y-102580952D01*
X139644285Y-102628571D01*
X139691904Y-102723809D01*
X139691904Y-102961904D01*
X139644285Y-103057142D01*
X139596666Y-103104761D01*
X139501428Y-103152380D01*
X139215714Y-103152380D01*
X139120476Y-103104761D01*
X139072857Y-103057142D01*
%TO.C,R10*%
X104767142Y-109842380D02*
X104433809Y-109366190D01*
X104195714Y-109842380D02*
X104195714Y-108842380D01*
X104576666Y-108842380D01*
X104671904Y-108890000D01*
X104719523Y-108937619D01*
X104767142Y-109032857D01*
X104767142Y-109175714D01*
X104719523Y-109270952D01*
X104671904Y-109318571D01*
X104576666Y-109366190D01*
X104195714Y-109366190D01*
X105719523Y-109842380D02*
X105148095Y-109842380D01*
X105433809Y-109842380D02*
X105433809Y-108842380D01*
X105338571Y-108985238D01*
X105243333Y-109080476D01*
X105148095Y-109128095D01*
X106338571Y-108842380D02*
X106433809Y-108842380D01*
X106529047Y-108890000D01*
X106576666Y-108937619D01*
X106624285Y-109032857D01*
X106671904Y-109223333D01*
X106671904Y-109461428D01*
X106624285Y-109651904D01*
X106576666Y-109747142D01*
X106529047Y-109794761D01*
X106433809Y-109842380D01*
X106338571Y-109842380D01*
X106243333Y-109794761D01*
X106195714Y-109747142D01*
X106148095Y-109651904D01*
X106100476Y-109461428D01*
X106100476Y-109223333D01*
X106148095Y-109032857D01*
X106195714Y-108937619D01*
X106243333Y-108890000D01*
X106338571Y-108842380D01*
%TO.C,H1*%
X91948095Y-126532380D02*
X91948095Y-125532380D01*
X91948095Y-126008571D02*
X92519523Y-126008571D01*
X92519523Y-126532380D02*
X92519523Y-125532380D01*
X93519523Y-126532380D02*
X92948095Y-126532380D01*
X93233809Y-126532380D02*
X93233809Y-125532380D01*
X93138571Y-125675238D01*
X93043333Y-125770476D01*
X92948095Y-125818095D01*
%TO.C,C4*%
X145843333Y-101997142D02*
X145795714Y-102044761D01*
X145652857Y-102092380D01*
X145557619Y-102092380D01*
X145414761Y-102044761D01*
X145319523Y-101949523D01*
X145271904Y-101854285D01*
X145224285Y-101663809D01*
X145224285Y-101520952D01*
X145271904Y-101330476D01*
X145319523Y-101235238D01*
X145414761Y-101140000D01*
X145557619Y-101092380D01*
X145652857Y-101092380D01*
X145795714Y-101140000D01*
X145843333Y-101187619D01*
X146700476Y-101425714D02*
X146700476Y-102092380D01*
X146462380Y-101044761D02*
X146224285Y-101759047D01*
X146843333Y-101759047D01*
%TO.C,C3*%
X117903333Y-82312142D02*
X117855714Y-82359761D01*
X117712857Y-82407380D01*
X117617619Y-82407380D01*
X117474761Y-82359761D01*
X117379523Y-82264523D01*
X117331904Y-82169285D01*
X117284285Y-81978809D01*
X117284285Y-81835952D01*
X117331904Y-81645476D01*
X117379523Y-81550238D01*
X117474761Y-81455000D01*
X117617619Y-81407380D01*
X117712857Y-81407380D01*
X117855714Y-81455000D01*
X117903333Y-81502619D01*
X118236666Y-81407380D02*
X118855714Y-81407380D01*
X118522380Y-81788333D01*
X118665238Y-81788333D01*
X118760476Y-81835952D01*
X118808095Y-81883571D01*
X118855714Y-81978809D01*
X118855714Y-82216904D01*
X118808095Y-82312142D01*
X118760476Y-82359761D01*
X118665238Y-82407380D01*
X118379523Y-82407380D01*
X118284285Y-82359761D01*
X118236666Y-82312142D01*
%TO.C,C2*%
X144593333Y-105827142D02*
X144545714Y-105874761D01*
X144402857Y-105922380D01*
X144307619Y-105922380D01*
X144164761Y-105874761D01*
X144069523Y-105779523D01*
X144021904Y-105684285D01*
X143974285Y-105493809D01*
X143974285Y-105350952D01*
X144021904Y-105160476D01*
X144069523Y-105065238D01*
X144164761Y-104970000D01*
X144307619Y-104922380D01*
X144402857Y-104922380D01*
X144545714Y-104970000D01*
X144593333Y-105017619D01*
X144974285Y-105017619D02*
X145021904Y-104970000D01*
X145117142Y-104922380D01*
X145355238Y-104922380D01*
X145450476Y-104970000D01*
X145498095Y-105017619D01*
X145545714Y-105112857D01*
X145545714Y-105208095D01*
X145498095Y-105350952D01*
X144926666Y-105922380D01*
X145545714Y-105922380D01*
%TO.C,J2*%
X140632380Y-117173333D02*
X141346666Y-117173333D01*
X141489523Y-117220952D01*
X141584761Y-117316190D01*
X141632380Y-117459047D01*
X141632380Y-117554285D01*
X140727619Y-116744761D02*
X140680000Y-116697142D01*
X140632380Y-116601904D01*
X140632380Y-116363809D01*
X140680000Y-116268571D01*
X140727619Y-116220952D01*
X140822857Y-116173333D01*
X140918095Y-116173333D01*
X141060952Y-116220952D01*
X141632380Y-116792380D01*
X141632380Y-116173333D01*
%TO.C,R12*%
X121277142Y-94262380D02*
X120943809Y-93786190D01*
X120705714Y-94262380D02*
X120705714Y-93262380D01*
X121086666Y-93262380D01*
X121181904Y-93310000D01*
X121229523Y-93357619D01*
X121277142Y-93452857D01*
X121277142Y-93595714D01*
X121229523Y-93690952D01*
X121181904Y-93738571D01*
X121086666Y-93786190D01*
X120705714Y-93786190D01*
X122229523Y-94262380D02*
X121658095Y-94262380D01*
X121943809Y-94262380D02*
X121943809Y-93262380D01*
X121848571Y-93405238D01*
X121753333Y-93500476D01*
X121658095Y-93548095D01*
X122610476Y-93357619D02*
X122658095Y-93310000D01*
X122753333Y-93262380D01*
X122991428Y-93262380D01*
X123086666Y-93310000D01*
X123134285Y-93357619D01*
X123181904Y-93452857D01*
X123181904Y-93548095D01*
X123134285Y-93690952D01*
X122562857Y-94262380D01*
X123181904Y-94262380D01*
%TO.C,C1*%
X130623333Y-82967142D02*
X130575714Y-83014761D01*
X130432857Y-83062380D01*
X130337619Y-83062380D01*
X130194761Y-83014761D01*
X130099523Y-82919523D01*
X130051904Y-82824285D01*
X130004285Y-82633809D01*
X130004285Y-82490952D01*
X130051904Y-82300476D01*
X130099523Y-82205238D01*
X130194761Y-82110000D01*
X130337619Y-82062380D01*
X130432857Y-82062380D01*
X130575714Y-82110000D01*
X130623333Y-82157619D01*
X131575714Y-83062380D02*
X131004285Y-83062380D01*
X131290000Y-83062380D02*
X131290000Y-82062380D01*
X131194761Y-82205238D01*
X131099523Y-82300476D01*
X131004285Y-82348095D01*
%TO.C,B1*%
D14*
X127123214Y-41602664D02*
X127191785Y-41625521D01*
X127214642Y-41648378D01*
X127237500Y-41694092D01*
X127237500Y-41762664D01*
X127214642Y-41808378D01*
X127191785Y-41831235D01*
X127146071Y-41854092D01*
X126963214Y-41854092D01*
X126963214Y-41374092D01*
X127123214Y-41374092D01*
X127168928Y-41396950D01*
X127191785Y-41419807D01*
X127214642Y-41465521D01*
X127214642Y-41511235D01*
X127191785Y-41556950D01*
X127168928Y-41579807D01*
X127123214Y-41602664D01*
X126963214Y-41602664D01*
X127694642Y-41854092D02*
X127420357Y-41854092D01*
X127557500Y-41854092D02*
X127557500Y-41374092D01*
X127511785Y-41442664D01*
X127466071Y-41488378D01*
X127420357Y-41511235D01*
%TO.C,J3*%
D13*
X140692380Y-40398333D02*
X141406666Y-40398333D01*
X141549523Y-40445952D01*
X141644761Y-40541190D01*
X141692380Y-40684047D01*
X141692380Y-40779285D01*
X140692380Y-40017380D02*
X140692380Y-39398333D01*
X141073333Y-39731666D01*
X141073333Y-39588809D01*
X141120952Y-39493571D01*
X141168571Y-39445952D01*
X141263809Y-39398333D01*
X141501904Y-39398333D01*
X141597142Y-39445952D01*
X141644761Y-39493571D01*
X141692380Y-39588809D01*
X141692380Y-39874523D01*
X141644761Y-39969761D01*
X141597142Y-40017380D01*
%TO.C,H4*%
X168148095Y-126532380D02*
X168148095Y-125532380D01*
X168148095Y-126008571D02*
X168719523Y-126008571D01*
X168719523Y-126532380D02*
X168719523Y-125532380D01*
X169624285Y-125865714D02*
X169624285Y-126532380D01*
X169386190Y-125484761D02*
X169148095Y-126199047D01*
X169767142Y-126199047D01*
%TO.C,H2*%
X168148095Y-40172380D02*
X168148095Y-39172380D01*
X168148095Y-39648571D02*
X168719523Y-39648571D01*
X168719523Y-40172380D02*
X168719523Y-39172380D01*
X169148095Y-39267619D02*
X169195714Y-39220000D01*
X169290952Y-39172380D01*
X169529047Y-39172380D01*
X169624285Y-39220000D01*
X169671904Y-39267619D01*
X169719523Y-39362857D01*
X169719523Y-39458095D01*
X169671904Y-39600952D01*
X169100476Y-40172380D01*
X169719523Y-40172380D01*
%TO.C,C5*%
X102663333Y-48657142D02*
X102615714Y-48704761D01*
X102472857Y-48752380D01*
X102377619Y-48752380D01*
X102234761Y-48704761D01*
X102139523Y-48609523D01*
X102091904Y-48514285D01*
X102044285Y-48323809D01*
X102044285Y-48180952D01*
X102091904Y-47990476D01*
X102139523Y-47895238D01*
X102234761Y-47800000D01*
X102377619Y-47752380D01*
X102472857Y-47752380D01*
X102615714Y-47800000D01*
X102663333Y-47847619D01*
X103568095Y-47752380D02*
X103091904Y-47752380D01*
X103044285Y-48228571D01*
X103091904Y-48180952D01*
X103187142Y-48133333D01*
X103425238Y-48133333D01*
X103520476Y-48180952D01*
X103568095Y-48228571D01*
X103615714Y-48323809D01*
X103615714Y-48561904D01*
X103568095Y-48657142D01*
X103520476Y-48704761D01*
X103425238Y-48752380D01*
X103187142Y-48752380D01*
X103091904Y-48704761D01*
X103044285Y-48657142D01*
%TO.C,R2*%
X134453333Y-106032380D02*
X134120000Y-105556190D01*
X133881904Y-106032380D02*
X133881904Y-105032380D01*
X134262857Y-105032380D01*
X134358095Y-105080000D01*
X134405714Y-105127619D01*
X134453333Y-105222857D01*
X134453333Y-105365714D01*
X134405714Y-105460952D01*
X134358095Y-105508571D01*
X134262857Y-105556190D01*
X133881904Y-105556190D01*
X134834285Y-105127619D02*
X134881904Y-105080000D01*
X134977142Y-105032380D01*
X135215238Y-105032380D01*
X135310476Y-105080000D01*
X135358095Y-105127619D01*
X135405714Y-105222857D01*
X135405714Y-105318095D01*
X135358095Y-105460952D01*
X134786666Y-106032380D01*
X135405714Y-106032380D01*
%TO.C,R1*%
X123023333Y-113652380D02*
X122690000Y-113176190D01*
X122451904Y-113652380D02*
X122451904Y-112652380D01*
X122832857Y-112652380D01*
X122928095Y-112700000D01*
X122975714Y-112747619D01*
X123023333Y-112842857D01*
X123023333Y-112985714D01*
X122975714Y-113080952D01*
X122928095Y-113128571D01*
X122832857Y-113176190D01*
X122451904Y-113176190D01*
X123975714Y-113652380D02*
X123404285Y-113652380D01*
X123690000Y-113652380D02*
X123690000Y-112652380D01*
X123594761Y-112795238D01*
X123499523Y-112890476D01*
X123404285Y-112938095D01*
%TO.C,Q2*%
X167937619Y-68675238D02*
X167890000Y-68770476D01*
X167794761Y-68865714D01*
X167651904Y-69008571D01*
X167604285Y-69103809D01*
X167604285Y-69199047D01*
X167842380Y-69151428D02*
X167794761Y-69246666D01*
X167699523Y-69341904D01*
X167509047Y-69389523D01*
X167175714Y-69389523D01*
X166985238Y-69341904D01*
X166890000Y-69246666D01*
X166842380Y-69151428D01*
X166842380Y-68960952D01*
X166890000Y-68865714D01*
X166985238Y-68770476D01*
X167175714Y-68722857D01*
X167509047Y-68722857D01*
X167699523Y-68770476D01*
X167794761Y-68865714D01*
X167842380Y-68960952D01*
X167842380Y-69151428D01*
X166937619Y-68341904D02*
X166890000Y-68294285D01*
X166842380Y-68199047D01*
X166842380Y-67960952D01*
X166890000Y-67865714D01*
X166937619Y-67818095D01*
X167032857Y-67770476D01*
X167128095Y-67770476D01*
X167270952Y-67818095D01*
X167842380Y-68389523D01*
X167842380Y-67770476D01*
%TO.C,C8*%
X111633333Y-53657142D02*
X111585714Y-53704761D01*
X111442857Y-53752380D01*
X111347619Y-53752380D01*
X111204761Y-53704761D01*
X111109523Y-53609523D01*
X111061904Y-53514285D01*
X111014285Y-53323809D01*
X111014285Y-53180952D01*
X111061904Y-52990476D01*
X111109523Y-52895238D01*
X111204761Y-52800000D01*
X111347619Y-52752380D01*
X111442857Y-52752380D01*
X111585714Y-52800000D01*
X111633333Y-52847619D01*
X112204761Y-53180952D02*
X112109523Y-53133333D01*
X112061904Y-53085714D01*
X112014285Y-52990476D01*
X112014285Y-52942857D01*
X112061904Y-52847619D01*
X112109523Y-52800000D01*
X112204761Y-52752380D01*
X112395238Y-52752380D01*
X112490476Y-52800000D01*
X112538095Y-52847619D01*
X112585714Y-52942857D01*
X112585714Y-52990476D01*
X112538095Y-53085714D01*
X112490476Y-53133333D01*
X112395238Y-53180952D01*
X112204761Y-53180952D01*
X112109523Y-53228571D01*
X112061904Y-53276190D01*
X112014285Y-53371428D01*
X112014285Y-53561904D01*
X112061904Y-53657142D01*
X112109523Y-53704761D01*
X112204761Y-53752380D01*
X112395238Y-53752380D01*
X112490476Y-53704761D01*
X112538095Y-53657142D01*
X112585714Y-53561904D01*
X112585714Y-53371428D01*
X112538095Y-53276190D01*
X112490476Y-53228571D01*
X112395238Y-53180952D01*
%TO.C,Q1*%
X137457619Y-114395238D02*
X137410000Y-114490476D01*
X137314761Y-114585714D01*
X137171904Y-114728571D01*
X137124285Y-114823809D01*
X137124285Y-114919047D01*
X137362380Y-114871428D02*
X137314761Y-114966666D01*
X137219523Y-115061904D01*
X137029047Y-115109523D01*
X136695714Y-115109523D01*
X136505238Y-115061904D01*
X136410000Y-114966666D01*
X136362380Y-114871428D01*
X136362380Y-114680952D01*
X136410000Y-114585714D01*
X136505238Y-114490476D01*
X136695714Y-114442857D01*
X137029047Y-114442857D01*
X137219523Y-114490476D01*
X137314761Y-114585714D01*
X137362380Y-114680952D01*
X137362380Y-114871428D01*
X137362380Y-113490476D02*
X137362380Y-114061904D01*
X137362380Y-113776190D02*
X136362380Y-113776190D01*
X136505238Y-113871428D01*
X136600476Y-113966666D01*
X136648095Y-114061904D01*
%TO.C,H3*%
X91948095Y-40172380D02*
X91948095Y-39172380D01*
X91948095Y-39648571D02*
X92519523Y-39648571D01*
X92519523Y-40172380D02*
X92519523Y-39172380D01*
X92900476Y-39172380D02*
X93519523Y-39172380D01*
X93186190Y-39553333D01*
X93329047Y-39553333D01*
X93424285Y-39600952D01*
X93471904Y-39648571D01*
X93519523Y-39743809D01*
X93519523Y-39981904D01*
X93471904Y-40077142D01*
X93424285Y-40124761D01*
X93329047Y-40172380D01*
X93043333Y-40172380D01*
X92948095Y-40124761D01*
X92900476Y-40077142D01*
%TO.C,D4*%
X147851904Y-67692380D02*
X147851904Y-66692380D01*
X148090000Y-66692380D01*
X148232857Y-66740000D01*
X148328095Y-66835238D01*
X148375714Y-66930476D01*
X148423333Y-67120952D01*
X148423333Y-67263809D01*
X148375714Y-67454285D01*
X148328095Y-67549523D01*
X148232857Y-67644761D01*
X148090000Y-67692380D01*
X147851904Y-67692380D01*
X149280476Y-67025714D02*
X149280476Y-67692380D01*
X149042380Y-66644761D02*
X148804285Y-67359047D01*
X149423333Y-67359047D01*
X153408095Y-67122380D02*
X153408095Y-66122380D01*
X153979523Y-67122380D02*
X153550952Y-66550952D01*
X153979523Y-66122380D02*
X153408095Y-66693809D01*
%TO.C,R9*%
X103973333Y-94602380D02*
X103640000Y-94126190D01*
X103401904Y-94602380D02*
X103401904Y-93602380D01*
X103782857Y-93602380D01*
X103878095Y-93650000D01*
X103925714Y-93697619D01*
X103973333Y-93792857D01*
X103973333Y-93935714D01*
X103925714Y-94030952D01*
X103878095Y-94078571D01*
X103782857Y-94126190D01*
X103401904Y-94126190D01*
X104449523Y-94602380D02*
X104640000Y-94602380D01*
X104735238Y-94554761D01*
X104782857Y-94507142D01*
X104878095Y-94364285D01*
X104925714Y-94173809D01*
X104925714Y-93792857D01*
X104878095Y-93697619D01*
X104830476Y-93650000D01*
X104735238Y-93602380D01*
X104544761Y-93602380D01*
X104449523Y-93650000D01*
X104401904Y-93697619D01*
X104354285Y-93792857D01*
X104354285Y-94030952D01*
X104401904Y-94126190D01*
X104449523Y-94173809D01*
X104544761Y-94221428D01*
X104735238Y-94221428D01*
X104830476Y-94173809D01*
X104878095Y-94126190D01*
X104925714Y-94030952D01*
%TO.C,R4*%
X161572380Y-68746666D02*
X161096190Y-69080000D01*
X161572380Y-69318095D02*
X160572380Y-69318095D01*
X160572380Y-68937142D01*
X160620000Y-68841904D01*
X160667619Y-68794285D01*
X160762857Y-68746666D01*
X160905714Y-68746666D01*
X161000952Y-68794285D01*
X161048571Y-68841904D01*
X161096190Y-68937142D01*
X161096190Y-69318095D01*
X160905714Y-67889523D02*
X161572380Y-67889523D01*
X160524761Y-68127619D02*
X161239047Y-68365714D01*
X161239047Y-67746666D01*
%TO.C,D1*%
X132611904Y-102472380D02*
X132611904Y-101472380D01*
X132850000Y-101472380D01*
X132992857Y-101520000D01*
X133088095Y-101615238D01*
X133135714Y-101710476D01*
X133183333Y-101900952D01*
X133183333Y-102043809D01*
X133135714Y-102234285D01*
X133088095Y-102329523D01*
X132992857Y-102424761D01*
X132850000Y-102472380D01*
X132611904Y-102472380D01*
X134135714Y-102472380D02*
X133564285Y-102472380D01*
X133850000Y-102472380D02*
X133850000Y-101472380D01*
X133754761Y-101615238D01*
X133659523Y-101710476D01*
X133564285Y-101758095D01*
X129278095Y-102792380D02*
X129278095Y-101792380D01*
X129849523Y-102792380D02*
X129420952Y-102220952D01*
X129849523Y-101792380D02*
X129278095Y-102363809D01*
%TO.C,C6*%
X102683333Y-52487142D02*
X102635714Y-52534761D01*
X102492857Y-52582380D01*
X102397619Y-52582380D01*
X102254761Y-52534761D01*
X102159523Y-52439523D01*
X102111904Y-52344285D01*
X102064285Y-52153809D01*
X102064285Y-52010952D01*
X102111904Y-51820476D01*
X102159523Y-51725238D01*
X102254761Y-51630000D01*
X102397619Y-51582380D01*
X102492857Y-51582380D01*
X102635714Y-51630000D01*
X102683333Y-51677619D01*
X103540476Y-51582380D02*
X103350000Y-51582380D01*
X103254761Y-51630000D01*
X103207142Y-51677619D01*
X103111904Y-51820476D01*
X103064285Y-52010952D01*
X103064285Y-52391904D01*
X103111904Y-52487142D01*
X103159523Y-52534761D01*
X103254761Y-52582380D01*
X103445238Y-52582380D01*
X103540476Y-52534761D01*
X103588095Y-52487142D01*
X103635714Y-52391904D01*
X103635714Y-52153809D01*
X103588095Y-52058571D01*
X103540476Y-52010952D01*
X103445238Y-51963333D01*
X103254761Y-51963333D01*
X103159523Y-52010952D01*
X103111904Y-52058571D01*
X103064285Y-52153809D01*
%TO.C,D2*%
X147851904Y-66562380D02*
X147851904Y-65562380D01*
X148090000Y-65562380D01*
X148232857Y-65610000D01*
X148328095Y-65705238D01*
X148375714Y-65800476D01*
X148423333Y-65990952D01*
X148423333Y-66133809D01*
X148375714Y-66324285D01*
X148328095Y-66419523D01*
X148232857Y-66514761D01*
X148090000Y-66562380D01*
X147851904Y-66562380D01*
X148804285Y-65657619D02*
X148851904Y-65610000D01*
X148947142Y-65562380D01*
X149185238Y-65562380D01*
X149280476Y-65610000D01*
X149328095Y-65657619D01*
X149375714Y-65752857D01*
X149375714Y-65848095D01*
X149328095Y-65990952D01*
X148756666Y-66562380D01*
X149375714Y-66562380D01*
X143248095Y-67132380D02*
X143248095Y-66132380D01*
X143819523Y-67132380D02*
X143390952Y-66560952D01*
X143819523Y-66132380D02*
X143248095Y-66703809D01*
%TO.C,C7*%
X111573333Y-59987142D02*
X111525714Y-60034761D01*
X111382857Y-60082380D01*
X111287619Y-60082380D01*
X111144761Y-60034761D01*
X111049523Y-59939523D01*
X111001904Y-59844285D01*
X110954285Y-59653809D01*
X110954285Y-59510952D01*
X111001904Y-59320476D01*
X111049523Y-59225238D01*
X111144761Y-59130000D01*
X111287619Y-59082380D01*
X111382857Y-59082380D01*
X111525714Y-59130000D01*
X111573333Y-59177619D01*
X111906666Y-59082380D02*
X112573333Y-59082380D01*
X112144761Y-60082380D01*
%TO.C,R3*%
X148423333Y-75212380D02*
X148090000Y-74736190D01*
X147851904Y-75212380D02*
X147851904Y-74212380D01*
X148232857Y-74212380D01*
X148328095Y-74260000D01*
X148375714Y-74307619D01*
X148423333Y-74402857D01*
X148423333Y-74545714D01*
X148375714Y-74640952D01*
X148328095Y-74688571D01*
X148232857Y-74736190D01*
X147851904Y-74736190D01*
X148756666Y-74212380D02*
X149375714Y-74212380D01*
X149042380Y-74593333D01*
X149185238Y-74593333D01*
X149280476Y-74640952D01*
X149328095Y-74688571D01*
X149375714Y-74783809D01*
X149375714Y-75021904D01*
X149328095Y-75117142D01*
X149280476Y-75164761D01*
X149185238Y-75212380D01*
X148899523Y-75212380D01*
X148804285Y-75164761D01*
X148756666Y-75117142D01*
%TO.C,H1*%
X187198095Y-126532380D02*
X187198095Y-125532380D01*
X187198095Y-126008571D02*
X187769523Y-126008571D01*
X187769523Y-126532380D02*
X187769523Y-125532380D01*
X188769523Y-126532380D02*
X188198095Y-126532380D01*
X188483809Y-126532380D02*
X188483809Y-125532380D01*
X188388571Y-125675238D01*
X188293333Y-125770476D01*
X188198095Y-125818095D01*
%TO.C,R12*%
X216527142Y-94262380D02*
X216193809Y-93786190D01*
X215955714Y-94262380D02*
X215955714Y-93262380D01*
X216336666Y-93262380D01*
X216431904Y-93310000D01*
X216479523Y-93357619D01*
X216527142Y-93452857D01*
X216527142Y-93595714D01*
X216479523Y-93690952D01*
X216431904Y-93738571D01*
X216336666Y-93786190D01*
X215955714Y-93786190D01*
X217479523Y-94262380D02*
X216908095Y-94262380D01*
X217193809Y-94262380D02*
X217193809Y-93262380D01*
X217098571Y-93405238D01*
X217003333Y-93500476D01*
X216908095Y-93548095D01*
X217860476Y-93357619D02*
X217908095Y-93310000D01*
X218003333Y-93262380D01*
X218241428Y-93262380D01*
X218336666Y-93310000D01*
X218384285Y-93357619D01*
X218431904Y-93452857D01*
X218431904Y-93548095D01*
X218384285Y-93690952D01*
X217812857Y-94262380D01*
X218431904Y-94262380D01*
%TO.C,J2*%
X235882380Y-117173333D02*
X236596666Y-117173333D01*
X236739523Y-117220952D01*
X236834761Y-117316190D01*
X236882380Y-117459047D01*
X236882380Y-117554285D01*
X235977619Y-116744761D02*
X235930000Y-116697142D01*
X235882380Y-116601904D01*
X235882380Y-116363809D01*
X235930000Y-116268571D01*
X235977619Y-116220952D01*
X236072857Y-116173333D01*
X236168095Y-116173333D01*
X236310952Y-116220952D01*
X236882380Y-116792380D01*
X236882380Y-116173333D01*
%TO.C,B1*%
D14*
X222373214Y-41602664D02*
X222441785Y-41625521D01*
X222464642Y-41648378D01*
X222487500Y-41694092D01*
X222487500Y-41762664D01*
X222464642Y-41808378D01*
X222441785Y-41831235D01*
X222396071Y-41854092D01*
X222213214Y-41854092D01*
X222213214Y-41374092D01*
X222373214Y-41374092D01*
X222418928Y-41396950D01*
X222441785Y-41419807D01*
X222464642Y-41465521D01*
X222464642Y-41511235D01*
X222441785Y-41556950D01*
X222418928Y-41579807D01*
X222373214Y-41602664D01*
X222213214Y-41602664D01*
X222944642Y-41854092D02*
X222670357Y-41854092D01*
X222807500Y-41854092D02*
X222807500Y-41374092D01*
X222761785Y-41442664D01*
X222716071Y-41488378D01*
X222670357Y-41511235D01*
%TO.C,C1*%
D13*
X225873333Y-82967142D02*
X225825714Y-83014761D01*
X225682857Y-83062380D01*
X225587619Y-83062380D01*
X225444761Y-83014761D01*
X225349523Y-82919523D01*
X225301904Y-82824285D01*
X225254285Y-82633809D01*
X225254285Y-82490952D01*
X225301904Y-82300476D01*
X225349523Y-82205238D01*
X225444761Y-82110000D01*
X225587619Y-82062380D01*
X225682857Y-82062380D01*
X225825714Y-82110000D01*
X225873333Y-82157619D01*
X226825714Y-83062380D02*
X226254285Y-83062380D01*
X226540000Y-83062380D02*
X226540000Y-82062380D01*
X226444761Y-82205238D01*
X226349523Y-82300476D01*
X226254285Y-82348095D01*
%TO.C,C2*%
X239843333Y-105827142D02*
X239795714Y-105874761D01*
X239652857Y-105922380D01*
X239557619Y-105922380D01*
X239414761Y-105874761D01*
X239319523Y-105779523D01*
X239271904Y-105684285D01*
X239224285Y-105493809D01*
X239224285Y-105350952D01*
X239271904Y-105160476D01*
X239319523Y-105065238D01*
X239414761Y-104970000D01*
X239557619Y-104922380D01*
X239652857Y-104922380D01*
X239795714Y-104970000D01*
X239843333Y-105017619D01*
X240224285Y-105017619D02*
X240271904Y-104970000D01*
X240367142Y-104922380D01*
X240605238Y-104922380D01*
X240700476Y-104970000D01*
X240748095Y-105017619D01*
X240795714Y-105112857D01*
X240795714Y-105208095D01*
X240748095Y-105350952D01*
X240176666Y-105922380D01*
X240795714Y-105922380D01*
%TO.C,C3*%
X213153333Y-82312142D02*
X213105714Y-82359761D01*
X212962857Y-82407380D01*
X212867619Y-82407380D01*
X212724761Y-82359761D01*
X212629523Y-82264523D01*
X212581904Y-82169285D01*
X212534285Y-81978809D01*
X212534285Y-81835952D01*
X212581904Y-81645476D01*
X212629523Y-81550238D01*
X212724761Y-81455000D01*
X212867619Y-81407380D01*
X212962857Y-81407380D01*
X213105714Y-81455000D01*
X213153333Y-81502619D01*
X213486666Y-81407380D02*
X214105714Y-81407380D01*
X213772380Y-81788333D01*
X213915238Y-81788333D01*
X214010476Y-81835952D01*
X214058095Y-81883571D01*
X214105714Y-81978809D01*
X214105714Y-82216904D01*
X214058095Y-82312142D01*
X214010476Y-82359761D01*
X213915238Y-82407380D01*
X213629523Y-82407380D01*
X213534285Y-82359761D01*
X213486666Y-82312142D01*
%TO.C,C4*%
X241093333Y-101997142D02*
X241045714Y-102044761D01*
X240902857Y-102092380D01*
X240807619Y-102092380D01*
X240664761Y-102044761D01*
X240569523Y-101949523D01*
X240521904Y-101854285D01*
X240474285Y-101663809D01*
X240474285Y-101520952D01*
X240521904Y-101330476D01*
X240569523Y-101235238D01*
X240664761Y-101140000D01*
X240807619Y-101092380D01*
X240902857Y-101092380D01*
X241045714Y-101140000D01*
X241093333Y-101187619D01*
X241950476Y-101425714D02*
X241950476Y-102092380D01*
X241712380Y-101044761D02*
X241474285Y-101759047D01*
X242093333Y-101759047D01*
%TO.C,C5*%
X197913333Y-48657142D02*
X197865714Y-48704761D01*
X197722857Y-48752380D01*
X197627619Y-48752380D01*
X197484761Y-48704761D01*
X197389523Y-48609523D01*
X197341904Y-48514285D01*
X197294285Y-48323809D01*
X197294285Y-48180952D01*
X197341904Y-47990476D01*
X197389523Y-47895238D01*
X197484761Y-47800000D01*
X197627619Y-47752380D01*
X197722857Y-47752380D01*
X197865714Y-47800000D01*
X197913333Y-47847619D01*
X198818095Y-47752380D02*
X198341904Y-47752380D01*
X198294285Y-48228571D01*
X198341904Y-48180952D01*
X198437142Y-48133333D01*
X198675238Y-48133333D01*
X198770476Y-48180952D01*
X198818095Y-48228571D01*
X198865714Y-48323809D01*
X198865714Y-48561904D01*
X198818095Y-48657142D01*
X198770476Y-48704761D01*
X198675238Y-48752380D01*
X198437142Y-48752380D01*
X198341904Y-48704761D01*
X198294285Y-48657142D01*
%TO.C,C6*%
X197933333Y-52487142D02*
X197885714Y-52534761D01*
X197742857Y-52582380D01*
X197647619Y-52582380D01*
X197504761Y-52534761D01*
X197409523Y-52439523D01*
X197361904Y-52344285D01*
X197314285Y-52153809D01*
X197314285Y-52010952D01*
X197361904Y-51820476D01*
X197409523Y-51725238D01*
X197504761Y-51630000D01*
X197647619Y-51582380D01*
X197742857Y-51582380D01*
X197885714Y-51630000D01*
X197933333Y-51677619D01*
X198790476Y-51582380D02*
X198600000Y-51582380D01*
X198504761Y-51630000D01*
X198457142Y-51677619D01*
X198361904Y-51820476D01*
X198314285Y-52010952D01*
X198314285Y-52391904D01*
X198361904Y-52487142D01*
X198409523Y-52534761D01*
X198504761Y-52582380D01*
X198695238Y-52582380D01*
X198790476Y-52534761D01*
X198838095Y-52487142D01*
X198885714Y-52391904D01*
X198885714Y-52153809D01*
X198838095Y-52058571D01*
X198790476Y-52010952D01*
X198695238Y-51963333D01*
X198504761Y-51963333D01*
X198409523Y-52010952D01*
X198361904Y-52058571D01*
X198314285Y-52153809D01*
%TO.C,C7*%
X206823333Y-59987142D02*
X206775714Y-60034761D01*
X206632857Y-60082380D01*
X206537619Y-60082380D01*
X206394761Y-60034761D01*
X206299523Y-59939523D01*
X206251904Y-59844285D01*
X206204285Y-59653809D01*
X206204285Y-59510952D01*
X206251904Y-59320476D01*
X206299523Y-59225238D01*
X206394761Y-59130000D01*
X206537619Y-59082380D01*
X206632857Y-59082380D01*
X206775714Y-59130000D01*
X206823333Y-59177619D01*
X207156666Y-59082380D02*
X207823333Y-59082380D01*
X207394761Y-60082380D01*
%TO.C,C8*%
X206883333Y-53657142D02*
X206835714Y-53704761D01*
X206692857Y-53752380D01*
X206597619Y-53752380D01*
X206454761Y-53704761D01*
X206359523Y-53609523D01*
X206311904Y-53514285D01*
X206264285Y-53323809D01*
X206264285Y-53180952D01*
X206311904Y-52990476D01*
X206359523Y-52895238D01*
X206454761Y-52800000D01*
X206597619Y-52752380D01*
X206692857Y-52752380D01*
X206835714Y-52800000D01*
X206883333Y-52847619D01*
X207454761Y-53180952D02*
X207359523Y-53133333D01*
X207311904Y-53085714D01*
X207264285Y-52990476D01*
X207264285Y-52942857D01*
X207311904Y-52847619D01*
X207359523Y-52800000D01*
X207454761Y-52752380D01*
X207645238Y-52752380D01*
X207740476Y-52800000D01*
X207788095Y-52847619D01*
X207835714Y-52942857D01*
X207835714Y-52990476D01*
X207788095Y-53085714D01*
X207740476Y-53133333D01*
X207645238Y-53180952D01*
X207454761Y-53180952D01*
X207359523Y-53228571D01*
X207311904Y-53276190D01*
X207264285Y-53371428D01*
X207264285Y-53561904D01*
X207311904Y-53657142D01*
X207359523Y-53704761D01*
X207454761Y-53752380D01*
X207645238Y-53752380D01*
X207740476Y-53704761D01*
X207788095Y-53657142D01*
X207835714Y-53561904D01*
X207835714Y-53371428D01*
X207788095Y-53276190D01*
X207740476Y-53228571D01*
X207645238Y-53180952D01*
%TO.C,D1*%
X227861904Y-102472380D02*
X227861904Y-101472380D01*
X228100000Y-101472380D01*
X228242857Y-101520000D01*
X228338095Y-101615238D01*
X228385714Y-101710476D01*
X228433333Y-101900952D01*
X228433333Y-102043809D01*
X228385714Y-102234285D01*
X228338095Y-102329523D01*
X228242857Y-102424761D01*
X228100000Y-102472380D01*
X227861904Y-102472380D01*
X229385714Y-102472380D02*
X228814285Y-102472380D01*
X229100000Y-102472380D02*
X229100000Y-101472380D01*
X229004761Y-101615238D01*
X228909523Y-101710476D01*
X228814285Y-101758095D01*
X224528095Y-102792380D02*
X224528095Y-101792380D01*
X225099523Y-102792380D02*
X224670952Y-102220952D01*
X225099523Y-101792380D02*
X224528095Y-102363809D01*
%TO.C,D2*%
X243101904Y-66562380D02*
X243101904Y-65562380D01*
X243340000Y-65562380D01*
X243482857Y-65610000D01*
X243578095Y-65705238D01*
X243625714Y-65800476D01*
X243673333Y-65990952D01*
X243673333Y-66133809D01*
X243625714Y-66324285D01*
X243578095Y-66419523D01*
X243482857Y-66514761D01*
X243340000Y-66562380D01*
X243101904Y-66562380D01*
X244054285Y-65657619D02*
X244101904Y-65610000D01*
X244197142Y-65562380D01*
X244435238Y-65562380D01*
X244530476Y-65610000D01*
X244578095Y-65657619D01*
X244625714Y-65752857D01*
X244625714Y-65848095D01*
X244578095Y-65990952D01*
X244006666Y-66562380D01*
X244625714Y-66562380D01*
X238498095Y-67132380D02*
X238498095Y-66132380D01*
X239069523Y-67132380D02*
X238640952Y-66560952D01*
X239069523Y-66132380D02*
X238498095Y-66703809D01*
%TO.C,D4*%
X243101904Y-67692380D02*
X243101904Y-66692380D01*
X243340000Y-66692380D01*
X243482857Y-66740000D01*
X243578095Y-66835238D01*
X243625714Y-66930476D01*
X243673333Y-67120952D01*
X243673333Y-67263809D01*
X243625714Y-67454285D01*
X243578095Y-67549523D01*
X243482857Y-67644761D01*
X243340000Y-67692380D01*
X243101904Y-67692380D01*
X244530476Y-67025714D02*
X244530476Y-67692380D01*
X244292380Y-66644761D02*
X244054285Y-67359047D01*
X244673333Y-67359047D01*
X248658095Y-67122380D02*
X248658095Y-66122380D01*
X249229523Y-67122380D02*
X248800952Y-66550952D01*
X249229523Y-66122380D02*
X248658095Y-66693809D01*
%TO.C,H2*%
X263398095Y-40172380D02*
X263398095Y-39172380D01*
X263398095Y-39648571D02*
X263969523Y-39648571D01*
X263969523Y-40172380D02*
X263969523Y-39172380D01*
X264398095Y-39267619D02*
X264445714Y-39220000D01*
X264540952Y-39172380D01*
X264779047Y-39172380D01*
X264874285Y-39220000D01*
X264921904Y-39267619D01*
X264969523Y-39362857D01*
X264969523Y-39458095D01*
X264921904Y-39600952D01*
X264350476Y-40172380D01*
X264969523Y-40172380D01*
%TO.C,H3*%
X187198095Y-40172380D02*
X187198095Y-39172380D01*
X187198095Y-39648571D02*
X187769523Y-39648571D01*
X187769523Y-40172380D02*
X187769523Y-39172380D01*
X188150476Y-39172380D02*
X188769523Y-39172380D01*
X188436190Y-39553333D01*
X188579047Y-39553333D01*
X188674285Y-39600952D01*
X188721904Y-39648571D01*
X188769523Y-39743809D01*
X188769523Y-39981904D01*
X188721904Y-40077142D01*
X188674285Y-40124761D01*
X188579047Y-40172380D01*
X188293333Y-40172380D01*
X188198095Y-40124761D01*
X188150476Y-40077142D01*
%TO.C,H4*%
X263398095Y-126532380D02*
X263398095Y-125532380D01*
X263398095Y-126008571D02*
X263969523Y-126008571D01*
X263969523Y-126532380D02*
X263969523Y-125532380D01*
X264874285Y-125865714D02*
X264874285Y-126532380D01*
X264636190Y-125484761D02*
X264398095Y-126199047D01*
X265017142Y-126199047D01*
%TO.C,J3*%
X235942380Y-40398333D02*
X236656666Y-40398333D01*
X236799523Y-40445952D01*
X236894761Y-40541190D01*
X236942380Y-40684047D01*
X236942380Y-40779285D01*
X235942380Y-40017380D02*
X235942380Y-39398333D01*
X236323333Y-39731666D01*
X236323333Y-39588809D01*
X236370952Y-39493571D01*
X236418571Y-39445952D01*
X236513809Y-39398333D01*
X236751904Y-39398333D01*
X236847142Y-39445952D01*
X236894761Y-39493571D01*
X236942380Y-39588809D01*
X236942380Y-39874523D01*
X236894761Y-39969761D01*
X236847142Y-40017380D01*
%TO.C,Q1*%
X232707619Y-114395238D02*
X232660000Y-114490476D01*
X232564761Y-114585714D01*
X232421904Y-114728571D01*
X232374285Y-114823809D01*
X232374285Y-114919047D01*
X232612380Y-114871428D02*
X232564761Y-114966666D01*
X232469523Y-115061904D01*
X232279047Y-115109523D01*
X231945714Y-115109523D01*
X231755238Y-115061904D01*
X231660000Y-114966666D01*
X231612380Y-114871428D01*
X231612380Y-114680952D01*
X231660000Y-114585714D01*
X231755238Y-114490476D01*
X231945714Y-114442857D01*
X232279047Y-114442857D01*
X232469523Y-114490476D01*
X232564761Y-114585714D01*
X232612380Y-114680952D01*
X232612380Y-114871428D01*
X232612380Y-113490476D02*
X232612380Y-114061904D01*
X232612380Y-113776190D02*
X231612380Y-113776190D01*
X231755238Y-113871428D01*
X231850476Y-113966666D01*
X231898095Y-114061904D01*
%TO.C,Q2*%
X263187619Y-68675238D02*
X263140000Y-68770476D01*
X263044761Y-68865714D01*
X262901904Y-69008571D01*
X262854285Y-69103809D01*
X262854285Y-69199047D01*
X263092380Y-69151428D02*
X263044761Y-69246666D01*
X262949523Y-69341904D01*
X262759047Y-69389523D01*
X262425714Y-69389523D01*
X262235238Y-69341904D01*
X262140000Y-69246666D01*
X262092380Y-69151428D01*
X262092380Y-68960952D01*
X262140000Y-68865714D01*
X262235238Y-68770476D01*
X262425714Y-68722857D01*
X262759047Y-68722857D01*
X262949523Y-68770476D01*
X263044761Y-68865714D01*
X263092380Y-68960952D01*
X263092380Y-69151428D01*
X262187619Y-68341904D02*
X262140000Y-68294285D01*
X262092380Y-68199047D01*
X262092380Y-67960952D01*
X262140000Y-67865714D01*
X262187619Y-67818095D01*
X262282857Y-67770476D01*
X262378095Y-67770476D01*
X262520952Y-67818095D01*
X263092380Y-68389523D01*
X263092380Y-67770476D01*
%TO.C,R1*%
X218273333Y-113652380D02*
X217940000Y-113176190D01*
X217701904Y-113652380D02*
X217701904Y-112652380D01*
X218082857Y-112652380D01*
X218178095Y-112700000D01*
X218225714Y-112747619D01*
X218273333Y-112842857D01*
X218273333Y-112985714D01*
X218225714Y-113080952D01*
X218178095Y-113128571D01*
X218082857Y-113176190D01*
X217701904Y-113176190D01*
X219225714Y-113652380D02*
X218654285Y-113652380D01*
X218940000Y-113652380D02*
X218940000Y-112652380D01*
X218844761Y-112795238D01*
X218749523Y-112890476D01*
X218654285Y-112938095D01*
%TO.C,R2*%
X229703333Y-106032380D02*
X229370000Y-105556190D01*
X229131904Y-106032380D02*
X229131904Y-105032380D01*
X229512857Y-105032380D01*
X229608095Y-105080000D01*
X229655714Y-105127619D01*
X229703333Y-105222857D01*
X229703333Y-105365714D01*
X229655714Y-105460952D01*
X229608095Y-105508571D01*
X229512857Y-105556190D01*
X229131904Y-105556190D01*
X230084285Y-105127619D02*
X230131904Y-105080000D01*
X230227142Y-105032380D01*
X230465238Y-105032380D01*
X230560476Y-105080000D01*
X230608095Y-105127619D01*
X230655714Y-105222857D01*
X230655714Y-105318095D01*
X230608095Y-105460952D01*
X230036666Y-106032380D01*
X230655714Y-106032380D01*
%TO.C,R3*%
X243673333Y-75212380D02*
X243340000Y-74736190D01*
X243101904Y-75212380D02*
X243101904Y-74212380D01*
X243482857Y-74212380D01*
X243578095Y-74260000D01*
X243625714Y-74307619D01*
X243673333Y-74402857D01*
X243673333Y-74545714D01*
X243625714Y-74640952D01*
X243578095Y-74688571D01*
X243482857Y-74736190D01*
X243101904Y-74736190D01*
X244006666Y-74212380D02*
X244625714Y-74212380D01*
X244292380Y-74593333D01*
X244435238Y-74593333D01*
X244530476Y-74640952D01*
X244578095Y-74688571D01*
X244625714Y-74783809D01*
X244625714Y-75021904D01*
X244578095Y-75117142D01*
X244530476Y-75164761D01*
X244435238Y-75212380D01*
X244149523Y-75212380D01*
X244054285Y-75164761D01*
X244006666Y-75117142D01*
%TO.C,R4*%
X256822380Y-68746666D02*
X256346190Y-69080000D01*
X256822380Y-69318095D02*
X255822380Y-69318095D01*
X255822380Y-68937142D01*
X255870000Y-68841904D01*
X255917619Y-68794285D01*
X256012857Y-68746666D01*
X256155714Y-68746666D01*
X256250952Y-68794285D01*
X256298571Y-68841904D01*
X256346190Y-68937142D01*
X256346190Y-69318095D01*
X256155714Y-67889523D02*
X256822380Y-67889523D01*
X255774761Y-68127619D02*
X256489047Y-68365714D01*
X256489047Y-67746666D01*
%TO.C,R9*%
X199223333Y-94602380D02*
X198890000Y-94126190D01*
X198651904Y-94602380D02*
X198651904Y-93602380D01*
X199032857Y-93602380D01*
X199128095Y-93650000D01*
X199175714Y-93697619D01*
X199223333Y-93792857D01*
X199223333Y-93935714D01*
X199175714Y-94030952D01*
X199128095Y-94078571D01*
X199032857Y-94126190D01*
X198651904Y-94126190D01*
X199699523Y-94602380D02*
X199890000Y-94602380D01*
X199985238Y-94554761D01*
X200032857Y-94507142D01*
X200128095Y-94364285D01*
X200175714Y-94173809D01*
X200175714Y-93792857D01*
X200128095Y-93697619D01*
X200080476Y-93650000D01*
X199985238Y-93602380D01*
X199794761Y-93602380D01*
X199699523Y-93650000D01*
X199651904Y-93697619D01*
X199604285Y-93792857D01*
X199604285Y-94030952D01*
X199651904Y-94126190D01*
X199699523Y-94173809D01*
X199794761Y-94221428D01*
X199985238Y-94221428D01*
X200080476Y-94173809D01*
X200128095Y-94126190D01*
X200175714Y-94030952D01*
%TO.C,R10*%
X200017142Y-109842380D02*
X199683809Y-109366190D01*
X199445714Y-109842380D02*
X199445714Y-108842380D01*
X199826666Y-108842380D01*
X199921904Y-108890000D01*
X199969523Y-108937619D01*
X200017142Y-109032857D01*
X200017142Y-109175714D01*
X199969523Y-109270952D01*
X199921904Y-109318571D01*
X199826666Y-109366190D01*
X199445714Y-109366190D01*
X200969523Y-109842380D02*
X200398095Y-109842380D01*
X200683809Y-109842380D02*
X200683809Y-108842380D01*
X200588571Y-108985238D01*
X200493333Y-109080476D01*
X200398095Y-109128095D01*
X201588571Y-108842380D02*
X201683809Y-108842380D01*
X201779047Y-108890000D01*
X201826666Y-108937619D01*
X201874285Y-109032857D01*
X201921904Y-109223333D01*
X201921904Y-109461428D01*
X201874285Y-109651904D01*
X201826666Y-109747142D01*
X201779047Y-109794761D01*
X201683809Y-109842380D01*
X201588571Y-109842380D01*
X201493333Y-109794761D01*
X201445714Y-109747142D01*
X201398095Y-109651904D01*
X201350476Y-109461428D01*
X201350476Y-109223333D01*
X201398095Y-109032857D01*
X201445714Y-108937619D01*
X201493333Y-108890000D01*
X201588571Y-108842380D01*
%TO.C,R11*%
X217797142Y-124742380D02*
X217463809Y-124266190D01*
X217225714Y-124742380D02*
X217225714Y-123742380D01*
X217606666Y-123742380D01*
X217701904Y-123790000D01*
X217749523Y-123837619D01*
X217797142Y-123932857D01*
X217797142Y-124075714D01*
X217749523Y-124170952D01*
X217701904Y-124218571D01*
X217606666Y-124266190D01*
X217225714Y-124266190D01*
X218749523Y-124742380D02*
X218178095Y-124742380D01*
X218463809Y-124742380D02*
X218463809Y-123742380D01*
X218368571Y-123885238D01*
X218273333Y-123980476D01*
X218178095Y-124028095D01*
X219701904Y-124742380D02*
X219130476Y-124742380D01*
X219416190Y-124742380D02*
X219416190Y-123742380D01*
X219320952Y-123885238D01*
X219225714Y-123980476D01*
X219130476Y-124028095D01*
%TO.C,R13*%
X233037142Y-103152380D02*
X232703809Y-102676190D01*
X232465714Y-103152380D02*
X232465714Y-102152380D01*
X232846666Y-102152380D01*
X232941904Y-102200000D01*
X232989523Y-102247619D01*
X233037142Y-102342857D01*
X233037142Y-102485714D01*
X232989523Y-102580952D01*
X232941904Y-102628571D01*
X232846666Y-102676190D01*
X232465714Y-102676190D01*
X233989523Y-103152380D02*
X233418095Y-103152380D01*
X233703809Y-103152380D02*
X233703809Y-102152380D01*
X233608571Y-102295238D01*
X233513333Y-102390476D01*
X233418095Y-102438095D01*
X234322857Y-102152380D02*
X234941904Y-102152380D01*
X234608571Y-102533333D01*
X234751428Y-102533333D01*
X234846666Y-102580952D01*
X234894285Y-102628571D01*
X234941904Y-102723809D01*
X234941904Y-102961904D01*
X234894285Y-103057142D01*
X234846666Y-103104761D01*
X234751428Y-103152380D01*
X234465714Y-103152380D01*
X234370476Y-103104761D01*
X234322857Y-103057142D01*
%TO.C,R14*%
X230497142Y-93332380D02*
X230163809Y-92856190D01*
X229925714Y-93332380D02*
X229925714Y-92332380D01*
X230306666Y-92332380D01*
X230401904Y-92380000D01*
X230449523Y-92427619D01*
X230497142Y-92522857D01*
X230497142Y-92665714D01*
X230449523Y-92760952D01*
X230401904Y-92808571D01*
X230306666Y-92856190D01*
X229925714Y-92856190D01*
X231449523Y-93332380D02*
X230878095Y-93332380D01*
X231163809Y-93332380D02*
X231163809Y-92332380D01*
X231068571Y-92475238D01*
X230973333Y-92570476D01*
X230878095Y-92618095D01*
X232306666Y-92665714D02*
X232306666Y-93332380D01*
X232068571Y-92284761D02*
X231830476Y-92999047D01*
X232449523Y-92999047D01*
%TO.C,RV3*%
D14*
X194594666Y-113068027D02*
X194117628Y-113401954D01*
X194594666Y-113640473D02*
X193592886Y-113640473D01*
X193592886Y-113258842D01*
X193640590Y-113163435D01*
X193688293Y-113115731D01*
X193783701Y-113068027D01*
X193926812Y-113068027D01*
X194022220Y-113115731D01*
X194069924Y-113163435D01*
X194117628Y-113258842D01*
X194117628Y-113640473D01*
X193592886Y-112781804D02*
X194594666Y-112447878D01*
X193592886Y-112113951D01*
X193592886Y-111875432D02*
X193592886Y-111255282D01*
X193974516Y-111589209D01*
X193974516Y-111446098D01*
X194022220Y-111350690D01*
X194069924Y-111302986D01*
X194165331Y-111255282D01*
X194403850Y-111255282D01*
X194499258Y-111302986D01*
X194546962Y-111350690D01*
X194594666Y-111446098D01*
X194594666Y-111732320D01*
X194546962Y-111827728D01*
X194499258Y-111875432D01*
%TO.C,RV4*%
X252691972Y-108234666D02*
X252358045Y-107757628D01*
X252119526Y-108234666D02*
X252119526Y-107232886D01*
X252501157Y-107232886D01*
X252596564Y-107280590D01*
X252644268Y-107328293D01*
X252691972Y-107423701D01*
X252691972Y-107566812D01*
X252644268Y-107662220D01*
X252596564Y-107709924D01*
X252501157Y-107757628D01*
X252119526Y-107757628D01*
X252978195Y-107232886D02*
X253312121Y-108234666D01*
X253646048Y-107232886D01*
X254409309Y-107566812D02*
X254409309Y-108234666D01*
X254170790Y-107185182D02*
X253932271Y-107900739D01*
X254552420Y-107900739D01*
%TO.C,U1*%
D13*
X216408095Y-92372380D02*
X216408095Y-93181904D01*
X216455714Y-93277142D01*
X216503333Y-93324761D01*
X216598571Y-93372380D01*
X216789047Y-93372380D01*
X216884285Y-93324761D01*
X216931904Y-93277142D01*
X216979523Y-93181904D01*
X216979523Y-92372380D01*
X217979523Y-93372380D02*
X217408095Y-93372380D01*
X217693809Y-93372380D02*
X217693809Y-92372380D01*
X217598571Y-92515238D01*
X217503333Y-92610476D01*
X217408095Y-92658095D01*
%TO.C,U2*%
X258322380Y-116331904D02*
X259131904Y-116331904D01*
X259227142Y-116284285D01*
X259274761Y-116236666D01*
X259322380Y-116141428D01*
X259322380Y-115950952D01*
X259274761Y-115855714D01*
X259227142Y-115808095D01*
X259131904Y-115760476D01*
X258322380Y-115760476D01*
X258417619Y-115331904D02*
X258370000Y-115284285D01*
X258322380Y-115189047D01*
X258322380Y-114950952D01*
X258370000Y-114855714D01*
X258417619Y-114808095D01*
X258512857Y-114760476D01*
X258608095Y-114760476D01*
X258750952Y-114808095D01*
X259322380Y-115379523D01*
X259322380Y-114760476D01*
%TO.C,U3*%
X197358095Y-98722380D02*
X197358095Y-99531904D01*
X197405714Y-99627142D01*
X197453333Y-99674761D01*
X197548571Y-99722380D01*
X197739047Y-99722380D01*
X197834285Y-99674761D01*
X197881904Y-99627142D01*
X197929523Y-99531904D01*
X197929523Y-98722380D01*
X198310476Y-98722380D02*
X198929523Y-98722380D01*
X198596190Y-99103333D01*
X198739047Y-99103333D01*
X198834285Y-99150952D01*
X198881904Y-99198571D01*
X198929523Y-99293809D01*
X198929523Y-99531904D01*
X198881904Y-99627142D01*
X198834285Y-99674761D01*
X198739047Y-99722380D01*
X198453333Y-99722380D01*
X198358095Y-99674761D01*
X198310476Y-99627142D01*
%TO.C,J1*%
X190166666Y-80522380D02*
X190166666Y-81236666D01*
X190119047Y-81379523D01*
X190023809Y-81474761D01*
X189880952Y-81522380D01*
X189785714Y-81522380D01*
X191166666Y-81522380D02*
X190595238Y-81522380D01*
X190880952Y-81522380D02*
X190880952Y-80522380D01*
X190785714Y-80665238D01*
X190690476Y-80760476D01*
X190595238Y-80808095D01*
%TO.C,U4*%
X202438095Y-40902380D02*
X202438095Y-41711904D01*
X202485714Y-41807142D01*
X202533333Y-41854761D01*
X202628571Y-41902380D01*
X202819047Y-41902380D01*
X202914285Y-41854761D01*
X202961904Y-41807142D01*
X203009523Y-41711904D01*
X203009523Y-40902380D01*
X203914285Y-41235714D02*
X203914285Y-41902380D01*
X203676190Y-40854761D02*
X203438095Y-41569047D01*
X204057142Y-41569047D01*
%TO.C,LVL1*%
X201600560Y-80589380D02*
X201124369Y-80589380D01*
X201124369Y-79589380D01*
X201791036Y-79589380D02*
X202124369Y-80589380D01*
X202457702Y-79589380D01*
X203267226Y-80589380D02*
X202791036Y-80589380D01*
X202791036Y-79589380D01*
X204124369Y-80589380D02*
X203552940Y-80589380D01*
X203838655Y-80589380D02*
X203838655Y-79589380D01*
X203743417Y-79732238D01*
X203648179Y-79827476D01*
X203552940Y-79875095D01*
%TD*%
M02*
