%TF.GenerationSoftware,KiCad,Pcbnew,(5.1.6)-1*%
%TF.CreationDate,2020-08-25T11:29:02-06:00*%
%TF.ProjectId,Sensores,53656e73-6f72-4657-932e-6b696361645f,rev?*%
%TF.SameCoordinates,Original*%
%TF.FileFunction,Copper,L1,Top*%
%TF.FilePolarity,Positive*%
%FSLAX46Y46*%
G04 Gerber Fmt 4.6, Leading zero omitted, Abs format (unit mm)*
G04 Created by KiCad (PCBNEW (5.1.6)-1) date 2020-08-25 11:29:02*
%MOMM*%
%LPD*%
G01*
G04 APERTURE LIST*
%TA.AperFunction,ComponentPad*%
%ADD10O,1.905000X2.000000*%
%TD*%
%TA.AperFunction,ComponentPad*%
%ADD11R,1.905000X2.000000*%
%TD*%
%TA.AperFunction,ComponentPad*%
%ADD12R,2.000000X2.000000*%
%TD*%
%TA.AperFunction,ComponentPad*%
%ADD13C,2.000000*%
%TD*%
%TA.AperFunction,ComponentPad*%
%ADD14O,2.000000X2.000000*%
%TD*%
%TA.AperFunction,ComponentPad*%
%ADD15R,1.218000X2.000000*%
%TD*%
%TA.AperFunction,ComponentPad*%
%ADD16C,1.879600*%
%TD*%
%TA.AperFunction,ComponentPad*%
%ADD17R,1.500000X1.050000*%
%TD*%
%TA.AperFunction,ComponentPad*%
%ADD18O,1.500000X1.050000*%
%TD*%
%TA.AperFunction,ViaPad*%
%ADD19C,2.500000*%
%TD*%
%TA.AperFunction,Conductor*%
%ADD20C,1.000000*%
%TD*%
G04 APERTURE END LIST*
D10*
%TO.P,U4,3*%
%TO.N,N/C*%
X110490000Y-45720000D03*
%TO.P,U4,2*%
X107950000Y-45720000D03*
D11*
%TO.P,U4,1*%
X105410000Y-45720000D03*
%TD*%
D12*
%TO.P,RV3,1*%
%TO.N,N/C*%
X95250000Y-111760000D03*
D13*
%TO.P,RV3,2*%
X95250000Y-114300000D03*
%TO.P,RV3,3*%
X95250000Y-116840000D03*
%TD*%
D12*
%TO.P,U3,6*%
%TO.N,N/C*%
X97790000Y-101600000D03*
D14*
%TO.P,U3,3*%
X107950000Y-106680000D03*
%TO.P,U3,5*%
X97790000Y-104140000D03*
%TO.P,U3,2*%
X107950000Y-104140000D03*
%TO.P,U3,4*%
X97790000Y-106680000D03*
%TO.P,U3,1*%
X107950000Y-101600000D03*
%TD*%
D12*
%TO.P,U2,1*%
%TO.N,N/C*%
X161290000Y-111760000D03*
D14*
%TO.P,U2,5*%
X153670000Y-119380000D03*
%TO.P,U2,2*%
X158750000Y-111760000D03*
%TO.P,U2,6*%
X156210000Y-119380000D03*
%TO.P,U2,3*%
X156210000Y-111760000D03*
%TO.P,U2,7*%
X158750000Y-119380000D03*
%TO.P,U2,4*%
X153670000Y-111760000D03*
%TO.P,U2,8*%
X161290000Y-119380000D03*
%TD*%
%TO.P,U1,14*%
%TO.N,N/C*%
X125730000Y-95250000D03*
%TO.P,U1,7*%
X118110000Y-110490000D03*
%TO.P,U1,13*%
X125730000Y-97790000D03*
%TO.P,U1,6*%
X118110000Y-107950000D03*
%TO.P,U1,12*%
X125730000Y-100330000D03*
%TO.P,U1,5*%
X118110000Y-105410000D03*
%TO.P,U1,11*%
X125730000Y-102870000D03*
%TO.P,U1,4*%
X118110000Y-102870000D03*
%TO.P,U1,10*%
X125730000Y-105410000D03*
%TO.P,U1,3*%
X118110000Y-100330000D03*
%TO.P,U1,9*%
X125730000Y-107950000D03*
%TO.P,U1,2*%
X118110000Y-97790000D03*
%TO.P,U1,8*%
X125730000Y-110490000D03*
D12*
%TO.P,U1,1*%
X118110000Y-95250000D03*
%TD*%
D14*
%TO.P,R14,2*%
%TO.N,N/C*%
X140970000Y-95250000D03*
D13*
%TO.P,R14,1*%
X130810000Y-95250000D03*
%TD*%
%TO.P,R11,1*%
%TO.N,N/C*%
X128270000Y-121920000D03*
D14*
%TO.P,R11,2*%
X118110000Y-121920000D03*
%TD*%
%TO.P,LVL1,12*%
%TO.N,N/C*%
%TA.AperFunction,ComponentPad*%
G36*
G01*
X102862000Y-77089000D02*
X102862000Y-77851000D01*
G75*
G02*
X102481000Y-78232000I-381000J0D01*
G01*
X100719000Y-78232000D01*
G75*
G02*
X100338000Y-77851000I0J381000D01*
G01*
X100338000Y-77089000D01*
G75*
G02*
X100719000Y-76708000I381000J0D01*
G01*
X102481000Y-76708000D01*
G75*
G02*
X102862000Y-77089000I0J-381000D01*
G01*
G37*
%TD.AperFunction*%
%TO.P,LVL1,11*%
%TA.AperFunction,ComponentPad*%
G36*
G01*
X102862000Y-74549000D02*
X102862000Y-75311000D01*
G75*
G02*
X102481000Y-75692000I-381000J0D01*
G01*
X100719000Y-75692000D01*
G75*
G02*
X100338000Y-75311000I0J381000D01*
G01*
X100338000Y-74549000D01*
G75*
G02*
X100719000Y-74168000I381000J0D01*
G01*
X102481000Y-74168000D01*
G75*
G02*
X102862000Y-74549000I0J-381000D01*
G01*
G37*
%TD.AperFunction*%
%TO.P,LVL1,10*%
%TA.AperFunction,ComponentPad*%
G36*
G01*
X102862000Y-72009000D02*
X102862000Y-72771000D01*
G75*
G02*
X102481000Y-73152000I-381000J0D01*
G01*
X100719000Y-73152000D01*
G75*
G02*
X100338000Y-72771000I0J381000D01*
G01*
X100338000Y-72009000D01*
G75*
G02*
X100719000Y-71628000I381000J0D01*
G01*
X102481000Y-71628000D01*
G75*
G02*
X102862000Y-72009000I0J-381000D01*
G01*
G37*
%TD.AperFunction*%
%TO.P,LVL1,9*%
%TA.AperFunction,ComponentPad*%
G36*
G01*
X102862000Y-69469000D02*
X102862000Y-70231000D01*
G75*
G02*
X102481000Y-70612000I-381000J0D01*
G01*
X100719000Y-70612000D01*
G75*
G02*
X100338000Y-70231000I0J381000D01*
G01*
X100338000Y-69469000D01*
G75*
G02*
X100719000Y-69088000I381000J0D01*
G01*
X102481000Y-69088000D01*
G75*
G02*
X102862000Y-69469000I0J-381000D01*
G01*
G37*
%TD.AperFunction*%
%TO.P,LVL1,8*%
%TA.AperFunction,ComponentPad*%
G36*
G01*
X102862000Y-66929000D02*
X102862000Y-67691000D01*
G75*
G02*
X102481000Y-68072000I-381000J0D01*
G01*
X100719000Y-68072000D01*
G75*
G02*
X100338000Y-67691000I0J381000D01*
G01*
X100338000Y-66929000D01*
G75*
G02*
X100719000Y-66548000I381000J0D01*
G01*
X102481000Y-66548000D01*
G75*
G02*
X102862000Y-66929000I0J-381000D01*
G01*
G37*
%TD.AperFunction*%
%TO.P,LVL1,7*%
%TA.AperFunction,ComponentPad*%
G36*
G01*
X102862000Y-64389000D02*
X102862000Y-65151000D01*
G75*
G02*
X102481000Y-65532000I-381000J0D01*
G01*
X100719000Y-65532000D01*
G75*
G02*
X100338000Y-65151000I0J381000D01*
G01*
X100338000Y-64389000D01*
G75*
G02*
X100719000Y-64008000I381000J0D01*
G01*
X102481000Y-64008000D01*
G75*
G02*
X102862000Y-64389000I0J-381000D01*
G01*
G37*
%TD.AperFunction*%
%TO.P,LVL1,6*%
%TA.AperFunction,ComponentPad*%
G36*
G01*
X114292000Y-64389000D02*
X114292000Y-65151000D01*
G75*
G02*
X113911000Y-65532000I-381000J0D01*
G01*
X112149000Y-65532000D01*
G75*
G02*
X111768000Y-65151000I0J381000D01*
G01*
X111768000Y-64389000D01*
G75*
G02*
X112149000Y-64008000I381000J0D01*
G01*
X113911000Y-64008000D01*
G75*
G02*
X114292000Y-64389000I0J-381000D01*
G01*
G37*
%TD.AperFunction*%
%TO.P,LVL1,5*%
%TA.AperFunction,ComponentPad*%
G36*
G01*
X114292000Y-66929000D02*
X114292000Y-67691000D01*
G75*
G02*
X113911000Y-68072000I-381000J0D01*
G01*
X112149000Y-68072000D01*
G75*
G02*
X111768000Y-67691000I0J381000D01*
G01*
X111768000Y-66929000D01*
G75*
G02*
X112149000Y-66548000I381000J0D01*
G01*
X113911000Y-66548000D01*
G75*
G02*
X114292000Y-66929000I0J-381000D01*
G01*
G37*
%TD.AperFunction*%
%TO.P,LVL1,4*%
%TA.AperFunction,ComponentPad*%
G36*
G01*
X114292000Y-69469000D02*
X114292000Y-70231000D01*
G75*
G02*
X113911000Y-70612000I-381000J0D01*
G01*
X112149000Y-70612000D01*
G75*
G02*
X111768000Y-70231000I0J381000D01*
G01*
X111768000Y-69469000D01*
G75*
G02*
X112149000Y-69088000I381000J0D01*
G01*
X113911000Y-69088000D01*
G75*
G02*
X114292000Y-69469000I0J-381000D01*
G01*
G37*
%TD.AperFunction*%
%TO.P,LVL1,3*%
%TA.AperFunction,ComponentPad*%
G36*
G01*
X114292000Y-72009000D02*
X114292000Y-72771000D01*
G75*
G02*
X113911000Y-73152000I-381000J0D01*
G01*
X112149000Y-73152000D01*
G75*
G02*
X111768000Y-72771000I0J381000D01*
G01*
X111768000Y-72009000D01*
G75*
G02*
X112149000Y-71628000I381000J0D01*
G01*
X113911000Y-71628000D01*
G75*
G02*
X114292000Y-72009000I0J-381000D01*
G01*
G37*
%TD.AperFunction*%
%TO.P,LVL1,2*%
%TA.AperFunction,ComponentPad*%
G36*
G01*
X114292000Y-74549000D02*
X114292000Y-75311000D01*
G75*
G02*
X113911000Y-75692000I-381000J0D01*
G01*
X112149000Y-75692000D01*
G75*
G02*
X111768000Y-75311000I0J381000D01*
G01*
X111768000Y-74549000D01*
G75*
G02*
X112149000Y-74168000I381000J0D01*
G01*
X113911000Y-74168000D01*
G75*
G02*
X114292000Y-74549000I0J-381000D01*
G01*
G37*
%TD.AperFunction*%
%TO.P,LVL1,1*%
%TA.AperFunction,ComponentPad*%
G36*
G01*
X114292000Y-77089000D02*
X114292000Y-77851000D01*
G75*
G02*
X113911000Y-78232000I-381000J0D01*
G01*
X112149000Y-78232000D01*
G75*
G02*
X111768000Y-77851000I0J381000D01*
G01*
X111768000Y-77089000D01*
G75*
G02*
X112149000Y-76708000I381000J0D01*
G01*
X113911000Y-76708000D01*
G75*
G02*
X114292000Y-77089000I0J-381000D01*
G01*
G37*
%TD.AperFunction*%
%TD*%
D13*
%TO.P,RV4,3*%
%TO.N,N/C*%
X153670000Y-104140000D03*
%TO.P,RV4,2*%
X156210000Y-104140000D03*
D15*
%TO.P,RV4,1*%
X158750000Y-104140000D03*
%TD*%
D14*
%TO.P,J1,MP*%
%TO.N,N/C*%
X95250000Y-63500000D03*
%TO.P,J1,6*%
X95250000Y-66040000D03*
%TO.P,J1,5*%
X95250000Y-68580000D03*
%TO.P,J1,4*%
X95250000Y-71120000D03*
%TO.P,J1,3*%
X95250000Y-73660000D03*
%TO.P,J1,2*%
X95250000Y-76200000D03*
D12*
%TO.P,J1,1*%
X95250000Y-78740000D03*
%TD*%
D13*
%TO.P,R13,1*%
%TO.N,N/C*%
X143510000Y-100330000D03*
D14*
%TO.P,R13,2*%
X133350000Y-100330000D03*
%TD*%
%TO.P,R10,2*%
%TO.N,N/C*%
X110490000Y-111760000D03*
D13*
%TO.P,R10,1*%
X100330000Y-111760000D03*
%TD*%
%TO.P,C4,2*%
%TO.N,N/C*%
X148510000Y-104140000D03*
%TO.P,C4,1*%
X143510000Y-104140000D03*
%TD*%
%TO.P,C3,1*%
%TO.N,N/C*%
X115570000Y-84455000D03*
%TO.P,C3,2*%
X120570000Y-84455000D03*
%TD*%
%TO.P,C2,2*%
%TO.N,N/C*%
X146010000Y-109220000D03*
D12*
%TO.P,C2,1*%
X143510000Y-109220000D03*
%TD*%
D14*
%TO.P,J2,3*%
%TO.N,N/C*%
X148590000Y-116840000D03*
%TO.P,J2,2*%
X146050000Y-116840000D03*
D12*
%TO.P,J2,1*%
X143510000Y-116840000D03*
%TD*%
D13*
%TO.P,R12,1*%
%TO.N,N/C*%
X127000000Y-91440000D03*
D14*
%TO.P,R12,2*%
X116840000Y-91440000D03*
%TD*%
D12*
%TO.P,C1,1*%
%TO.N,N/C*%
X129540000Y-86360000D03*
D13*
%TO.P,C1,2*%
X132040000Y-86360000D03*
%TD*%
%TO.P,B1,4*%
%TO.N,N/C*%
X127317500Y-73818750D03*
%TO.P,B1,A6*%
X129857500Y-73818750D03*
%TO.P,B1,A7*%
X132397500Y-73818750D03*
%TO.P,B1,GRN*%
X133667500Y-43338750D03*
%TO.P,B1,TXO*%
X131127500Y-43338750D03*
%TO.P,B1,RXI*%
X128587500Y-43338750D03*
%TO.P,B1,VCC*%
X126047500Y-43338750D03*
%TO.P,B1,GND*%
X123507500Y-43338750D03*
%TO.P,B1,BLK*%
X120967500Y-43338750D03*
D16*
%TO.P,B1,A4*%
X132080000Y-57150000D03*
%TO.P,B1,A5*%
X132080000Y-54610000D03*
D13*
%TO.P,B1,24*%
X134937500Y-45878750D03*
%TO.P,B1,23*%
X134937500Y-48418750D03*
%TO.P,B1,22*%
X134937500Y-50958750D03*
%TO.P,B1,21*%
X134937500Y-53498750D03*
%TO.P,B1,20*%
X134937500Y-56038750D03*
%TO.P,B1,19*%
X134937500Y-58578750D03*
%TO.P,B1,18*%
X134937500Y-61118750D03*
%TO.P,B1,17*%
X134937500Y-63658750D03*
%TO.P,B1,16*%
X134937500Y-66198750D03*
%TO.P,B1,15*%
X134937500Y-68738750D03*
%TO.P,B1,14*%
X134937500Y-71278750D03*
%TO.P,B1,13*%
X134937500Y-73818750D03*
%TO.P,B1,12*%
X119697500Y-73818750D03*
%TO.P,B1,11*%
X119697500Y-71278750D03*
%TO.P,B1,10*%
X119697500Y-68738750D03*
%TO.P,B1,9*%
X119697500Y-66198750D03*
%TO.P,B1,8*%
X119697500Y-63658750D03*
%TO.P,B1,7*%
X119697500Y-61118750D03*
%TO.P,B1,6*%
X119697500Y-58578750D03*
%TO.P,B1,5*%
X119697500Y-56038750D03*
%TO.P,B1,4*%
X119697500Y-53498750D03*
%TO.P,B1,3*%
X119697500Y-50958750D03*
%TO.P,B1,2*%
X119697500Y-48418750D03*
%TO.P,B1,1*%
X119697500Y-45878750D03*
%TD*%
D14*
%TO.P,J3,8*%
%TO.N,N/C*%
X151130000Y-43180000D03*
%TO.P,J3,7*%
X151130000Y-45720000D03*
%TO.P,J3,6*%
X148590000Y-43180000D03*
%TO.P,J3,5*%
X148590000Y-45720000D03*
%TO.P,J3,4*%
X146050000Y-43180000D03*
%TO.P,J3,3*%
X146050000Y-45720000D03*
%TO.P,J3,2*%
X143510000Y-43180000D03*
D12*
%TO.P,J3,1*%
X143510000Y-45720000D03*
%TD*%
D13*
%TO.P,C5,1*%
%TO.N,N/C*%
X100330000Y-50800000D03*
%TO.P,C5,2*%
X105330000Y-50800000D03*
%TD*%
D14*
%TO.P,R2,2*%
%TO.N,N/C*%
X139700000Y-107950000D03*
D13*
%TO.P,R2,1*%
X129540000Y-107950000D03*
%TD*%
D14*
%TO.P,R1,2*%
%TO.N,N/C*%
X128270000Y-115570000D03*
D13*
%TO.P,R1,1*%
X118110000Y-115570000D03*
%TD*%
D17*
%TO.P,Q2,1*%
%TO.N,N/C*%
X163830000Y-67310000D03*
D18*
%TO.P,Q2,3*%
X163830000Y-69850000D03*
%TO.P,Q2,2*%
X163830000Y-68580000D03*
%TD*%
D13*
%TO.P,C8,2*%
%TO.N,N/C*%
X109300000Y-50800000D03*
%TO.P,C8,1*%
X114300000Y-50800000D03*
%TD*%
D17*
%TO.P,Q1,1*%
%TO.N,N/C*%
X133350000Y-113030000D03*
D18*
%TO.P,Q1,3*%
X133350000Y-115570000D03*
%TO.P,Q1,2*%
X133350000Y-114300000D03*
%TD*%
D12*
%TO.P,D4,1*%
%TO.N,N/C*%
X153670000Y-64770000D03*
D14*
%TO.P,D4,2*%
X143510000Y-64770000D03*
%TD*%
D13*
%TO.P,R9,1*%
%TO.N,N/C*%
X99060000Y-96520000D03*
D14*
%TO.P,R9,2*%
X109220000Y-96520000D03*
%TD*%
%TO.P,R4,2*%
%TO.N,N/C*%
X158750000Y-73660000D03*
D13*
%TO.P,R4,1*%
X158750000Y-63500000D03*
%TD*%
D14*
%TO.P,D1,2*%
%TO.N,N/C*%
X137160000Y-104140000D03*
D12*
%TO.P,D1,1*%
X129540000Y-104140000D03*
%TD*%
%TO.P,C6,1*%
%TO.N,N/C*%
X101600000Y-55880000D03*
D13*
%TO.P,C6,2*%
X104100000Y-55880000D03*
%TD*%
D14*
%TO.P,D2,2*%
%TO.N,N/C*%
X153670000Y-68580000D03*
D12*
%TO.P,D2,1*%
X143510000Y-68580000D03*
%TD*%
D13*
%TO.P,C7,2*%
%TO.N,N/C*%
X110490000Y-55880000D03*
D12*
%TO.P,C7,1*%
X112990000Y-55880000D03*
%TD*%
D14*
%TO.P,R3,2*%
%TO.N,N/C*%
X143510000Y-72390000D03*
D13*
%TO.P,R3,1*%
X153670000Y-72390000D03*
%TD*%
D14*
%TO.P,R12,2*%
%TO.N,Net-(R12-Pad2)*%
X212090000Y-91440000D03*
D13*
%TO.P,R12,1*%
%TO.N,Net-(R12-Pad1)*%
X222250000Y-91440000D03*
%TD*%
D12*
%TO.P,J2,1*%
%TO.N,+12V*%
X238760000Y-116840000D03*
D14*
%TO.P,J2,2*%
%TO.N,GND*%
X241300000Y-116840000D03*
%TO.P,J2,3*%
%TO.N,-12V*%
X243840000Y-116840000D03*
%TD*%
D13*
%TO.P,B1,1*%
%TO.N,/1(Tx)*%
X214947500Y-45878750D03*
%TO.P,B1,2*%
%TO.N,/0(Rx)*%
X214947500Y-48418750D03*
%TO.P,B1,3*%
%TO.N,/Reset(1)*%
X214947500Y-50958750D03*
%TO.P,B1,4*%
%TO.N,GND*%
X214947500Y-53498750D03*
%TO.P,B1,5*%
%TO.N,/2*%
X214947500Y-56038750D03*
%TO.P,B1,6*%
%TO.N,/3(\u002A\u002A)*%
X214947500Y-58578750D03*
%TO.P,B1,7*%
%TO.N,/4(SoftI2C_SCL)*%
X214947500Y-61118750D03*
%TO.P,B1,8*%
%TO.N,/5(SoftI2C_SDA)*%
X214947500Y-63658750D03*
%TO.P,B1,9*%
%TO.N,/6(\u002A\u002A)*%
X214947500Y-66198750D03*
%TO.P,B1,10*%
%TO.N,/7*%
X214947500Y-68738750D03*
%TO.P,B1,11*%
%TO.N,/8*%
X214947500Y-71278750D03*
%TO.P,B1,12*%
%TO.N,/9(\u002A\u002A)*%
X214947500Y-73818750D03*
%TO.P,B1,13*%
%TO.N,/11(\u002A\u002A)*%
X230187500Y-73818750D03*
%TO.P,B1,14*%
%TO.N,/10(\u002A\u002A)*%
X230187500Y-71278750D03*
%TO.P,B1,15*%
%TO.N,/13(SCK)*%
X230187500Y-68738750D03*
%TO.P,B1,16*%
%TO.N,/AREF*%
X230187500Y-66198750D03*
%TO.P,B1,17*%
%TO.N,/A0:ADP1101*%
X230187500Y-63658750D03*
%TO.P,B1,18*%
%TO.N,/A1:MPX10DP*%
X230187500Y-61118750D03*
%TO.P,B1,19*%
%TO.N,/A2*%
X230187500Y-58578750D03*
%TO.P,B1,20*%
%TO.N,/A3*%
X230187500Y-56038750D03*
%TO.P,B1,21*%
%TO.N,+3V3*%
X230187500Y-53498750D03*
%TO.P,B1,22*%
%TO.N,/Reset(2)*%
X230187500Y-50958750D03*
%TO.P,B1,23*%
%TO.N,GND*%
X230187500Y-48418750D03*
%TO.P,B1,24*%
%TO.N,+12V*%
X230187500Y-45878750D03*
D16*
%TO.P,B1,A5*%
%TO.N,/I2C:SCL*%
X227330000Y-54610000D03*
%TO.P,B1,A4*%
%TO.N,/I2C:SDA*%
X227330000Y-57150000D03*
D13*
%TO.P,B1,BLK*%
%TO.N,N/C*%
X216217500Y-43338750D03*
%TO.P,B1,GND*%
X218757500Y-43338750D03*
%TO.P,B1,VCC*%
X221297500Y-43338750D03*
%TO.P,B1,RXI*%
X223837500Y-43338750D03*
%TO.P,B1,TXO*%
X226377500Y-43338750D03*
%TO.P,B1,GRN*%
X228917500Y-43338750D03*
%TO.P,B1,A7*%
%TO.N,/A7*%
X227647500Y-73818750D03*
%TO.P,B1,A6*%
%TO.N,/A6*%
X225107500Y-73818750D03*
%TO.P,B1,4*%
%TO.N,GND*%
X222567500Y-73818750D03*
%TD*%
%TO.P,C1,2*%
%TO.N,GND*%
X227290000Y-86360000D03*
D12*
%TO.P,C1,1*%
%TO.N,+12V*%
X224790000Y-86360000D03*
%TD*%
%TO.P,C2,1*%
%TO.N,GND*%
X238760000Y-109220000D03*
D13*
%TO.P,C2,2*%
%TO.N,-12V*%
X241260000Y-109220000D03*
%TD*%
%TO.P,C3,2*%
%TO.N,GND*%
X215820000Y-84455000D03*
%TO.P,C3,1*%
%TO.N,+12V*%
X210820000Y-84455000D03*
%TD*%
%TO.P,C4,1*%
%TO.N,GND*%
X238760000Y-104140000D03*
%TO.P,C4,2*%
%TO.N,-12V*%
X243760000Y-104140000D03*
%TD*%
%TO.P,C5,2*%
%TO.N,GND*%
X200580000Y-50800000D03*
%TO.P,C5,1*%
%TO.N,+12V*%
X195580000Y-50800000D03*
%TD*%
%TO.P,C6,2*%
%TO.N,GND*%
X199350000Y-55880000D03*
D12*
%TO.P,C6,1*%
%TO.N,+12V*%
X196850000Y-55880000D03*
%TD*%
%TO.P,C7,1*%
%TO.N,+5V*%
X208240000Y-55880000D03*
D13*
%TO.P,C7,2*%
%TO.N,GND*%
X205740000Y-55880000D03*
%TD*%
%TO.P,C8,1*%
%TO.N,+5V*%
X209550000Y-50800000D03*
%TO.P,C8,2*%
%TO.N,GND*%
X204550000Y-50800000D03*
%TD*%
D12*
%TO.P,D1,1*%
%TO.N,Net-(D1-Pad1)*%
X224790000Y-104140000D03*
D14*
%TO.P,D1,2*%
%TO.N,GND*%
X232410000Y-104140000D03*
%TD*%
D12*
%TO.P,D2,1*%
%TO.N,/A0:ADP1101*%
X238760000Y-68580000D03*
D14*
%TO.P,D2,2*%
%TO.N,+3V3*%
X248920000Y-68580000D03*
%TD*%
%TO.P,D4,2*%
%TO.N,/A0:ADP1101*%
X238760000Y-64770000D03*
D12*
%TO.P,D4,1*%
%TO.N,GND*%
X248920000Y-64770000D03*
%TD*%
%TO.P,J3,1*%
%TO.N,+12V*%
X238760000Y-45720000D03*
D14*
%TO.P,J3,2*%
%TO.N,+3V3*%
X238760000Y-43180000D03*
%TO.P,J3,3*%
%TO.N,-12V*%
X241300000Y-45720000D03*
%TO.P,J3,4*%
%TO.N,GND*%
X241300000Y-43180000D03*
%TO.P,J3,5*%
%TO.N,/I2C:SCL*%
X243840000Y-45720000D03*
%TO.P,J3,6*%
X243840000Y-43180000D03*
%TO.P,J3,7*%
%TO.N,/I2C:SDA*%
X246380000Y-45720000D03*
%TO.P,J3,8*%
X246380000Y-43180000D03*
%TD*%
D18*
%TO.P,Q1,2*%
%TO.N,Net-(Q1-Pad2)*%
X228600000Y-114300000D03*
%TO.P,Q1,3*%
%TO.N,Net-(Q1-Pad3)*%
X228600000Y-115570000D03*
D17*
%TO.P,Q1,1*%
%TO.N,Net-(Q1-Pad1)*%
X228600000Y-113030000D03*
%TD*%
D18*
%TO.P,Q2,2*%
%TO.N,Net-(Q2-Pad2)*%
X259080000Y-68580000D03*
%TO.P,Q2,3*%
%TO.N,/GND_SFM3300*%
X259080000Y-69850000D03*
D17*
%TO.P,Q2,1*%
%TO.N,GND*%
X259080000Y-67310000D03*
%TD*%
D13*
%TO.P,R1,1*%
%TO.N,+12V*%
X213360000Y-115570000D03*
D14*
%TO.P,R1,2*%
%TO.N,Net-(D1-Pad1)*%
X223520000Y-115570000D03*
%TD*%
D13*
%TO.P,R2,1*%
%TO.N,Net-(Q1-Pad1)*%
X224790000Y-107950000D03*
D14*
%TO.P,R2,2*%
%TO.N,GND*%
X234950000Y-107950000D03*
%TD*%
D13*
%TO.P,R3,1*%
%TO.N,Net-(Q2-Pad2)*%
X248920000Y-72390000D03*
D14*
%TO.P,R3,2*%
%TO.N,/11(\u002A\u002A)*%
X238760000Y-72390000D03*
%TD*%
D13*
%TO.P,R4,1*%
%TO.N,GND*%
X254000000Y-63500000D03*
D14*
%TO.P,R4,2*%
%TO.N,Net-(Q2-Pad2)*%
X254000000Y-73660000D03*
%TD*%
%TO.P,R9,2*%
%TO.N,Net-(R9-Pad2)*%
X204470000Y-96520000D03*
D13*
%TO.P,R9,1*%
%TO.N,Net-(R12-Pad2)*%
X194310000Y-96520000D03*
%TD*%
%TO.P,R10,1*%
%TO.N,Net-(R10-Pad1)*%
X195580000Y-111760000D03*
D14*
%TO.P,R10,2*%
%TO.N,Net-(R10-Pad2)*%
X205740000Y-111760000D03*
%TD*%
%TO.P,R11,2*%
%TO.N,Net-(R10-Pad2)*%
X213360000Y-121920000D03*
D13*
%TO.P,R11,1*%
%TO.N,Net-(R11-Pad1)*%
X223520000Y-121920000D03*
%TD*%
D14*
%TO.P,R13,2*%
%TO.N,Net-(R11-Pad1)*%
X228600000Y-100330000D03*
D13*
%TO.P,R13,1*%
%TO.N,/Voff_ADP1101*%
X238760000Y-100330000D03*
%TD*%
%TO.P,R14,1*%
%TO.N,/A0:ADP1101*%
X226060000Y-95250000D03*
D14*
%TO.P,R14,2*%
%TO.N,Net-(R12-Pad1)*%
X236220000Y-95250000D03*
%TD*%
D13*
%TO.P,RV3,3*%
%TO.N,Net-(RV3-Pad3)*%
X190500000Y-116840000D03*
%TO.P,RV3,2*%
%TO.N,Net-(R10-Pad1)*%
X190500000Y-114300000D03*
D12*
%TO.P,RV3,1*%
%TO.N,Net-(R9-Pad2)*%
X190500000Y-111760000D03*
%TD*%
D15*
%TO.P,RV4,1*%
%TO.N,GND*%
X254000000Y-104140000D03*
D13*
%TO.P,RV4,2*%
%TO.N,Net-(RV4-Pad2)*%
X251460000Y-104140000D03*
%TO.P,RV4,3*%
%TO.N,-12V*%
X248920000Y-104140000D03*
%TD*%
D12*
%TO.P,U1,1*%
%TO.N,Net-(R12-Pad2)*%
X213360000Y-95250000D03*
D14*
%TO.P,U1,8*%
%TO.N,Net-(Q1-Pad2)*%
X220980000Y-110490000D03*
%TO.P,U1,2*%
%TO.N,Net-(R9-Pad2)*%
X213360000Y-97790000D03*
%TO.P,U1,9*%
%TO.N,Net-(Q1-Pad1)*%
X220980000Y-107950000D03*
%TO.P,U1,3*%
%TO.N,-OutputADP1101*%
X213360000Y-100330000D03*
%TO.P,U1,10*%
%TO.N,Net-(D1-Pad1)*%
X220980000Y-105410000D03*
%TO.P,U1,4*%
%TO.N,+12V*%
X213360000Y-102870000D03*
%TO.P,U1,11*%
%TO.N,-12V*%
X220980000Y-102870000D03*
%TO.P,U1,5*%
%TO.N,+OutputADP1101*%
X213360000Y-105410000D03*
%TO.P,U1,12*%
%TO.N,Net-(R11-Pad1)*%
X220980000Y-100330000D03*
%TO.P,U1,6*%
%TO.N,Net-(R10-Pad1)*%
X213360000Y-107950000D03*
%TO.P,U1,13*%
%TO.N,Net-(R12-Pad1)*%
X220980000Y-97790000D03*
%TO.P,U1,7*%
%TO.N,Net-(R10-Pad2)*%
X213360000Y-110490000D03*
%TO.P,U1,14*%
%TO.N,/A0:ADP1101*%
X220980000Y-95250000D03*
%TD*%
%TO.P,U2,8*%
%TO.N,+12V*%
X256540000Y-119380000D03*
%TO.P,U2,4*%
%TO.N,-12V*%
X248920000Y-111760000D03*
%TO.P,U2,7*%
%TO.N,N/C*%
X254000000Y-119380000D03*
%TO.P,U2,3*%
%TO.N,Net-(RV4-Pad2)*%
X251460000Y-111760000D03*
%TO.P,U2,6*%
%TO.N,N/C*%
X251460000Y-119380000D03*
%TO.P,U2,2*%
%TO.N,/Voff_ADP1101*%
X254000000Y-111760000D03*
%TO.P,U2,5*%
%TO.N,N/C*%
X248920000Y-119380000D03*
D12*
%TO.P,U2,1*%
%TO.N,/Voff_ADP1101*%
X256540000Y-111760000D03*
%TD*%
D14*
%TO.P,U3,1*%
%TO.N,-OutputADP1101*%
X203200000Y-101600000D03*
%TO.P,U3,4*%
%TO.N,Net-(U3-Pad4)*%
X193040000Y-106680000D03*
%TO.P,U3,2*%
%TO.N,+12V*%
X203200000Y-104140000D03*
%TO.P,U3,5*%
%TO.N,Net-(Q1-Pad3)*%
X193040000Y-104140000D03*
%TO.P,U3,3*%
%TO.N,+OutputADP1101*%
X203200000Y-106680000D03*
D12*
%TO.P,U3,6*%
%TO.N,-OutputADP1101*%
X193040000Y-101600000D03*
%TD*%
%TO.P,J1,1*%
%TO.N,/HEAT*%
X190500000Y-78740000D03*
D14*
%TO.P,J1,2*%
%TO.N,/I2C_SDA_SFM3300*%
X190500000Y-76200000D03*
%TO.P,J1,3*%
%TO.N,/GND_SFM3300*%
X190500000Y-73660000D03*
%TO.P,J1,4*%
%TO.N,/I2C_SCL_SFM3300*%
X190500000Y-71120000D03*
%TO.P,J1,5*%
%TO.N,+5V*%
X190500000Y-68580000D03*
%TO.P,J1,6*%
%TO.N,/HEAT_GND*%
X190500000Y-66040000D03*
%TO.P,J1,MP*%
%TO.N,Net-(J1-PadMP)*%
X190500000Y-63500000D03*
%TD*%
D11*
%TO.P,U4,1*%
%TO.N,+12V*%
X200660000Y-45720000D03*
D10*
%TO.P,U4,2*%
%TO.N,GND*%
X203200000Y-45720000D03*
%TO.P,U4,3*%
%TO.N,+5V*%
X205740000Y-45720000D03*
%TD*%
%TO.P,LVL1,1*%
%TO.N,/5(SoftI2C_SDA)*%
%TA.AperFunction,ComponentPad*%
G36*
G01*
X209542000Y-77089000D02*
X209542000Y-77851000D01*
G75*
G02*
X209161000Y-78232000I-381000J0D01*
G01*
X207399000Y-78232000D01*
G75*
G02*
X207018000Y-77851000I0J381000D01*
G01*
X207018000Y-77089000D01*
G75*
G02*
X207399000Y-76708000I381000J0D01*
G01*
X209161000Y-76708000D01*
G75*
G02*
X209542000Y-77089000I0J-381000D01*
G01*
G37*
%TD.AperFunction*%
%TO.P,LVL1,2*%
%TO.N,Net-(LVL1-Pad2)*%
%TA.AperFunction,ComponentPad*%
G36*
G01*
X209542000Y-74549000D02*
X209542000Y-75311000D01*
G75*
G02*
X209161000Y-75692000I-381000J0D01*
G01*
X207399000Y-75692000D01*
G75*
G02*
X207018000Y-75311000I0J381000D01*
G01*
X207018000Y-74549000D01*
G75*
G02*
X207399000Y-74168000I381000J0D01*
G01*
X209161000Y-74168000D01*
G75*
G02*
X209542000Y-74549000I0J-381000D01*
G01*
G37*
%TD.AperFunction*%
%TO.P,LVL1,3*%
%TO.N,+3V3*%
%TA.AperFunction,ComponentPad*%
G36*
G01*
X209542000Y-72009000D02*
X209542000Y-72771000D01*
G75*
G02*
X209161000Y-73152000I-381000J0D01*
G01*
X207399000Y-73152000D01*
G75*
G02*
X207018000Y-72771000I0J381000D01*
G01*
X207018000Y-72009000D01*
G75*
G02*
X207399000Y-71628000I381000J0D01*
G01*
X209161000Y-71628000D01*
G75*
G02*
X209542000Y-72009000I0J-381000D01*
G01*
G37*
%TD.AperFunction*%
%TO.P,LVL1,4*%
%TO.N,GND*%
%TA.AperFunction,ComponentPad*%
G36*
G01*
X209542000Y-69469000D02*
X209542000Y-70231000D01*
G75*
G02*
X209161000Y-70612000I-381000J0D01*
G01*
X207399000Y-70612000D01*
G75*
G02*
X207018000Y-70231000I0J381000D01*
G01*
X207018000Y-69469000D01*
G75*
G02*
X207399000Y-69088000I381000J0D01*
G01*
X209161000Y-69088000D01*
G75*
G02*
X209542000Y-69469000I0J-381000D01*
G01*
G37*
%TD.AperFunction*%
%TO.P,LVL1,5*%
%TO.N,Net-(LVL1-Pad5)*%
%TA.AperFunction,ComponentPad*%
G36*
G01*
X209542000Y-66929000D02*
X209542000Y-67691000D01*
G75*
G02*
X209161000Y-68072000I-381000J0D01*
G01*
X207399000Y-68072000D01*
G75*
G02*
X207018000Y-67691000I0J381000D01*
G01*
X207018000Y-66929000D01*
G75*
G02*
X207399000Y-66548000I381000J0D01*
G01*
X209161000Y-66548000D01*
G75*
G02*
X209542000Y-66929000I0J-381000D01*
G01*
G37*
%TD.AperFunction*%
%TO.P,LVL1,6*%
%TO.N,/4(SoftI2C_SCL)*%
%TA.AperFunction,ComponentPad*%
G36*
G01*
X209542000Y-64389000D02*
X209542000Y-65151000D01*
G75*
G02*
X209161000Y-65532000I-381000J0D01*
G01*
X207399000Y-65532000D01*
G75*
G02*
X207018000Y-65151000I0J381000D01*
G01*
X207018000Y-64389000D01*
G75*
G02*
X207399000Y-64008000I381000J0D01*
G01*
X209161000Y-64008000D01*
G75*
G02*
X209542000Y-64389000I0J-381000D01*
G01*
G37*
%TD.AperFunction*%
%TO.P,LVL1,7*%
%TO.N,/I2C_SCL_SFM3300*%
%TA.AperFunction,ComponentPad*%
G36*
G01*
X198112000Y-64389000D02*
X198112000Y-65151000D01*
G75*
G02*
X197731000Y-65532000I-381000J0D01*
G01*
X195969000Y-65532000D01*
G75*
G02*
X195588000Y-65151000I0J381000D01*
G01*
X195588000Y-64389000D01*
G75*
G02*
X195969000Y-64008000I381000J0D01*
G01*
X197731000Y-64008000D01*
G75*
G02*
X198112000Y-64389000I0J-381000D01*
G01*
G37*
%TD.AperFunction*%
%TO.P,LVL1,8*%
%TO.N,Net-(LVL1-Pad8)*%
%TA.AperFunction,ComponentPad*%
G36*
G01*
X198112000Y-66929000D02*
X198112000Y-67691000D01*
G75*
G02*
X197731000Y-68072000I-381000J0D01*
G01*
X195969000Y-68072000D01*
G75*
G02*
X195588000Y-67691000I0J381000D01*
G01*
X195588000Y-66929000D01*
G75*
G02*
X195969000Y-66548000I381000J0D01*
G01*
X197731000Y-66548000D01*
G75*
G02*
X198112000Y-66929000I0J-381000D01*
G01*
G37*
%TD.AperFunction*%
%TO.P,LVL1,9*%
%TO.N,GND*%
%TA.AperFunction,ComponentPad*%
G36*
G01*
X198112000Y-69469000D02*
X198112000Y-70231000D01*
G75*
G02*
X197731000Y-70612000I-381000J0D01*
G01*
X195969000Y-70612000D01*
G75*
G02*
X195588000Y-70231000I0J381000D01*
G01*
X195588000Y-69469000D01*
G75*
G02*
X195969000Y-69088000I381000J0D01*
G01*
X197731000Y-69088000D01*
G75*
G02*
X198112000Y-69469000I0J-381000D01*
G01*
G37*
%TD.AperFunction*%
%TO.P,LVL1,10*%
%TO.N,+5V*%
%TA.AperFunction,ComponentPad*%
G36*
G01*
X198112000Y-72009000D02*
X198112000Y-72771000D01*
G75*
G02*
X197731000Y-73152000I-381000J0D01*
G01*
X195969000Y-73152000D01*
G75*
G02*
X195588000Y-72771000I0J381000D01*
G01*
X195588000Y-72009000D01*
G75*
G02*
X195969000Y-71628000I381000J0D01*
G01*
X197731000Y-71628000D01*
G75*
G02*
X198112000Y-72009000I0J-381000D01*
G01*
G37*
%TD.AperFunction*%
%TO.P,LVL1,11*%
%TO.N,Net-(LVL1-Pad11)*%
%TA.AperFunction,ComponentPad*%
G36*
G01*
X198112000Y-74549000D02*
X198112000Y-75311000D01*
G75*
G02*
X197731000Y-75692000I-381000J0D01*
G01*
X195969000Y-75692000D01*
G75*
G02*
X195588000Y-75311000I0J381000D01*
G01*
X195588000Y-74549000D01*
G75*
G02*
X195969000Y-74168000I381000J0D01*
G01*
X197731000Y-74168000D01*
G75*
G02*
X198112000Y-74549000I0J-381000D01*
G01*
G37*
%TD.AperFunction*%
%TO.P,LVL1,12*%
%TO.N,/I2C_SDA_SFM3300*%
%TA.AperFunction,ComponentPad*%
G36*
G01*
X198112000Y-77089000D02*
X198112000Y-77851000D01*
G75*
G02*
X197731000Y-78232000I-381000J0D01*
G01*
X195969000Y-78232000D01*
G75*
G02*
X195588000Y-77851000I0J381000D01*
G01*
X195588000Y-77089000D01*
G75*
G02*
X195969000Y-76708000I381000J0D01*
G01*
X197731000Y-76708000D01*
G75*
G02*
X198112000Y-77089000I0J-381000D01*
G01*
G37*
%TD.AperFunction*%
%TD*%
D19*
%TO.N,*%
X158750000Y-107950000D03*
X163830000Y-107950000D03*
X135890000Y-92710000D03*
X157480000Y-58420000D03*
X144780000Y-58420000D03*
X146050000Y-92710000D03*
X139700000Y-60960000D03*
X139700000Y-80010000D03*
X146050000Y-129540000D03*
X142240000Y-50800000D03*
X120650000Y-119380000D03*
X146050000Y-121920000D03*
X158750000Y-50800000D03*
X90170000Y-83820000D03*
X95250000Y-83820000D03*
X134620000Y-119380000D03*
X153670000Y-48260000D03*
X148590000Y-48260000D03*
X151130000Y-107950000D03*
X157480000Y-54610000D03*
X151130000Y-97790000D03*
X144780000Y-54610000D03*
X98425000Y-60960000D03*
X112395000Y-60960000D03*
X165100000Y-88900000D03*
X154940000Y-78740000D03*
X102870000Y-114300000D03*
X102870000Y-119380000D03*
X125730000Y-87630000D03*
X116840000Y-87630000D03*
%TO.N,GND*%
X254000000Y-107950000D03*
X259080000Y-107950000D03*
%TO.N,/A0:ADP1101*%
X231140000Y-92710000D03*
X241300000Y-92710000D03*
X252730000Y-58420000D03*
X240030000Y-58420000D03*
%TO.N,+3V3*%
X234950000Y-80010000D03*
X234950000Y-60960000D03*
%TO.N,+12V*%
X241300000Y-129540000D03*
X241300000Y-121920000D03*
X237490000Y-50800000D03*
X254000000Y-50800000D03*
X215900000Y-119380000D03*
X229870000Y-119380000D03*
X185420000Y-83820000D03*
X190500000Y-83820000D03*
%TO.N,/I2C:SCL*%
X248920000Y-48260000D03*
X243840000Y-48260000D03*
%TO.N,-12V*%
X246380000Y-107950000D03*
X246380000Y-97790000D03*
X252730000Y-54610000D03*
X240030000Y-54610000D03*
%TO.N,+5V*%
X207645000Y-60960000D03*
X193675000Y-60960000D03*
%TO.N,/GND_SFM3300*%
X260350000Y-88900000D03*
X250190000Y-78740000D03*
%TO.N,Net-(R10-Pad1)*%
X198120000Y-114300000D03*
X198120000Y-119380000D03*
%TO.N,Net-(R11-Pad1)*%
X220980000Y-87630000D03*
X212090000Y-87630000D03*
%TD*%
D20*
%TO.N,*%
X158750000Y-107950000D02*
X163830000Y-107950000D01*
X157480000Y-58420000D02*
X144780000Y-58420000D01*
X135890000Y-92710000D02*
X146050000Y-92710000D01*
X139700000Y-80010000D02*
X139700000Y-60960000D01*
X120650000Y-119380000D02*
X134620000Y-119380000D01*
X142240000Y-50800000D02*
X158750000Y-50800000D01*
X146050000Y-121920000D02*
X146050000Y-129540000D01*
X90170000Y-83820000D02*
X95250000Y-83820000D01*
X148590000Y-48260000D02*
X153670000Y-48260000D01*
X151130000Y-107950000D02*
X151130000Y-97790000D01*
X157480000Y-54610000D02*
X144780000Y-54610000D01*
X112395000Y-60960000D02*
X98425000Y-60960000D01*
X165100000Y-88900000D02*
X154940000Y-78740000D01*
X102870000Y-114300000D02*
X102870000Y-119380000D01*
X125730000Y-87630000D02*
X116840000Y-87630000D01*
%TO.N,GND*%
X254000000Y-107950000D02*
X259080000Y-107950000D01*
%TO.N,/A0:ADP1101*%
X231140000Y-92710000D02*
X241300000Y-92710000D01*
X252730000Y-58420000D02*
X240030000Y-58420000D01*
%TO.N,+3V3*%
X234950000Y-80010000D02*
X234950000Y-60960000D01*
%TO.N,+12V*%
X241300000Y-121920000D02*
X241300000Y-129540000D01*
X237490000Y-50800000D02*
X254000000Y-50800000D01*
X215900000Y-119380000D02*
X229870000Y-119380000D01*
X185420000Y-83820000D02*
X190500000Y-83820000D01*
%TO.N,/I2C:SCL*%
X243840000Y-48260000D02*
X248920000Y-48260000D01*
%TO.N,-12V*%
X246380000Y-107950000D02*
X246380000Y-97790000D01*
X252730000Y-54610000D02*
X240030000Y-54610000D01*
%TO.N,+5V*%
X207645000Y-60960000D02*
X193675000Y-60960000D01*
%TO.N,/GND_SFM3300*%
X260350000Y-88900000D02*
X250190000Y-78740000D01*
%TO.N,Net-(R10-Pad1)*%
X198120000Y-114300000D02*
X198120000Y-119380000D01*
%TO.N,Net-(R11-Pad1)*%
X220980000Y-87630000D02*
X212090000Y-87630000D01*
%TD*%
M02*
