M48
; DRILL file {KiCad (5.1.6)-1} date 08/25/20 11:28:56
; FORMAT={-:-/ absolute / inch / decimal}
; #@! TF.CreationDate,2020-08-25T11:28:56-06:00
; #@! TF.GenerationSoftware,Kicad,Pcbnew,(5.1.6)-1
FMAT,2
INCH
T1C0.0157
T2C0.0280
T3C0.0295
T4C0.0300
T5C0.0315
T6C0.0354
T7C0.0394
T8C0.0400
T9C0.0433
T10C0.1969
%
G90
G05
T1
X3.55Y-3.3
X3.75Y-3.3
X3.875Y-2.4
X4.05Y-4.5
X4.05Y-4.7
X4.425Y-2.4
X4.6Y-3.45
X4.75Y-4.7
X4.95Y-3.45
X5.3Y-4.7
X5.35Y-3.65
X5.5Y-2.4
X5.5Y-3.15
X5.6Y-2.0
X5.7Y-2.15
X5.7Y-2.3
X5.75Y-3.65
X5.75Y-4.8
X5.75Y-5.1
X5.85Y-1.9
X5.95Y-3.85
X5.95Y-4.25
X6.05Y-1.9
X6.1Y-3.1
X6.2Y-2.15
X6.2Y-2.3
X6.25Y-2.0
X6.25Y-4.25
X6.45Y-4.25
X6.5Y-3.5
X7.3Y-3.3
X7.5Y-3.3
X7.625Y-2.4
X7.8Y-4.5
X7.8Y-4.7
X8.175Y-2.4
X8.35Y-3.45
X8.5Y-4.7
X8.7Y-3.45
X9.05Y-4.7
X9.1Y-3.65
X9.25Y-2.4
X9.25Y-3.15
X9.35Y-2.0
X9.45Y-2.15
X9.45Y-2.3
X9.5Y-3.65
X9.5Y-4.8
X9.5Y-5.1
X9.6Y-1.9
X9.7Y-3.85
X9.7Y-4.25
X9.8Y-1.9
X9.85Y-3.1
X9.95Y-2.15
X9.95Y-2.3
X10.0Y-2.0
X10.0Y-4.25
X10.2Y-4.25
X10.25Y-3.5
T2
X7.5Y-4.4
X7.5Y-4.5
X7.5Y-4.6
X9.8Y-4.1
X9.9Y-4.1
X10.0Y-4.1
X6.05Y-4.1
X6.15Y-4.1
X6.25Y-4.1
X3.75Y-4.4
X3.75Y-4.5
X3.75Y-4.6
T3
X9.0Y-4.45
X9.0Y-4.5
X9.0Y-4.55
X6.45Y-2.65
X6.45Y-2.7
X6.45Y-2.75
X5.25Y-4.45
X5.25Y-4.5
X5.25Y-4.55
X10.2Y-2.65
X10.2Y-2.7
X10.2Y-2.75
T4
X7.75Y-2.55
X7.75Y-2.65
X7.75Y-2.75
X7.75Y-2.85
X7.75Y-2.95
X7.75Y-3.05
X8.2Y-2.55
X8.2Y-2.65
X8.2Y-2.75
X8.2Y-2.85
X8.2Y-2.95
X8.2Y-3.05
X4.0Y-2.55
X4.0Y-2.65
X4.0Y-2.75
X4.0Y-2.85
X4.0Y-2.95
X4.0Y-3.05
X4.45Y-2.55
X4.45Y-2.65
X4.45Y-2.75
X4.45Y-2.85
X4.45Y-2.95
X4.45Y-3.05
T5
X4.6Y-3.6
X5.0Y-3.6
X5.1Y-3.4
X5.1984Y-3.4
X8.3Y-3.325
X8.4969Y-3.325
X7.7Y-4.4
X8.1Y-4.4
X4.65Y-4.55
X5.05Y-4.55
X7.6Y-4.0
X7.6Y-4.1
X7.6Y-4.2
X8.0Y-4.0
X8.0Y-4.1
X8.0Y-4.2
X9.4Y-4.3
X9.4984Y-4.3
X4.0Y-2.2
X4.0984Y-2.2
X8.1Y-2.2
X8.1984Y-2.2
X5.65Y-2.85
X6.05Y-2.85
X6.05Y-4.4
X6.05Y-4.7
X6.15Y-4.4
X6.15Y-4.7
X6.25Y-4.4
X6.25Y-4.7
X6.35Y-4.4
X6.35Y-4.7
X5.1Y-4.1
X5.4Y-4.1
X5.1Y-4.25
X5.5Y-4.25
X7.7Y-2.0
X7.8969Y-2.0
X9.8Y-4.4
X9.8Y-4.7
X9.9Y-4.4
X9.9Y-4.7
X10.0Y-4.4
X10.0Y-4.7
X10.1Y-4.4
X10.1Y-4.7
X9.4Y-2.85
X9.8Y-2.85
X8.85Y-3.4
X8.9484Y-3.4
X5.25Y-3.95
X5.65Y-3.95
X4.65Y-3.75
X4.65Y-3.85
X4.65Y-3.95
X4.65Y-4.05
X4.65Y-4.15
X4.65Y-4.25
X4.65Y-4.35
X4.95Y-3.75
X4.95Y-3.85
X4.95Y-3.95
X4.95Y-4.05
X4.95Y-4.15
X4.95Y-4.25
X4.95Y-4.35
X4.3031Y-2.0
X4.5Y-2.0
X8.85Y-4.25
X9.25Y-4.25
X8.4Y-3.75
X8.4Y-3.85
X8.4Y-3.95
X8.4Y-4.05
X8.4Y-4.15
X8.4Y-4.25
X8.4Y-4.35
X8.7Y-3.75
X8.7Y-3.85
X8.7Y-3.95
X8.7Y-4.05
X8.7Y-4.15
X8.7Y-4.25
X8.7Y-4.35
X7.65Y-3.8
X8.05Y-3.8
X4.35Y-2.2
X4.4484Y-2.2
X4.55Y-3.325
X4.7469Y-3.325
X5.65Y-4.1
X5.8469Y-4.1
X3.95Y-2.0
X4.1469Y-2.0
X8.4Y-4.55
X8.8Y-4.55
X8.9Y-3.75
X9.3Y-3.75
X10.0Y-2.5
X10.0Y-2.9
X8.35Y-3.6
X8.75Y-3.6
X3.95Y-4.4
X4.35Y-4.4
X3.9Y-3.8
X4.3Y-3.8
X8.4Y-4.8
X8.8Y-4.8
X8.85Y-4.1
X9.15Y-4.1
X9.0Y-3.95
X9.4Y-3.95
X5.15Y-3.75
X5.55Y-3.75
X5.65Y-4.3
X5.7484Y-4.3
X6.25Y-2.5
X6.25Y-2.9
X8.0531Y-2.0
X8.25Y-2.0
X9.4Y-4.1
X9.5969Y-4.1
X7.75Y-2.2
X7.8484Y-2.2
X4.65Y-4.8
X5.05Y-4.8
X3.85Y-4.0
X3.85Y-4.1
X3.85Y-4.2
X4.25Y-4.0
X4.25Y-4.1
X4.25Y-4.2
T6
X9.4Y-2.7
X9.8Y-2.7
X5.65Y-2.55
X6.05Y-2.55
X9.4Y-2.55
X9.8Y-2.55
X5.65Y-2.7
X6.05Y-2.7
T7
X3.75Y-2.5
X3.75Y-2.6
X3.75Y-2.7
X3.75Y-2.8
X3.75Y-2.9
X3.75Y-3.0
X3.75Y-3.1
X5.65Y-4.6
X5.75Y-4.6
X5.85Y-4.6
X9.4Y-4.6
X9.5Y-4.6
X9.6Y-4.6
X7.5Y-2.5
X7.5Y-2.6
X7.5Y-2.7
X7.5Y-2.8
X7.5Y-2.9
X7.5Y-3.0
X7.5Y-3.1
X5.65Y-1.7
X5.65Y-1.8
X5.75Y-1.7
X5.75Y-1.8
X5.85Y-1.7
X5.85Y-1.8
X5.95Y-1.7
X5.95Y-1.8
X9.4Y-1.7
X9.4Y-1.8
X9.5Y-1.7
X9.5Y-1.8
X9.6Y-1.7
X9.6Y-1.8
X9.7Y-1.7
X9.7Y-1.8
T8
X4.7125Y-1.8062
X4.7125Y-1.9062
X4.7125Y-2.0063
X4.7125Y-2.1062
X4.7125Y-2.2062
X4.7125Y-2.3062
X4.7125Y-2.4062
X4.7125Y-2.5063
X4.7125Y-2.6062
X4.7125Y-2.7062
X4.7125Y-2.8062
X4.7125Y-2.9062
X4.7625Y-1.7063
X4.8625Y-1.7063
X4.9625Y-1.7063
X5.0125Y-2.9062
X5.0625Y-1.7063
X5.1125Y-2.9062
X5.1625Y-1.7063
X5.2Y-2.15
X5.2Y-2.25
X5.2125Y-2.9062
X5.2625Y-1.7063
X5.3125Y-1.8062
X5.3125Y-1.9062
X5.3125Y-2.0063
X5.3125Y-2.1062
X5.3125Y-2.2062
X5.3125Y-2.3062
X5.3125Y-2.4062
X5.3125Y-2.5063
X5.3125Y-2.6062
X5.3125Y-2.7062
X5.3125Y-2.8062
X5.3125Y-2.9062
X8.4625Y-1.8062
X8.4625Y-1.9062
X8.4625Y-2.0063
X8.4625Y-2.1062
X8.4625Y-2.2062
X8.4625Y-2.3062
X8.4625Y-2.4062
X8.4625Y-2.5063
X8.4625Y-2.6062
X8.4625Y-2.7062
X8.4625Y-2.8062
X8.4625Y-2.9062
X8.5125Y-1.7063
X8.6125Y-1.7063
X8.7125Y-1.7063
X8.7625Y-2.9062
X8.8125Y-1.7063
X8.8625Y-2.9062
X8.9125Y-1.7063
X8.95Y-2.15
X8.95Y-2.25
X8.9625Y-2.9062
X9.0125Y-1.7063
X9.0625Y-1.8062
X9.0625Y-1.9062
X9.0625Y-2.0063
X9.0625Y-2.1062
X9.0625Y-2.2062
X9.0625Y-2.3062
X9.0625Y-2.4062
X9.0625Y-2.5063
X9.0625Y-2.6062
X9.0625Y-2.7062
X9.0625Y-2.8062
X9.0625Y-2.9062
T9
X7.9Y-1.8
X8.0Y-1.8
X8.1Y-1.8
X4.15Y-1.8
X4.25Y-1.8
X4.35Y-1.8
T10
X6.65Y-1.8
X7.4Y-5.2
X3.65Y-1.8
X3.65Y-5.2
X6.65Y-5.2
X10.4Y-5.2
X10.4Y-1.8
X7.4Y-1.8
T0
M30
