%TF.GenerationSoftware,KiCad,Pcbnew,(5.1.6)-1*%
%TF.CreationDate,2020-08-25T11:29:03-06:00*%
%TF.ProjectId,Sensores,53656e73-6f72-4657-932e-6b696361645f,rev?*%
%TF.SameCoordinates,Original*%
%TF.FileFunction,Soldermask,Top*%
%TF.FilePolarity,Negative*%
%FSLAX46Y46*%
G04 Gerber Fmt 4.6, Leading zero omitted, Abs format (unit mm)*
G04 Created by KiCad (PCBNEW (5.1.6)-1) date 2020-08-25 11:29:03*
%MOMM*%
%LPD*%
G01*
G04 APERTURE LIST*
%ADD10O,1.905000X2.000000*%
%ADD11R,1.905000X2.000000*%
%ADD12R,2.000000X2.000000*%
%ADD13C,2.000000*%
%ADD14O,2.000000X2.000000*%
%ADD15R,1.218000X2.000000*%
%ADD16C,5.000000*%
%ADD17C,1.879600*%
%ADD18R,1.500000X1.050000*%
%ADD19O,1.500000X1.050000*%
G04 APERTURE END LIST*
D10*
%TO.C,U4*%
X110490000Y-45720000D03*
X107950000Y-45720000D03*
D11*
X105410000Y-45720000D03*
%TD*%
D12*
%TO.C,RV3*%
X95250000Y-111760000D03*
D13*
X95250000Y-114300000D03*
X95250000Y-116840000D03*
%TD*%
D12*
%TO.C,U3*%
X97790000Y-101600000D03*
D14*
X107950000Y-106680000D03*
X97790000Y-104140000D03*
X107950000Y-104140000D03*
X97790000Y-106680000D03*
X107950000Y-101600000D03*
%TD*%
D12*
%TO.C,U2*%
X161290000Y-111760000D03*
D14*
X153670000Y-119380000D03*
X158750000Y-111760000D03*
X156210000Y-119380000D03*
X156210000Y-111760000D03*
X158750000Y-119380000D03*
X153670000Y-111760000D03*
X161290000Y-119380000D03*
%TD*%
%TO.C,U1*%
X125730000Y-95250000D03*
X118110000Y-110490000D03*
X125730000Y-97790000D03*
X118110000Y-107950000D03*
X125730000Y-100330000D03*
X118110000Y-105410000D03*
X125730000Y-102870000D03*
X118110000Y-102870000D03*
X125730000Y-105410000D03*
X118110000Y-100330000D03*
X125730000Y-107950000D03*
X118110000Y-97790000D03*
X125730000Y-110490000D03*
D12*
X118110000Y-95250000D03*
%TD*%
D14*
%TO.C,R14*%
X140970000Y-95250000D03*
D13*
X130810000Y-95250000D03*
%TD*%
%TO.C,R11*%
X128270000Y-121920000D03*
D14*
X118110000Y-121920000D03*
%TD*%
%TO.C,LVL1*%
G36*
G01*
X102862000Y-77089000D02*
X102862000Y-77851000D01*
G75*
G02*
X102481000Y-78232000I-381000J0D01*
G01*
X100719000Y-78232000D01*
G75*
G02*
X100338000Y-77851000I0J381000D01*
G01*
X100338000Y-77089000D01*
G75*
G02*
X100719000Y-76708000I381000J0D01*
G01*
X102481000Y-76708000D01*
G75*
G02*
X102862000Y-77089000I0J-381000D01*
G01*
G37*
G36*
G01*
X102862000Y-74549000D02*
X102862000Y-75311000D01*
G75*
G02*
X102481000Y-75692000I-381000J0D01*
G01*
X100719000Y-75692000D01*
G75*
G02*
X100338000Y-75311000I0J381000D01*
G01*
X100338000Y-74549000D01*
G75*
G02*
X100719000Y-74168000I381000J0D01*
G01*
X102481000Y-74168000D01*
G75*
G02*
X102862000Y-74549000I0J-381000D01*
G01*
G37*
G36*
G01*
X102862000Y-72009000D02*
X102862000Y-72771000D01*
G75*
G02*
X102481000Y-73152000I-381000J0D01*
G01*
X100719000Y-73152000D01*
G75*
G02*
X100338000Y-72771000I0J381000D01*
G01*
X100338000Y-72009000D01*
G75*
G02*
X100719000Y-71628000I381000J0D01*
G01*
X102481000Y-71628000D01*
G75*
G02*
X102862000Y-72009000I0J-381000D01*
G01*
G37*
G36*
G01*
X102862000Y-69469000D02*
X102862000Y-70231000D01*
G75*
G02*
X102481000Y-70612000I-381000J0D01*
G01*
X100719000Y-70612000D01*
G75*
G02*
X100338000Y-70231000I0J381000D01*
G01*
X100338000Y-69469000D01*
G75*
G02*
X100719000Y-69088000I381000J0D01*
G01*
X102481000Y-69088000D01*
G75*
G02*
X102862000Y-69469000I0J-381000D01*
G01*
G37*
G36*
G01*
X102862000Y-66929000D02*
X102862000Y-67691000D01*
G75*
G02*
X102481000Y-68072000I-381000J0D01*
G01*
X100719000Y-68072000D01*
G75*
G02*
X100338000Y-67691000I0J381000D01*
G01*
X100338000Y-66929000D01*
G75*
G02*
X100719000Y-66548000I381000J0D01*
G01*
X102481000Y-66548000D01*
G75*
G02*
X102862000Y-66929000I0J-381000D01*
G01*
G37*
G36*
G01*
X102862000Y-64389000D02*
X102862000Y-65151000D01*
G75*
G02*
X102481000Y-65532000I-381000J0D01*
G01*
X100719000Y-65532000D01*
G75*
G02*
X100338000Y-65151000I0J381000D01*
G01*
X100338000Y-64389000D01*
G75*
G02*
X100719000Y-64008000I381000J0D01*
G01*
X102481000Y-64008000D01*
G75*
G02*
X102862000Y-64389000I0J-381000D01*
G01*
G37*
G36*
G01*
X114292000Y-64389000D02*
X114292000Y-65151000D01*
G75*
G02*
X113911000Y-65532000I-381000J0D01*
G01*
X112149000Y-65532000D01*
G75*
G02*
X111768000Y-65151000I0J381000D01*
G01*
X111768000Y-64389000D01*
G75*
G02*
X112149000Y-64008000I381000J0D01*
G01*
X113911000Y-64008000D01*
G75*
G02*
X114292000Y-64389000I0J-381000D01*
G01*
G37*
G36*
G01*
X114292000Y-66929000D02*
X114292000Y-67691000D01*
G75*
G02*
X113911000Y-68072000I-381000J0D01*
G01*
X112149000Y-68072000D01*
G75*
G02*
X111768000Y-67691000I0J381000D01*
G01*
X111768000Y-66929000D01*
G75*
G02*
X112149000Y-66548000I381000J0D01*
G01*
X113911000Y-66548000D01*
G75*
G02*
X114292000Y-66929000I0J-381000D01*
G01*
G37*
G36*
G01*
X114292000Y-69469000D02*
X114292000Y-70231000D01*
G75*
G02*
X113911000Y-70612000I-381000J0D01*
G01*
X112149000Y-70612000D01*
G75*
G02*
X111768000Y-70231000I0J381000D01*
G01*
X111768000Y-69469000D01*
G75*
G02*
X112149000Y-69088000I381000J0D01*
G01*
X113911000Y-69088000D01*
G75*
G02*
X114292000Y-69469000I0J-381000D01*
G01*
G37*
G36*
G01*
X114292000Y-72009000D02*
X114292000Y-72771000D01*
G75*
G02*
X113911000Y-73152000I-381000J0D01*
G01*
X112149000Y-73152000D01*
G75*
G02*
X111768000Y-72771000I0J381000D01*
G01*
X111768000Y-72009000D01*
G75*
G02*
X112149000Y-71628000I381000J0D01*
G01*
X113911000Y-71628000D01*
G75*
G02*
X114292000Y-72009000I0J-381000D01*
G01*
G37*
G36*
G01*
X114292000Y-74549000D02*
X114292000Y-75311000D01*
G75*
G02*
X113911000Y-75692000I-381000J0D01*
G01*
X112149000Y-75692000D01*
G75*
G02*
X111768000Y-75311000I0J381000D01*
G01*
X111768000Y-74549000D01*
G75*
G02*
X112149000Y-74168000I381000J0D01*
G01*
X113911000Y-74168000D01*
G75*
G02*
X114292000Y-74549000I0J-381000D01*
G01*
G37*
G36*
G01*
X114292000Y-77089000D02*
X114292000Y-77851000D01*
G75*
G02*
X113911000Y-78232000I-381000J0D01*
G01*
X112149000Y-78232000D01*
G75*
G02*
X111768000Y-77851000I0J381000D01*
G01*
X111768000Y-77089000D01*
G75*
G02*
X112149000Y-76708000I381000J0D01*
G01*
X113911000Y-76708000D01*
G75*
G02*
X114292000Y-77089000I0J-381000D01*
G01*
G37*
%TD*%
D13*
%TO.C,RV4*%
X153670000Y-104140000D03*
X156210000Y-104140000D03*
D15*
X158750000Y-104140000D03*
%TD*%
D14*
%TO.C,J1*%
X95250000Y-63500000D03*
X95250000Y-66040000D03*
X95250000Y-68580000D03*
X95250000Y-71120000D03*
X95250000Y-73660000D03*
X95250000Y-76200000D03*
D12*
X95250000Y-78740000D03*
%TD*%
D13*
%TO.C,R13*%
X143510000Y-100330000D03*
D14*
X133350000Y-100330000D03*
%TD*%
%TO.C,R10*%
X110490000Y-111760000D03*
D13*
X100330000Y-111760000D03*
%TD*%
D16*
%TO.C,H1*%
X92710000Y-132080000D03*
%TD*%
D13*
%TO.C,C4*%
X148510000Y-104140000D03*
X143510000Y-104140000D03*
%TD*%
%TO.C,C3*%
X115570000Y-84455000D03*
X120570000Y-84455000D03*
%TD*%
%TO.C,C2*%
X146010000Y-109220000D03*
D12*
X143510000Y-109220000D03*
%TD*%
D14*
%TO.C,J2*%
X148590000Y-116840000D03*
X146050000Y-116840000D03*
D12*
X143510000Y-116840000D03*
%TD*%
D13*
%TO.C,R12*%
X127000000Y-91440000D03*
D14*
X116840000Y-91440000D03*
%TD*%
D12*
%TO.C,C1*%
X129540000Y-86360000D03*
D13*
X132040000Y-86360000D03*
%TD*%
%TO.C,B1*%
X127317500Y-73818750D03*
X129857500Y-73818750D03*
X132397500Y-73818750D03*
X133667500Y-43338750D03*
X131127500Y-43338750D03*
X128587500Y-43338750D03*
X126047500Y-43338750D03*
X123507500Y-43338750D03*
X120967500Y-43338750D03*
D17*
X132080000Y-57150000D03*
X132080000Y-54610000D03*
D13*
X134937500Y-45878750D03*
X134937500Y-48418750D03*
X134937500Y-50958750D03*
X134937500Y-53498750D03*
X134937500Y-56038750D03*
X134937500Y-58578750D03*
X134937500Y-61118750D03*
X134937500Y-63658750D03*
X134937500Y-66198750D03*
X134937500Y-68738750D03*
X134937500Y-71278750D03*
X134937500Y-73818750D03*
X119697500Y-73818750D03*
X119697500Y-71278750D03*
X119697500Y-68738750D03*
X119697500Y-66198750D03*
X119697500Y-63658750D03*
X119697500Y-61118750D03*
X119697500Y-58578750D03*
X119697500Y-56038750D03*
X119697500Y-53498750D03*
X119697500Y-50958750D03*
X119697500Y-48418750D03*
X119697500Y-45878750D03*
%TD*%
D14*
%TO.C,J3*%
X151130000Y-43180000D03*
X151130000Y-45720000D03*
X148590000Y-43180000D03*
X148590000Y-45720000D03*
X146050000Y-43180000D03*
X146050000Y-45720000D03*
X143510000Y-43180000D03*
D12*
X143510000Y-45720000D03*
%TD*%
D16*
%TO.C,H4*%
X168910000Y-132080000D03*
%TD*%
%TO.C,H2*%
X168910000Y-45720000D03*
%TD*%
D13*
%TO.C,C5*%
X100330000Y-50800000D03*
X105330000Y-50800000D03*
%TD*%
D14*
%TO.C,R2*%
X139700000Y-107950000D03*
D13*
X129540000Y-107950000D03*
%TD*%
D14*
%TO.C,R1*%
X128270000Y-115570000D03*
D13*
X118110000Y-115570000D03*
%TD*%
D18*
%TO.C,Q2*%
X163830000Y-67310000D03*
D19*
X163830000Y-69850000D03*
X163830000Y-68580000D03*
%TD*%
D13*
%TO.C,C8*%
X109300000Y-50800000D03*
X114300000Y-50800000D03*
%TD*%
D18*
%TO.C,Q1*%
X133350000Y-113030000D03*
D19*
X133350000Y-115570000D03*
X133350000Y-114300000D03*
%TD*%
D16*
%TO.C,H3*%
X92710000Y-45720000D03*
%TD*%
D12*
%TO.C,D4*%
X153670000Y-64770000D03*
D14*
X143510000Y-64770000D03*
%TD*%
D13*
%TO.C,R9*%
X99060000Y-96520000D03*
D14*
X109220000Y-96520000D03*
%TD*%
%TO.C,R4*%
X158750000Y-73660000D03*
D13*
X158750000Y-63500000D03*
%TD*%
D14*
%TO.C,D1*%
X137160000Y-104140000D03*
D12*
X129540000Y-104140000D03*
%TD*%
%TO.C,C6*%
X101600000Y-55880000D03*
D13*
X104100000Y-55880000D03*
%TD*%
D14*
%TO.C,D2*%
X153670000Y-68580000D03*
D12*
X143510000Y-68580000D03*
%TD*%
D13*
%TO.C,C7*%
X110490000Y-55880000D03*
D12*
X112990000Y-55880000D03*
%TD*%
D14*
%TO.C,R3*%
X143510000Y-72390000D03*
D13*
X153670000Y-72390000D03*
%TD*%
D16*
%TO.C,H1*%
X187960000Y-132080000D03*
%TD*%
D14*
%TO.C,R12*%
X212090000Y-91440000D03*
D13*
X222250000Y-91440000D03*
%TD*%
D12*
%TO.C,J2*%
X238760000Y-116840000D03*
D14*
X241300000Y-116840000D03*
X243840000Y-116840000D03*
%TD*%
D13*
%TO.C,B1*%
X214947500Y-45878750D03*
X214947500Y-48418750D03*
X214947500Y-50958750D03*
X214947500Y-53498750D03*
X214947500Y-56038750D03*
X214947500Y-58578750D03*
X214947500Y-61118750D03*
X214947500Y-63658750D03*
X214947500Y-66198750D03*
X214947500Y-68738750D03*
X214947500Y-71278750D03*
X214947500Y-73818750D03*
X230187500Y-73818750D03*
X230187500Y-71278750D03*
X230187500Y-68738750D03*
X230187500Y-66198750D03*
X230187500Y-63658750D03*
X230187500Y-61118750D03*
X230187500Y-58578750D03*
X230187500Y-56038750D03*
X230187500Y-53498750D03*
X230187500Y-50958750D03*
X230187500Y-48418750D03*
X230187500Y-45878750D03*
D17*
X227330000Y-54610000D03*
X227330000Y-57150000D03*
D13*
X216217500Y-43338750D03*
X218757500Y-43338750D03*
X221297500Y-43338750D03*
X223837500Y-43338750D03*
X226377500Y-43338750D03*
X228917500Y-43338750D03*
X227647500Y-73818750D03*
X225107500Y-73818750D03*
X222567500Y-73818750D03*
%TD*%
%TO.C,C1*%
X227290000Y-86360000D03*
D12*
X224790000Y-86360000D03*
%TD*%
%TO.C,C2*%
X238760000Y-109220000D03*
D13*
X241260000Y-109220000D03*
%TD*%
%TO.C,C3*%
X215820000Y-84455000D03*
X210820000Y-84455000D03*
%TD*%
%TO.C,C4*%
X238760000Y-104140000D03*
X243760000Y-104140000D03*
%TD*%
%TO.C,C5*%
X200580000Y-50800000D03*
X195580000Y-50800000D03*
%TD*%
%TO.C,C6*%
X199350000Y-55880000D03*
D12*
X196850000Y-55880000D03*
%TD*%
%TO.C,C7*%
X208240000Y-55880000D03*
D13*
X205740000Y-55880000D03*
%TD*%
%TO.C,C8*%
X209550000Y-50800000D03*
X204550000Y-50800000D03*
%TD*%
D12*
%TO.C,D1*%
X224790000Y-104140000D03*
D14*
X232410000Y-104140000D03*
%TD*%
D12*
%TO.C,D2*%
X238760000Y-68580000D03*
D14*
X248920000Y-68580000D03*
%TD*%
%TO.C,D4*%
X238760000Y-64770000D03*
D12*
X248920000Y-64770000D03*
%TD*%
D16*
%TO.C,H2*%
X264160000Y-45720000D03*
%TD*%
%TO.C,H3*%
X187960000Y-45720000D03*
%TD*%
%TO.C,H4*%
X264160000Y-132080000D03*
%TD*%
D12*
%TO.C,J3*%
X238760000Y-45720000D03*
D14*
X238760000Y-43180000D03*
X241300000Y-45720000D03*
X241300000Y-43180000D03*
X243840000Y-45720000D03*
X243840000Y-43180000D03*
X246380000Y-45720000D03*
X246380000Y-43180000D03*
%TD*%
D19*
%TO.C,Q1*%
X228600000Y-114300000D03*
X228600000Y-115570000D03*
D18*
X228600000Y-113030000D03*
%TD*%
D19*
%TO.C,Q2*%
X259080000Y-68580000D03*
X259080000Y-69850000D03*
D18*
X259080000Y-67310000D03*
%TD*%
D13*
%TO.C,R1*%
X213360000Y-115570000D03*
D14*
X223520000Y-115570000D03*
%TD*%
D13*
%TO.C,R2*%
X224790000Y-107950000D03*
D14*
X234950000Y-107950000D03*
%TD*%
D13*
%TO.C,R3*%
X248920000Y-72390000D03*
D14*
X238760000Y-72390000D03*
%TD*%
D13*
%TO.C,R4*%
X254000000Y-63500000D03*
D14*
X254000000Y-73660000D03*
%TD*%
%TO.C,R9*%
X204470000Y-96520000D03*
D13*
X194310000Y-96520000D03*
%TD*%
%TO.C,R10*%
X195580000Y-111760000D03*
D14*
X205740000Y-111760000D03*
%TD*%
%TO.C,R11*%
X213360000Y-121920000D03*
D13*
X223520000Y-121920000D03*
%TD*%
D14*
%TO.C,R13*%
X228600000Y-100330000D03*
D13*
X238760000Y-100330000D03*
%TD*%
%TO.C,R14*%
X226060000Y-95250000D03*
D14*
X236220000Y-95250000D03*
%TD*%
D13*
%TO.C,RV3*%
X190500000Y-116840000D03*
X190500000Y-114300000D03*
D12*
X190500000Y-111760000D03*
%TD*%
D15*
%TO.C,RV4*%
X254000000Y-104140000D03*
D13*
X251460000Y-104140000D03*
X248920000Y-104140000D03*
%TD*%
D12*
%TO.C,U1*%
X213360000Y-95250000D03*
D14*
X220980000Y-110490000D03*
X213360000Y-97790000D03*
X220980000Y-107950000D03*
X213360000Y-100330000D03*
X220980000Y-105410000D03*
X213360000Y-102870000D03*
X220980000Y-102870000D03*
X213360000Y-105410000D03*
X220980000Y-100330000D03*
X213360000Y-107950000D03*
X220980000Y-97790000D03*
X213360000Y-110490000D03*
X220980000Y-95250000D03*
%TD*%
%TO.C,U2*%
X256540000Y-119380000D03*
X248920000Y-111760000D03*
X254000000Y-119380000D03*
X251460000Y-111760000D03*
X251460000Y-119380000D03*
X254000000Y-111760000D03*
X248920000Y-119380000D03*
D12*
X256540000Y-111760000D03*
%TD*%
D14*
%TO.C,U3*%
X203200000Y-101600000D03*
X193040000Y-106680000D03*
X203200000Y-104140000D03*
X193040000Y-104140000D03*
X203200000Y-106680000D03*
D12*
X193040000Y-101600000D03*
%TD*%
%TO.C,J1*%
X190500000Y-78740000D03*
D14*
X190500000Y-76200000D03*
X190500000Y-73660000D03*
X190500000Y-71120000D03*
X190500000Y-68580000D03*
X190500000Y-66040000D03*
X190500000Y-63500000D03*
%TD*%
D11*
%TO.C,U4*%
X200660000Y-45720000D03*
D10*
X203200000Y-45720000D03*
X205740000Y-45720000D03*
%TD*%
%TO.C,LVL1*%
G36*
G01*
X209542000Y-77089000D02*
X209542000Y-77851000D01*
G75*
G02*
X209161000Y-78232000I-381000J0D01*
G01*
X207399000Y-78232000D01*
G75*
G02*
X207018000Y-77851000I0J381000D01*
G01*
X207018000Y-77089000D01*
G75*
G02*
X207399000Y-76708000I381000J0D01*
G01*
X209161000Y-76708000D01*
G75*
G02*
X209542000Y-77089000I0J-381000D01*
G01*
G37*
G36*
G01*
X209542000Y-74549000D02*
X209542000Y-75311000D01*
G75*
G02*
X209161000Y-75692000I-381000J0D01*
G01*
X207399000Y-75692000D01*
G75*
G02*
X207018000Y-75311000I0J381000D01*
G01*
X207018000Y-74549000D01*
G75*
G02*
X207399000Y-74168000I381000J0D01*
G01*
X209161000Y-74168000D01*
G75*
G02*
X209542000Y-74549000I0J-381000D01*
G01*
G37*
G36*
G01*
X209542000Y-72009000D02*
X209542000Y-72771000D01*
G75*
G02*
X209161000Y-73152000I-381000J0D01*
G01*
X207399000Y-73152000D01*
G75*
G02*
X207018000Y-72771000I0J381000D01*
G01*
X207018000Y-72009000D01*
G75*
G02*
X207399000Y-71628000I381000J0D01*
G01*
X209161000Y-71628000D01*
G75*
G02*
X209542000Y-72009000I0J-381000D01*
G01*
G37*
G36*
G01*
X209542000Y-69469000D02*
X209542000Y-70231000D01*
G75*
G02*
X209161000Y-70612000I-381000J0D01*
G01*
X207399000Y-70612000D01*
G75*
G02*
X207018000Y-70231000I0J381000D01*
G01*
X207018000Y-69469000D01*
G75*
G02*
X207399000Y-69088000I381000J0D01*
G01*
X209161000Y-69088000D01*
G75*
G02*
X209542000Y-69469000I0J-381000D01*
G01*
G37*
G36*
G01*
X209542000Y-66929000D02*
X209542000Y-67691000D01*
G75*
G02*
X209161000Y-68072000I-381000J0D01*
G01*
X207399000Y-68072000D01*
G75*
G02*
X207018000Y-67691000I0J381000D01*
G01*
X207018000Y-66929000D01*
G75*
G02*
X207399000Y-66548000I381000J0D01*
G01*
X209161000Y-66548000D01*
G75*
G02*
X209542000Y-66929000I0J-381000D01*
G01*
G37*
G36*
G01*
X209542000Y-64389000D02*
X209542000Y-65151000D01*
G75*
G02*
X209161000Y-65532000I-381000J0D01*
G01*
X207399000Y-65532000D01*
G75*
G02*
X207018000Y-65151000I0J381000D01*
G01*
X207018000Y-64389000D01*
G75*
G02*
X207399000Y-64008000I381000J0D01*
G01*
X209161000Y-64008000D01*
G75*
G02*
X209542000Y-64389000I0J-381000D01*
G01*
G37*
G36*
G01*
X198112000Y-64389000D02*
X198112000Y-65151000D01*
G75*
G02*
X197731000Y-65532000I-381000J0D01*
G01*
X195969000Y-65532000D01*
G75*
G02*
X195588000Y-65151000I0J381000D01*
G01*
X195588000Y-64389000D01*
G75*
G02*
X195969000Y-64008000I381000J0D01*
G01*
X197731000Y-64008000D01*
G75*
G02*
X198112000Y-64389000I0J-381000D01*
G01*
G37*
G36*
G01*
X198112000Y-66929000D02*
X198112000Y-67691000D01*
G75*
G02*
X197731000Y-68072000I-381000J0D01*
G01*
X195969000Y-68072000D01*
G75*
G02*
X195588000Y-67691000I0J381000D01*
G01*
X195588000Y-66929000D01*
G75*
G02*
X195969000Y-66548000I381000J0D01*
G01*
X197731000Y-66548000D01*
G75*
G02*
X198112000Y-66929000I0J-381000D01*
G01*
G37*
G36*
G01*
X198112000Y-69469000D02*
X198112000Y-70231000D01*
G75*
G02*
X197731000Y-70612000I-381000J0D01*
G01*
X195969000Y-70612000D01*
G75*
G02*
X195588000Y-70231000I0J381000D01*
G01*
X195588000Y-69469000D01*
G75*
G02*
X195969000Y-69088000I381000J0D01*
G01*
X197731000Y-69088000D01*
G75*
G02*
X198112000Y-69469000I0J-381000D01*
G01*
G37*
G36*
G01*
X198112000Y-72009000D02*
X198112000Y-72771000D01*
G75*
G02*
X197731000Y-73152000I-381000J0D01*
G01*
X195969000Y-73152000D01*
G75*
G02*
X195588000Y-72771000I0J381000D01*
G01*
X195588000Y-72009000D01*
G75*
G02*
X195969000Y-71628000I381000J0D01*
G01*
X197731000Y-71628000D01*
G75*
G02*
X198112000Y-72009000I0J-381000D01*
G01*
G37*
G36*
G01*
X198112000Y-74549000D02*
X198112000Y-75311000D01*
G75*
G02*
X197731000Y-75692000I-381000J0D01*
G01*
X195969000Y-75692000D01*
G75*
G02*
X195588000Y-75311000I0J381000D01*
G01*
X195588000Y-74549000D01*
G75*
G02*
X195969000Y-74168000I381000J0D01*
G01*
X197731000Y-74168000D01*
G75*
G02*
X198112000Y-74549000I0J-381000D01*
G01*
G37*
G36*
G01*
X198112000Y-77089000D02*
X198112000Y-77851000D01*
G75*
G02*
X197731000Y-78232000I-381000J0D01*
G01*
X195969000Y-78232000D01*
G75*
G02*
X195588000Y-77851000I0J381000D01*
G01*
X195588000Y-77089000D01*
G75*
G02*
X195969000Y-76708000I381000J0D01*
G01*
X197731000Y-76708000D01*
G75*
G02*
X198112000Y-77089000I0J-381000D01*
G01*
G37*
%TD*%
M02*
