M48
; DRILL file {KiCad (5.1.5)-3} date 30/05/2020 12:49:01
; FORMAT={-:-/ absolute / metric / decimal}
; #@! TF.CreationDate,2020-05-30T12:49:01-06:00
; #@! TF.GenerationSoftware,Kicad,Pcbnew,(5.1.5)-3
FMAT,2
METRIC
T1C0.400
T2C0.710
T3C0.750
T4C0.800
T5C0.900
T6C1.000
T7C1.016
T8C1.200
T9C5.000
%
G90
G05
T1
X39.286Y39.159
X39.624Y18.415
X40.386Y27.559
X40.64Y60.833
X44.208Y43.707
X46.736Y27.559
X50.8Y30.099
X51.308Y18.415
X52.722Y60.833
X53.34Y78.359
X56.134Y30.099
X60.96Y-17.653
X60.96Y-28.067
X64.516Y78.359
X66.548Y36.449
X69.596Y21.717
X69.596Y14.351
X72.39Y81.661
X72.39Y36.449
X72.39Y20.447
X72.39Y11.557
X78.994Y77.851
X86.868Y81.712
X87.376Y77.851
X94.488Y11.557
X94.488Y2.921
X97.79Y61.087
X100.584Y43.561
X102.616Y61.087
X103.378Y-7.747
X103.632Y18.161
X108.966Y55.499
X110.134Y45.949
X110.134Y31.115
X114.554Y-7.747
X115.113Y18.212
T2
X65.532Y31.369
X68.072Y31.369
X70.612Y31.369
X96.012Y14.605
X98.552Y14.605
X101.092Y14.605
X97.282Y-25.019
X99.822Y-25.019
X102.362Y-25.019
X66.802Y-13.589
X69.342Y-13.589
X71.882Y-13.589
X52.959Y-1.397
X52.959Y-3.937
X52.959Y-6.477
X52.959Y-9.017
T3
X82.55Y12.827
X83.82Y12.827
X85.09Y12.827
T4
X92.964Y20.701
X103.124Y20.701
X94.742Y-14.859
X104.902Y-14.859
X78.232Y-2.159
X88.392Y-2.159
X48.514Y42.443
X48.514Y39.943
X94.742Y-11.049
X104.902Y-11.049
X113.182Y40.411
X113.182Y37.871
X113.182Y35.331
X113.182Y32.791
X120.802Y40.411
X120.802Y37.871
X120.802Y35.331
X120.802Y32.791
X64.262Y-8.509
X74.422Y-8.509
X78.74Y44.577
X88.9Y44.577
X80.772Y-7.239
X80.772Y-9.779
X80.772Y-12.319
X80.772Y-14.859
X80.772Y-17.399
X80.772Y-19.939
X80.772Y-22.479
X88.392Y-7.239
X88.392Y-9.779
X88.392Y-12.319
X88.392Y-14.859
X88.392Y-17.399
X88.392Y-19.939
X88.392Y-22.479
X43.942Y35.331
X48.942Y35.331
X30.204Y27.864
X35.204Y27.864
X92.456Y39.751
X102.616Y39.751
X63.5Y25.781
X73.66Y25.781
X78.74Y18.161
X88.9Y18.161
X97.282Y-0.929
X97.282Y-3.429
X33.481Y73.914
X38.481Y73.914
X53.848Y34.925
X53.848Y24.765
X56.388Y34.925
X56.388Y24.765
X58.928Y34.925
X58.928Y24.765
X92.456Y35.687
X102.616Y35.687
X94.488Y24.511
X102.108Y24.511
X92.202Y0.381
X92.202Y-4.619
X31.434Y23.038
X33.934Y23.038
X107.137Y41.427
X107.137Y31.267
X80.264Y38.227
X80.264Y35.687
X80.264Y33.147
X80.264Y30.607
X80.264Y28.067
X80.264Y25.527
X80.264Y22.987
X87.884Y38.227
X87.884Y35.687
X87.884Y33.147
X87.884Y30.607
X87.884Y28.067
X87.884Y25.527
X87.884Y22.987
X34.711Y68.58
X37.211Y68.58
X64.516Y-18.669
X74.676Y-18.669
X63.5Y39.751
X73.66Y39.751
X94.742Y-18.669
X104.902Y-18.669
T5
X85.852Y84.201
X96.012Y84.201
X99.314Y84.455
X109.474Y84.455
X99.06Y89.535
X109.22Y89.535
X85.852Y89.027
X96.012Y89.027
T6
X49.428Y68.758
X49.428Y66.218
X55.372Y87.63
X55.372Y85.09
X57.912Y87.63
X57.912Y85.09
X60.452Y87.63
X60.452Y85.09
X62.992Y87.63
X62.992Y85.09
X45.06Y68.91
X45.06Y66.37
X122.885Y27.254
X122.885Y24.714
X122.885Y22.174
T7
X64.516Y73.787
X64.516Y71.247
X64.516Y68.707
X64.516Y66.167
X64.516Y63.627
X64.516Y61.087
X67.056Y75.057
X67.056Y59.817
X69.596Y75.057
X69.596Y59.817
X72.136Y75.057
X72.136Y59.817
X74.676Y75.057
X74.676Y59.817
X75.787Y72.2
X77.216Y75.057
X77.216Y59.817
X78.327Y72.2
X79.756Y75.057
X79.756Y59.817
X82.296Y75.057
X82.296Y59.817
X84.836Y75.057
X84.836Y59.817
X87.376Y75.057
X87.376Y59.817
X89.916Y75.057
X89.916Y59.817
X92.456Y75.057
X92.456Y59.817
X94.996Y75.057
X94.996Y72.517
X94.996Y69.977
X94.996Y67.437
X94.996Y59.817
T8
X36.322Y57.836
X36.322Y47.136
X43.822Y57.836
X43.822Y47.136
T9
X126.492Y-28.829
X126.619Y83.947
X33.909Y83.947
X33.909Y-29.083
T0
M30
