G04 #@! TF.GenerationSoftware,KiCad,Pcbnew,(5.1.6)-1*
G04 #@! TF.CreationDate,2020-06-09T21:43:49-06:00*
G04 #@! TF.ProjectId,Sensores,53656e73-6f72-4657-932e-6b696361645f,rev?*
G04 #@! TF.SameCoordinates,PX83c6600PY697e1a8*
G04 #@! TF.FileFunction,Copper,L1,Top*
G04 #@! TF.FilePolarity,Positive*
%FSLAX46Y46*%
G04 Gerber Fmt 4.6, Leading zero omitted, Abs format (unit mm)*
G04 Created by KiCad (PCBNEW (5.1.6)-1) date 2020-06-09 21:43:49*
%MOMM*%
%LPD*%
G01*
G04 APERTURE LIST*
G04 #@! TA.AperFunction,ComponentPad*
%ADD10C,2.200000*%
G04 #@! TD*
G04 #@! TA.AperFunction,ComponentPad*
%ADD11C,2.000000*%
G04 #@! TD*
G04 #@! TA.AperFunction,ComponentPad*
%ADD12R,2.000000X2.000000*%
G04 #@! TD*
G04 #@! TA.AperFunction,ComponentPad*
%ADD13O,2.000000X2.000000*%
G04 #@! TD*
G04 #@! TA.AperFunction,ComponentPad*
%ADD14C,2.600000*%
G04 #@! TD*
G04 #@! TA.AperFunction,ComponentPad*
%ADD15O,1.150000X2.000000*%
G04 #@! TD*
G04 #@! TA.AperFunction,ComponentPad*
%ADD16R,1.150000X2.000000*%
G04 #@! TD*
G04 #@! TA.AperFunction,ComponentPad*
%ADD17O,2.200000X2.000000*%
G04 #@! TD*
G04 #@! TA.AperFunction,ComponentPad*
%ADD18R,2.200000X2.000000*%
G04 #@! TD*
G04 #@! TA.AperFunction,ComponentPad*
%ADD19O,1.600000X2.000000*%
G04 #@! TD*
G04 #@! TA.AperFunction,ViaPad*
%ADD20C,2.200000*%
G04 #@! TD*
G04 #@! TA.AperFunction,ViaPad*
%ADD21C,2.000000*%
G04 #@! TD*
G04 #@! TA.AperFunction,Conductor*
%ADD22C,0.600000*%
G04 #@! TD*
G04 #@! TA.AperFunction,Conductor*
%ADD23C,1.000000*%
G04 #@! TD*
G04 #@! TA.AperFunction,Conductor*
%ADD24C,0.500000*%
G04 #@! TD*
G04 APERTURE END LIST*
D10*
X67056000Y59817000D03*
X69596000Y59817000D03*
X72136000Y59817000D03*
X74676000Y59817000D03*
X77216000Y59817000D03*
X79756000Y59817000D03*
X82296000Y59817000D03*
X84836000Y59817000D03*
X87376000Y59817000D03*
X89916000Y59817000D03*
X92456000Y59817000D03*
X94996000Y59817000D03*
X94996000Y75057000D03*
X92456000Y75057000D03*
X89916000Y75057000D03*
X87376000Y75057000D03*
X84836000Y75057000D03*
X82296000Y75057000D03*
X79756000Y75057000D03*
X77216000Y75057000D03*
X74676000Y75057000D03*
X72136000Y75057000D03*
X69596000Y75057000D03*
X67056000Y75057000D03*
X75787250Y72199500D03*
X78327250Y72199500D03*
X64516000Y61087000D03*
X64516000Y63627000D03*
X64516000Y66167000D03*
X64516000Y68707000D03*
X64516000Y71247000D03*
X64516000Y73787000D03*
X94996000Y72517000D03*
X94996000Y69977000D03*
X94996000Y67437000D03*
D11*
X45974000Y-9017000D03*
X45974000Y-6477000D03*
X45974000Y-3937000D03*
D12*
X45974000Y-1397000D03*
X96012000Y14605000D03*
D11*
X98552000Y14605000D03*
X101092000Y14605000D03*
D13*
X64516000Y-18669000D03*
D11*
X74676000Y-18669000D03*
D14*
X43822000Y57835800D03*
X43822000Y47135800D03*
X36322000Y47135800D03*
X36322000Y57835800D03*
D11*
X43942000Y35331400D03*
X48942000Y35331400D03*
X92202000Y-4619000D03*
X92202000Y381000D03*
D12*
X55372000Y85090000D03*
D13*
X55372000Y87630000D03*
X57912000Y85090000D03*
X57912000Y87630000D03*
X60452000Y85090000D03*
X60452000Y87630000D03*
X62992000Y85090000D03*
X62992000Y87630000D03*
X63500000Y39751000D03*
D11*
X73660000Y39751000D03*
D12*
X94488000Y24511000D03*
D13*
X102108000Y24511000D03*
D15*
X83820000Y12827000D03*
X82550000Y12827000D03*
D16*
X85090000Y12827000D03*
D12*
X66802000Y-13589000D03*
D11*
X69342000Y-13589000D03*
X71882000Y-13589000D03*
X102362000Y-25019000D03*
X99822000Y-25019000D03*
D12*
X97282000Y-25019000D03*
D11*
X70612000Y31369000D03*
X68072000Y31369000D03*
D12*
X65532000Y31369000D03*
D13*
X87884000Y38227000D03*
D17*
X80264000Y22987000D03*
X87884000Y35687000D03*
X80264000Y25527000D03*
X87884000Y33147000D03*
X80264000Y28067000D03*
X87884000Y30607000D03*
X80264000Y30607000D03*
X87884000Y28067000D03*
X80264000Y33147000D03*
X87884000Y25527000D03*
X80264000Y35687000D03*
X87884000Y22987000D03*
D11*
X80264000Y38227000D03*
D12*
X80772000Y-7239000D03*
D17*
X88392000Y-22479000D03*
X80772000Y-9779000D03*
X88392000Y-19939000D03*
X80772000Y-12319000D03*
X88392000Y-17399000D03*
X80772000Y-14859000D03*
X88392000Y-14859000D03*
X80772000Y-17399000D03*
X88392000Y-12319000D03*
X80772000Y-19939000D03*
X88392000Y-9779000D03*
X80772000Y-22479000D03*
X88392000Y-7239000D03*
D13*
X88900000Y18161000D03*
D11*
X78740000Y18161000D03*
X92964000Y20701000D03*
D13*
X103124000Y20701000D03*
D11*
X64262000Y-8509000D03*
D13*
X74422000Y-8509000D03*
D11*
X88392000Y-2159000D03*
D13*
X78232000Y-2159000D03*
X105029000Y-14478000D03*
D11*
X94869000Y-14478000D03*
X104902000Y-18669000D03*
D13*
X94742000Y-18669000D03*
X94742000Y-10668000D03*
D11*
X104902000Y-10668000D03*
X63500000Y25781000D03*
D13*
X73660000Y25781000D03*
X102616000Y35687000D03*
D11*
X92456000Y35687000D03*
X88900000Y44577000D03*
D13*
X78740000Y44577000D03*
X92329000Y39497000D03*
D11*
X102489000Y39497000D03*
D12*
X122885200Y27254200D03*
D13*
X122885200Y24714200D03*
X122885200Y22174200D03*
D12*
X48514000Y39943400D03*
D11*
X48514000Y42443400D03*
X97282000Y-929000D03*
D12*
X97282000Y-3429000D03*
D11*
X38481000Y73914000D03*
X33481000Y73914000D03*
X34711000Y68580000D03*
D12*
X37211000Y68580000D03*
D11*
X31434400Y23037800D03*
D12*
X33934400Y23037800D03*
D11*
X35204400Y27863800D03*
X30204400Y27863800D03*
D12*
X49428400Y68757800D03*
D13*
X49428400Y66217800D03*
X45059600Y68910200D03*
D12*
X45059600Y66370200D03*
D13*
X85852000Y89027000D03*
D12*
X96012000Y89027000D03*
D13*
X109220000Y89535000D03*
D12*
X99060000Y89535000D03*
X85852000Y84201000D03*
D13*
X96012000Y84201000D03*
D12*
X109474000Y84455000D03*
D13*
X99314000Y84455000D03*
D11*
X102489000Y31877000D03*
D13*
X92329000Y31877000D03*
D18*
X113182400Y40411400D03*
D17*
X120802400Y32791400D03*
X113182400Y37871400D03*
X120802400Y35331400D03*
X113182400Y35331400D03*
X120802400Y37871400D03*
X113182400Y32791400D03*
X120802400Y40411400D03*
D12*
X53848000Y24765000D03*
D13*
X58928000Y34925000D03*
D19*
X56388000Y24765000D03*
D13*
X56388000Y34925000D03*
X58928000Y24765000D03*
X53848000Y34925000D03*
X117094000Y47117000D03*
D11*
X117094000Y57277000D03*
X120904000Y47117000D03*
D13*
X120904000Y57277000D03*
D20*
X72390000Y81661000D03*
X86868000Y81711800D03*
X94488000Y2921000D03*
X94488000Y11557000D03*
D21*
X97790000Y61087000D03*
X102616000Y61087000D03*
D20*
X103632000Y18161000D03*
X115112800Y18211800D03*
X110134400Y45948600D03*
X110134400Y31115000D03*
D21*
X53340000Y78359000D03*
X50800000Y30099000D03*
D20*
X56134000Y30099000D03*
X64516000Y78359000D03*
X103378000Y-7747000D03*
X114554000Y-7747000D03*
X69596000Y21717000D03*
X69596000Y14351000D03*
X60960000Y-17653000D03*
X60960000Y-28067000D03*
X72390000Y36449000D03*
X66548000Y36449000D03*
X72390000Y20447000D03*
X72390000Y11557000D03*
X123181600Y31242000D03*
X131064000Y31242000D03*
X34544000Y-6932913D03*
X40819087Y-6932913D03*
X78994000Y77851000D03*
X87376000Y77851000D03*
X108966000Y55499000D03*
X98044000Y48387000D03*
X39624000Y18415000D03*
X51308000Y18415000D03*
X46736000Y27559000D03*
X40386000Y27559000D03*
X39286001Y39159001D03*
X44208110Y43707472D03*
X52722000Y60833000D03*
X40640000Y60833000D03*
X43434000Y-20193000D03*
X51054000Y-12573000D03*
D22*
X72390000Y81661000D02*
X86868000Y81711800D01*
X94488000Y11557000D02*
X94488000Y2921000D01*
X97790000Y61087000D02*
X102616000Y61087000D01*
X103632000Y18161000D02*
X115112800Y18211800D01*
D23*
X110134400Y45948600D02*
X110134400Y31115000D01*
X50800000Y30099000D02*
X56134000Y30099000D01*
D22*
X53340000Y78359000D02*
X64516000Y78359000D01*
X103378000Y-7747000D02*
X114554000Y-7747000D01*
D24*
X69596000Y21717000D02*
X69596000Y14351000D01*
D22*
X60960000Y-17653000D02*
X60960000Y-28067000D01*
D24*
X72390000Y36449000D02*
X66548000Y36449000D01*
X72390000Y11557000D02*
X72390000Y20447000D01*
D23*
X123181600Y31242000D02*
X131064000Y31242000D01*
X34544000Y-6932913D02*
X40819087Y-6932913D01*
D22*
X78994000Y77851000D02*
X87376000Y77851000D01*
X98044000Y48387000D02*
X108966000Y55499000D01*
D23*
X43434000Y18415000D02*
X39624000Y18415000D01*
X51308000Y18415000D02*
X43434000Y18415000D01*
X44261127Y27559000D02*
X46736000Y27559000D01*
X40386000Y27559000D02*
X44261127Y27559000D01*
X39286001Y39159001D02*
X39659639Y39159001D01*
X39659639Y39159001D02*
X44208110Y43707472D01*
X52722000Y60833000D02*
X40640000Y60833000D01*
X43434000Y-20193000D02*
X51054000Y-12573000D01*
M02*
